<ttFont>
          <CharString index="0">
            -107 callgsubr
            endchar
          </CharString>
          <CharString index="1">
            -20 hstemhm
            1040 90 hintmask 01111000
            -105 callgsubr
            hintmask 10111000
            -106 callgsubr
            return
          </CharString>
          <CharString index="2">
            -90 64 -76 65 31 18 27 26 35 -45 22 -24 17 vhcurveto
            194 47 299 65 226 vhcurveto
            2 6 0 4 6 vvcurveto
            29 -20 16 -27 -8 -8 -2 -4 -6 vhcurveto
            74 -4 -13 61 -90 hhcurveto
            -444 -911 -87 callgsubr
            -16 -4 -21 -8 -20 hvcurveto
            -117 -256 -139 -246 -207 -180 rrcurveto
            return
          </CharString>
          <CharString index="3">
            -8 -41 -17 -39 -31 vvcurveto
            -74 25 -104 callgsubr
            return
          </CharString>
          <CharString index="4">
            -51 callsubr
            -463 94 1221 100 -65 65 -65 94 hintmask 1011010110000000
            489 1974 rmoveto
            -98 callgsubr
            -207 45 -203 131 199 33 17 35 36 44 callsubr
            -16 -63 -17 -96 -65 -246 273 -156 210 -47 vhcurveto
            -64 callgsubr
            hintmask 1101010100100000
            -60 callgsubr
            hintmask 1101010101000000
            -57 callgsubr
            hintmask 1101001101000000
            -19 callsubr
            -53 -1024 -81 callgsubr
            hintmask 1100110110000000
            -73 callgsubr
          </CharString>
          <CharString index="5">
            -20 43 callsubr
            hintmask 01111000
            -92 callsubr
            hintmask 10111000
            -105 callsubr
            return
          </CharString>
          <CharString index="6">
            -110 -203 -113 -201 -127 -192 -90 4 -90 4 -86 10 rrcurveto
            -29 -4 -28 -28 -27 vvcurveto
            -14 8 -13 20 -8 vhcurveto
            74 -8 78 -4 80 -4 -23 -33 -24 -31 -23 -30 -113 -148 -112 -131 -191 -74 -2 -2 rcurveline
            12 return
          </CharString>
          <CharString index="7">
            406 1937 rmoveto
            -138 -505 -57 -412 -94 -528 rrcurveto
            -13 -39 -4 -41 -39 vvcurveto
            -209 152 -184 213 389 86 260 231 78 vhcurveto
            98 289 129 719 84 293 12 47 23 45 12 47 rrcurveto
            77 callgsubr
            75 callsubr
            23 -16 12 -20 -25 -33 -31 -49 -14 vhcurveto
            -113 -372 -110 -662 -119 -367 rrcurveto
            -200 -66 -63 -213 -326 hhcurveto
            -194 -97 127 159 54 19 106 16 82 hvcurveto
            82 408 55 350 82 399 39 125 rcurveline
            10 33 3 0 2 16 rrcurveto
            -18 callgsubr
            return
          </CharString>
          <CharString index="8">
            381 -92 328 -367 vhcurveto
            -69 callgsubr
            -496 -246 -807 -469 -217 -55 30 callgsubr
            258 -79 callsubr
            return
          </CharString>
          <CharString index="9">
            284 -23 99 594 94 1216 -20 hstem
            360 105 vstem
            537 1931 rmoveto
            -88 -305 -89 -412 -182 vvcurveto
            -223 76 -139 144 73 86 32 68 99 vhcurveto
            47 33 43 35 41 36 -13 -86 -8 -67 -6 -29 -76 -364 -225 -242 -238 -10 rrcurveto
            -237 -176 262 176 -80 hvcurveto
            6 -10 -6 4 -11 hhcurveto
            -30 -35 -35 -34 -4 0 -5 2 -2 hvcurveto
            -174 141 115 -293 301 hhcurveto
            385 209 392 327 69 hvcurveto
            17 82 16 121 17 107 157 200 84 240 51 244 rrcurveto
            13 57 10 63 50 vvcurveto
            61 -16 45 -46 -190 -109 -575 -383 -57 vhcurveto
            -115 -86 -188 -129 -88 hhcurveto
            -105 -55 113 190 197 92 364 76 318 hvcurveto
            24 -10 10 -17 -22 -33 -22 -27 -14 vhcurveto
            768 -100 rmoveto
            -5 -53 -2 -13 -6 -28 -41 -193 -41 -180 -92 -170 31 201 61 237 95 199 rrcurveto
            endchar
          </CharString>
          <CharString index="10">
            719 748 rmoveto
            155 -54 callgsubr
            50 -155 157 273 178 510 256 vhcurveto
            -191 192 -3 callsubr
            -291 -194 -397 -139 -74 -57 84 123 247 163 14 callsubr
            return
          </CharString>
          <CharString index="11">
            160 356 -22 293 hhcurveto
            78 72 2 61 -24 callgsubr
            -34 callsubr
            84 277 45 315 80 283 rrcurveto
            -9 356 45 -2 50 -32 callgsubr
            -47 -129 -2 -127 hhcurveto
            -111 -98 2 6 -54 hvcurveto
            64 262 39 262 69 248 -19 callgsubr
            return
          </CharString>
          <CharString index="12">
            139 11 -21 782 96 1020 92 31 -20 hstem
            1022 86 vstem
            360 1767 rmoveto
            31 54 47 34 56 17 -205 -961 rcurveline
            17 -41 -55 30 -43 hhcurveto
            -29 -27 -16 -33 -32 84 -39 90 -29 hvcurveto
            -53 -260 -59 -238 -47 -278 -33 callgsubr
            45 264 55 228 51 247 rrcurveto
            -10 41 37 -4 25 hhcurveto
            438 213 315 400 229 -164 264 -326 hvcurveto
            -8 hlineto
            17 -2 -8 14 27 callgsubr
            -102 -20 -90 -54 -51 -96 rrcurveto
            -2 -8 -3 -24 callsubr
            17 -12 20 17 74 callsubr
            12 vhcurveto
            230 121 rmoveto
            282 150 -223 -227 -305 -211 -265 -309 -53 -39 4 9 -35 hvcurveto
            endchar
          </CharString>
          <CharString index="13">
            -257 5 20 callsubr
            1069 19 callgsubr
            39 16 rmoveto
            280 430 43 -108 44 -94 38 -111 rlinecurve
            19 -57 20 2 6 -62 rrcurveto
            -24 7 16 22 callgsubr
            27 29 22 29 4 hvcurveto
            69 -33 11 -18 65 vhcurveto
            -43 121 -52 125 -49 121 76 88 70 117 71 94 rrcurveto
            31 41 57 55 47 vvcurveto
            23 -12 14 -20 4 vhcurveto
            -9 -10 -2 -4 -10 hvcurveto
            -10 -6 -15 -8 -14 -13 -12 -16 rlinecurve
            -49 -59 -121 -183 -68 -84 -33 86 -24 62 -27 84 rrcurveto
            49 -16 -8 119 -64 hhcurveto
            -33 -22 -25 -29 -8 39 -108 12 -45 hvcurveto
            78 -213 8 -37 16 -37 -112 -164 -125 -209 -86 -135 rrcurveto
            -6 -8 0 -12 -7 vvcurveto
            hintmask 01100000
            -22 16 -10 21 18 74 callgsubr
            14 vhcurveto
            endchar
          </CharString>
          <CharString index="14">
            31 callsubr
            1032 -102 callsubr
            endchar
          </CharString>
          <CharString index="15">
            647 1032 rmoveto
            -67 callgsubr
            121 141 107 136 82 174 rrcurveto
            -31 -140 -37 -194 -88 vvcurveto
            return
          </CharString>
          <CharString index="16">
            190 -23 91 1826 86 7 callsubr
            1178 1722 rmoveto
            125 -37 -86 133 -193 28 callsubr
            hvcurveto
            -307 332 -475 -334 vvcurveto
            27 callsubr
            -207 -203 106 215 -62 callgsubr
            -281 262 -125 252 403 96 340 195 vhcurveto
            399 -331 377 387 vvcurveto
            101 63 118 119 156 75 -114 -101 15 vhcurveto
            -26 callsubr
            endchar
          </CharString>
          <CharString index="17">
            5 -10 hhcurveto
            -29 -29 -29 -35 -39 29 -12 25 43 53 27 12 26 hvcurveto
            142 63 112 123 95 117 53 65 49 68 47 70 return
          </CharString>
          <CharString index="18">
            rmoveto
            -76 -53 -59 -144 -49 -96 rrcurveto
            2 vlineto
            -37 -53 -100 -103 -51 33 callsubr
            41 76 88 19 14 76 vhcurveto
            -13 -39 -14 -37 -12 -34 -39 -101 -64 -96 -12 -109 rrcurveto
            -30 47 callgsubr
            4 43 19 41 18 41 rrcurveto
            -4 vlineto
            53 96 39 102 37 107 31 8 22 12 13 27 32 131 -12 16 23 103 rrcurveto
            8 43 29 34 43 44 callsubr
            -18 -76 -35 -166 -79 -26 vhcurveto
            2 6 4 10 4 vvcurveto
            -25 -49 -20 -53 -17 -54 -63 -12 -45 -2 -70 -12 rrcurveto
            2 2 2 2 2 vhcurveto
            45 59 41 68 35 65 27 50 24 79 47 33 rrcurveto
            13 15 4 14 12 vvcurveto
            89 callgsubr
            -20 -10 2 callsubr
            return
          </CharString>
          <CharString index="19">
            1079 1886 rmoveto
            138 hlineto
            32 17 35 25 32 -58 4 -80 -120 -314 -4 -47 -190 hvcurveto
            23 -4 -19 8 -12 hhcurveto
            -61 0 -49 -15 hvcurveto
            -29 callgsubr
            -285 -1280 -18 -221 -90 -203 -4 callsubr
            -20 callgsubr
            return
          </CharString>
          <CharString index="20">
            89 callsubr
            94 361 90 -90 127 hintmask 11110100
            -72 callgsubr
            hintmask 11111000
            -92 callgsubr
            return
          </CharString>
          <CharString index="21">
            579 727 408 -153 286 -385 -64 -63 -8 -14 -64 hvcurveto
            6 -4 -8 4 -6 hhcurveto
            -17 -20 -10 -16 -12 hvcurveto
            -107 -31 -100 -47 -90 -56 rrcurveto
            -17 -12 -8 -18 -17 33 callsubr
            23 6 8 2 3 8 vhcurveto
            324 133 rmoveto
            14 57 60 6 57 hhcurveto
            340 127 -244 -376 -635 return
          </CharString>
          <CharString index="22">
            -44 9 -21 33 -21 909 117 hstemhm
            698 103 hintmask 01110000
            664 1026 rmoveto
            -172 -170 -473 -191 -91 hvcurveto
            21 121 27 158 14 64 41 135 rlinecurve
            10 37 25 59 27 vvcurveto
            28 -17 33 -47 -18 -25 -4 -49 -10 vhcurveto
            -49 -234 -121 -635 -55 vvcurveto
            -35 2 -12 25 63 21 109 198 88 vhcurveto
            133 59 219 469 80 hhcurveto
            33 26 -14 -86 -39 -6 -55 -12 -74 hvcurveto
            -100 -598 rlineto
            hintmask 10110000
            -41 -7 17 -14 57 hhcurveto
            29 6 12 29 hvcurveto
            14 12 23 18 vvcurveto
            6 160 82 340 15 143 rrcurveto
            2 27 2 26 25 vvcurveto
            117 -35 104 -102 vhcurveto
            endchar
          </CharString>
          <CharString index="23">
            -44 callgsubr
            -10 27 -201 6 vhcurveto
            90 481 170 721 144 580 rrcurveto
            -2 67 2 0 74 hhcurveto
            31 6 24 -2 callgsubr
            -8 12 -23 8 vhcurveto
            return
          </CharString>
          <CharString index="24">
            -45 -17 callgsubr
            29 callsubr
            hintmask 11011000
            -75 callsubr
            hintmask 10111000
            -99 callsubr
            endchar
          </CharString>
          <CharString index="25">
            170 -65 callgsubr
            -242 -194 -420 87 callsubr
            53 -55 callsubr
            return
          </CharString>
          <CharString index="26">
            -6 -29 -2 -10 vhcurveto
            -102 -92 112 -93 hhcurveto
            -51 -51 -34 -105 -53 hvcurveto
            -38 callsubr
            -12 21 16 74 callsubr
            13 vhcurveto
            endchar
          </CharString>
          <CharString index="27">
            -58 callgsubr
            313 557 rmoveto
            29 31 -22 -58 -235 -197 -57 -160 -86 hvcurveto
            90 9 141 368 147 hhcurveto
            return
          </CharString>
          <CharString index="28">
            569 270 78 55 -26 -39 72 vhcurveto
            -4 8 46 callgsubr
            hhcurveto
            21 12 22 23 14 -6 18 -12 13 hvcurveto
            return
          </CharString>
          <CharString index="29">
            141 -31 101 1826 99 hstem
            61 105 vstem
            -59 callsubr
            160 127 113 86 125 vhcurveto
            -26 callgsubr
            -71 callgsubr
          </CharString>
          <CharString index="30">
            -545 -848 103 1955 154 hstem
            279 153 vstem
            432 1278 rmoveto
            45 -24 41 -60 -41 -28 -37 -31 -39 26 -47 51 19 57 19 49 vhcurveto
            -184 -285 rmoveto
            -55 -413 -72 -379 -80 -422 rrcurveto
            -322 -61 -156 -202 -277 hhcurveto
            -51 -8 callsubr
            139 -25 68 395 135 281 321 78 vhcurveto
            90 375 64 483 55 392 rrcurveto
            24 -12 12 -23 -22 -29 -16 -31 -6 vhcurveto
            endchar
          </CharString>
          <CharString index="31">
            -18 callsubr
            hstemhm
            68 98 377 94 hintmask 01111000
            -82 callsubr
            hintmask 10111000
            -80 callsubr
            endchar
          </CharString>
          <CharString index="32">
            922 1737 rmoveto
            -68 callsubr
            -17 callsubr
            hvcurveto
            return
          </CharString>
          <CharString index="33">
            rmoveto
            24 51 57 9 59 64 61 -17 52 hhcurveto
            36 39 37 29 39 -137 4 -72 hvcurveto
            -2 hlineto
            68 219 51 223 47 219 rrcurveto
            25 -12 10 -14 -25 -22 -18 -4 callgsubr
            -68 -45 -108 -92 -21 rrcurveto
            -31 -12 -23 -31 -22 vvcurveto
            -15 9 -10 24 -2 vhcurveto
            62 12 53 37 45 45 -35 -151 -39 -154 -43 -149 rrcurveto
            -82 -13 -88 -26 -58 vvcurveto
            -14 11 -12 20 6 8 2 2 9 vhcurveto
            endchar
          </CharString>
          <CharString index="34">
            76 364 rrcurveto
            27 6 -29 8 -12 hhcurveto
            -41 -21 -35 -57 -14 hvcurveto
            -27 -108 -34 -132 -35 -129 rrcurveto
            -313 -86 -127 -178 -107 hhcurveto
            -24 return
          </CharString>
          <CharString index="35">
            -263 -25 101 -101 230 620 222 -95 95 hstemhm
            61 101 hintmask 01011000
            -55 callgsubr
            172 109 123 72 20 -15 15 -20 hvcurveto
            hintmask 10011000
            -41 callgsubr
            hintmask 10101000
            -46 callgsubr
            endchar
          </CharString>
          <CharString index="36">
            -93 callgsubr
            rrcurveto
            84 callsubr
            return
          </CharString>
          <CharString index="37">
            hhcurveto
            220 188 18 78 16 -12 15 -25 hvcurveto
            -12 hlineto
            -23 -84 -84 -8 -84 hhcurveto
            hintmask 01000000
            -82 -74 20 -106 hhcurveto
            -53 -60 -20 -47 -21 14 -16 23 hvcurveto
            6 hlineto
            0 2 -2 2 vhcurveto
            endchar
          </CharString>
          <CharString index="38">
            14 callgsubr
            -86 callgsubr
            endchar
          </CharString>
          <CharString index="39">
            -62 callsubr
            -346 80 -303 285 return
          </CharString>
          <CharString index="40">
            0 callgsubr
            -467 -985 -70 -145 -65 -79 callgsubr
            return
          </CharString>
          <CharString index="41">
            219 975 rmoveto
            9 callsubr
            -2 -9 rrcurveto
            -20 -129 -125 -368 -240 vvcurveto
            -156 80 -77 90 return
          </CharString>
          <CharString index="42">
            -42 callsubr
            19 20 -2 18 hhcurveto
            -10 23 47 -4 55 -70 callsubr
          </CharString>
          <CharString index="43">
            -11 -4 -10 -4 -10 -2 -76 -25 -72 -35 -75 -28 rrcurveto
            -74 -29 -297 -156 -147 vvcurveto
            -29 10 -31 33 27 26 27 31 vhcurveto
            4 -2 6 4 vvcurveto
            return
          </CharString>
          <CharString index="44">
            rmoveto
            51 55 48 60 45 63 10 14 8 17 10 16 rrcurveto
            -106 37 90 -134 60 hhcurveto
            30 27 -50 callgsubr
            -84 60 -70 145 55 11 2 6 8 vvcurveto
            25 -14 14 -21 -63 -47 -115 -53 -37 vhcurveto
            -41 -59 -104 -103 -37 vvcurveto
            -22 17 callsubr
            return
          </CharString>
          <CharString index="45">
            35 -43 -76 47 -113 hhcurveto
            -389 -240 -674 -541 return
          </CharString>
          <CharString index="46">
            47 -4 51 -37 -28 -29 -29 -34 vhcurveto
            2 -19 6 -18 2 -19 rrcurveto
            -12 vlineto
            return
          </CharString>
          <CharString index="47">
            vvcurveto
            -58 2 -51 10 -37 vhcurveto
            37 -151 4 -131 147 -93 rrcurveto
            -39 60 129 -4 59 hhcurveto
            127 133 107 94 66 hvcurveto
            -38 callgsubr
            -14 -5 -12 -15 vhcurveto
            -96 -67 -117 -62 -113 hhcurveto
            -213 -102 226 272 return
          </CharString>
          <CharString index="48">
            1196 1589 rmoveto
            170 -154 236 -219 -473 -289 -1080 -325 -389 195 -232 223 return
          </CharString>
          <CharString index="49">
            -30 -4 -21 -17 -20 vvcurveto
            -64 178 27 86 -76 vhcurveto
            return
          </CharString>
          <CharString index="50">
            -261 vvcurveto
            -90 67 -143 152 159 84 166 70 27 vhcurveto
            68 194 return
          </CharString>
          <CharString index="51">
            224 217 153 -43 139 -119 -88 -53 -88 -102 -64 vhcurveto
            -8 -16 -10 -13 -18 50 callsubr
            vhcurveto
            return
          </CharString>
          <CharString index="52">
            -43 callsubr
            21 -12 16 -23 vhcurveto
            return
          </CharString>
          <CharString index="53">
            -170 119 -120 114 -45 callsubr
            27 119 57 266 66 303 82 260 rlinecurve
            33 -8 17 -23 -22 -29 -21 -29 -10 vhcurveto
            return
          </CharString>
          <CharString index="54">
            -68 callgsubr
            184 81 219 168 hvcurveto
            return
          </CharString>
          <CharString index="55">
            60 -37 67 hhcurveto
            13 hlineto
            161 18 80 113 127 197 -194 204 187 vvcurveto
            55 18 61 82 vhcurveto
            84 4 -86 47 hhcurveto
            hintmask 11010000
            33 16 25 33 hvcurveto
            hintmask 11101000
            88 -118 43 -66 vhcurveto
            endchar
          </CharString>
          <CharString index="56">
            96 -102 -21 107 92 -69 -21 964 66 -66 97 823 88 18 -20 hstemhm
            return
          </CharString>
          <CharString index="57">
            -15 hhcurveto
            -24 -15 callsubr
            return
          </CharString>
          <CharString index="58">
            0 callsubr
            -63 callgsubr
            return
          </CharString>
          <CharString index="59">
            rrcurveto
            35 28 28 29 16 -10 17 -24 4 hvcurveto
            return
          </CharString>
          <CharString index="60">
            rmoveto
            28 -129 90 -135 80 -104 rrcurveto
            -10 11 10 -5 12 hhcurveto
            27 26 27 31 -14 callgsubr
            8 hvcurveto
            -63 84 -101 144 -18 100 rrcurveto
            25 -4 -17 10 -16 hhcurveto
            -29 -28 -29 -35 hvcurveto
            return
          </CharString>
          <CharString index="61">
            28 callgsubr
            1814 98 hstemhm
            1241 96 hintmask 10110000
            -5 callgsubr
            -166 -494 -148 -639 -129 -630 return
          </CharString>
          <CharString index="62">
            258 275 331 230 233 -152 240 -258 -51 -39 -12 -21 -35 vhcurveto
            return
          </CharString>
          <CharString index="63">
            -37 callgsubr
            -156 return
          </CharString>
          <CharString index="64">
            -129 131 125 176 96 55 return
          </CharString>
          <CharString index="65">
            -87 535 96 -96 116 11 19 callgsubr
            137 545 rmoveto
            8 23 6 8 return
          </CharString>
          <CharString index="66">
            -12 -4 -12 -11 vvcurveto
            -20 10 -14 19 -2 vhcurveto
            -41 -189 -35 -172 -8 -115 rrcurveto
            return
          </CharString>
          <CharString index="67">
            12 27 6 vhcurveto
            125 492 109 714 139 672 rrcurveto
            4 57 31 2 return
          </CharString>
          <CharString index="68">
            -205 -74 -201 -461 -137 hhcurveto
            -57 -29 49 45 hvcurveto
            334 168 287 180 vvcurveto
            25 -6 -14 28 -50 callsubr
            endchar
          </CharString>
          <CharString index="69">
            -28 callsubr
            16 return
          </CharString>
          <CharString index="70">
            14 9 callgsubr
            -12 -15 vhcurveto
            return
          </CharString>
          <CharString index="71">
            24 -31 callsubr
          </CharString>
          <CharString index="72">
            1059 rmoveto
            -135 -68 -111 -117 hvcurveto
            -206 203 -207 -172 vvcurveto
            -74 -47 -72 -113 vhcurveto
            -55 -6 103 -53 hhcurveto
            -11 hlineto
            -20 -4 return
          </CharString>
          <CharString index="73">
            -4 -39 -49 0 -53 -16 callgsubr
            return
          </CharString>
          <CharString index="74">
            -402 -20 112 -86 86 -81 -21 1882 92 return
          </CharString>
          <CharString index="75">
            rrcurveto
            12 -47 callgsubr
            -14 14 return
          </CharString>
          <CharString index="76">
            -56 callgsubr
            endchar
          </CharString>
          <CharString index="77">
            50 106 rrcurveto
            162 73 203 371 127 hhcurveto
            45 12 -45 -66 return
          </CharString>
          <CharString index="78">
            7 10 2 11 52 callsubr
            -17 13 -20 -13 -14 return
          </CharString>
          <CharString index="79">
            10 callgsubr
            -24 callsubr
            return
          </CharString>
          <CharString index="80">
            2 8 6 2 hhcurveto
            432 512 389 414 367 542 -20 -55 rcurveline
            -119 -299 -51 -238 -321 vvcurveto
            return
          </CharString>
          <CharString index="81">
            -26 4 81 callsubr
            29 -50 callgsubr
            return
          </CharString>
          <CharString index="82">
            -2 callgsubr
            -10 14 -25 6 vhcurveto
            return
          </CharString>
          <CharString index="83">
            -8 -6 vvcurveto
            -23 return
          </CharString>
          <CharString index="84">
            127 -146 24 -6 -78 -53 -131 -37 -47 47 -20 31 39 43 22 35 29 vhcurveto
            -86 -76 -100 -45 -55 vhcurveto
            endchar
          </CharString>
          <CharString index="85">
            14 -11 46 callsubr
            return
          </CharString>
          <CharString index="86">
            17 20 -20 23 hhcurveto
            12 hlineto
            33 -33 14 -31 -22 vvcurveto
            endchar
          </CharString>
          <CharString index="87">
            393 203 412 rlinecurve
            59 118 return
          </CharString>
          <CharString index="88">
            10 -8 -14 8 -14 34 callsubr
            -3 hhcurveto
            return
          </CharString>
          <CharString index="89">
            -293 -20 94 -94 188 782 97 return
          </CharString>
          <CharString index="90">
            481 330 735 598 return
          </CharString>
          <CharString index="91">
            174 225 168 return
          </CharString>
          <CharString index="92">
            -27 -22 -27 -8 hvcurveto
            return
          </CharString>
          <CharString index="93">
            -129 -164 -295 -266 vvcurveto
            -267 137 -254 334 360 193 236 297 return
          </CharString>
          <CharString index="94">
            24 callsubr
            hvcurveto
            -21 callsubr
          </CharString>
          <CharString index="95">
            rmoveto
            -47 -4 -27 -10 -57 vvcurveto
            -39 4 43 -13 74 hhcurveto
            return
          </CharString>
          <CharString index="96">
            hhcurveto
            119 63 108 62 30 -26 21 -21 -10 -19 -2 -23 -8 hvcurveto
            -88 -28 -29 -12 -39 hhcurveto
            return
          </CharString>
          <CharString index="97">
            -13 16 -22 -8 2 callsubr
            return
          </CharString>
          <CharString index="98">
            2 15 -12 18 hhcurveto
            return
          </CharString>
          <CharString index="99">
            -61 0 26 -68 hvcurveto
            -26 -6 -25 -29 -26 vvcurveto
            -43 return
          </CharString>
          <CharString index="100">
            24 -6 -14 11 -15 hhcurveto
            -24 -27 -23 -27 -8 hvcurveto
            return
          </CharString>
          <CharString index="101">
            188 -18 94 -57 -21 969 86 833 96 return
          </CharString>
          <CharString index="102">
            rrcurveto
            -2 -25 -2 -22 -11 vvcurveto
            -28 14 -13 25 vhcurveto
            return
          </CharString>
          <CharString index="103">
            rrcurveto
            -6 -14 -13 -15 -18 vvcurveto
            return
          </CharString>
          <CharString index="104">
            rmoveto
            74 16 -66 -112 return
          </CharString>
          <CharString index="105">
            276 981 rmoveto
            -67 -258 -117 -627 -10 -67 35 callgsubr
            16 -12 19 hhcurveto
            return
          </CharString>
          <CharString index="106">
            -71 hhcurveto
            145 -369 rmoveto
            -372 -80 -80 -78 -100 hhcurveto
            -29 -88 -13 156 184 return
          </CharString>
          <CharString index="107">
            -92 -66 -109 -90 -117 127 -33 64 return
          </CharString>
          <CharString index="108">
            103 -103 242 -125 98 hstemhm
            return
          </CharString>
          <CharString index="109">
            -11 -2 -6 -10 vhcurveto
            return
          </CharString>
          <CharString index="110">
            -117 hhcurveto
            -71 -41 92 88 207 153 479 201 86 33 -84 -82 return
          </CharString>
          <CharString index="111">
            10 -14 hhcurveto
            -25 -26 -22 -27 -9 hvcurveto
            endchar
          </CharString>
          <CharString index="112">
            -519 25 callsubr
            63 222 0 157 hintmask 11010000
            return
          </CharString>
          <CharString index="113">
            29 callgsubr
            -62 18 callgsubr
            return
          </CharString>
          <CharString index="114">
            hstem
            -14 98 485 99 233 98 vstem
            return
          </CharString>
          <CharString index="115">
            12 38 37 4 37 hhcurveto
            return
          </CharString>
          <CharString index="116">
            2 45 callgsubr
            return
          </CharString>
          <CharString index="117">
            hvcurveto
            30 callsubr
            33 -10 16 -22 -31 -23 -24 -35 -16 vhcurveto
            return
          </CharString>
          <CharString index="118">
            8 23 27 25 vvcurveto
            30 -43 6 -58 -63 -379 5 -56 -219 vhcurveto
            return
          </CharString>
          <CharString index="119">
            6 104 rrcurveto
            25 -6 -15 4 callsubr
          </CharString>
          <CharString index="120">
            -97 -854 98 740 98 return
          </CharString>
          <CharString index="121">
            412 211 hvcurveto
            return
          </CharString>
          <CharString index="122">
            rmoveto
            -8 -15 -5 -10 -10 vvcurveto
            -23 17 -14 20 92 99 266 74 return
          </CharString>
          <CharString index="123">
            21 callsubr
            4 vvcurveto
            -4 41 rlineto
            25 return
          </CharString>
          <CharString index="124">
            14 -14 22 11 84 callgsubr
            return
          </CharString>
          <CharString index="125">
            6 -143 hhcurveto
            -78 -84 -6 -60 -18 return
          </CharString>
          <CharString index="126">
            26 27 26 31 return
          </CharString>
          <CharString index="127">
            -21 23 -21 return
          </CharString>
          <CharString index="128">
            2 2 4 return
          </CharString>
          <CharString index="129">
            hvcurveto
            -6 14 22 31 19 25 12 14 rlinecurve
            270 313 return
          </CharString>
          <CharString index="130">
            hhcurveto
            -307 -62 225 227 252 191 295 return
          </CharString>
          <CharString index="131">
            -31 -74 24 70 35 17 32 28 return
          </CharString>
          <CharString index="132">
            1 -21 1237 159 hstemhm
            return
          </CharString>
          <CharString index="133">
            47 10 45 48 4 hvcurveto
            13 hlineto
            return
          </CharString>
          <CharString index="134">
            -203 -123 -237 -284 return
          </CharString>
          <CharString index="135">
            hhcurveto
            -217 -76 -196 -160 return
          </CharString>
          <CharString index="136">
            hstemhm
            61 93 987 96 return
          </CharString>
          <CharString index="137">
            4 0 21 callsubr
            vhcurveto
            return
          </CharString>
          <CharString index="138">
            -37 17 -21 25 -21 return
          </CharString>
          <CharString index="139">
            -23 -26 -8 hvcurveto
            return
          </CharString>
          <CharString index="140">
            vvcurveto
            -20 12 -17 return
          </CharString>
          <CharString index="141">
            -2 -2 -2 return
          </CharString>
          <CharString index="142">
            rrcurveto
            35 -9 -22 16 -27 hhcurveto
            -22 -15 -10 -20 -6 hvcurveto
            return
          </CharString>
          <CharString index="143">
            762 rmoveto
            21 6 24 20 25 25 rrcurveto
            -324 55 return
          </CharString>
          <CharString index="144">
            hhcurveto
            27 9 22 26 25 vvcurveto
            14 -10 14 -24 7 vhcurveto
            return
          </CharString>
          <CharString index="145">
            52 callgsubr
            -7 9 callsubr
            hvcurveto
            endchar
          </CharString>
          <CharString index="146">
            0 2 14 hvcurveto
            -8 -2 -6 -6 vvcurveto
            -14 4 -9 return
          </CharString>
          <CharString index="147">
            vhcurveto
            54 callsubr
            vhcurveto
            return
          </CharString>
          <CharString index="148">
            16 -6 -11 65 callgsubr
            -34 -33 -32 -7 hvcurveto
            return
          </CharString>
          <CharString index="149">
            rrcurveto
            25 -6 -15 10 -14 hhcurveto
            return
          </CharString>
          <CharString index="150">
            hstemhm
            33 102 465 109 return
          </CharString>
          <CharString index="151">
            vvcurveto
            25 -15 12 return
          </CharString>
          <CharString index="152">
            -6 -14 10 return
          </CharString>
          <CharString index="153">
            15 -24 6 return
          </CharString>
          <CharString index="154">
            593 1 -21 27 -21 27 -21 2017 return
          </CharString>
          <CharString index="155">
            49 49 -4 -13 51 hvcurveto
            33 33 27 29 hvcurveto
            return
          </CharString>
          <CharString index="156">
            hstem
            63 222 vstem
            return
          </CharString>
          <CharString index="157">
            vvcurveto
            -23 16 -12 21 return
          </CharString>
          <CharString index="158">
            14 -10 15 -25 6 return
          </CharString>
          <CharString index="159">
            10 vvcurveto
            20 return
          </CharString>
          <CharString index="160">
            193 endchar
          </CharString>
          <CharString index="161">
            12 -47 callgsubr
            -14 14 -20 return
          </CharString>
          <CharString index="162">
            -19 -28 vvcurveto
            -7 0 45 callgsubr
            vhcurveto
            -102 return
          </CharString>
          <CharString index="163">
            12 71 29 125 25 121 rrcurveto
            39 return
          </CharString>
          <CharString index="164">
            rrcurveto
            2 -6 -8 2 -6 hhcurveto
            -72 -113 return
          </CharString>
          <CharString index="165">
            -23 15 -14 22 10 13 33 callgsubr
            return
          </CharString>
          <CharString index="166">
            -87 -28 -21 33 110 return
          </CharString>
          <CharString index="167">
            -590 94 291 92 return
          </CharString>
          <CharString index="168">
            hstemhm
            hintmask 10100000
            return
          </CharString>
          <CharString index="169">
            -9 -6 vvcurveto
            -22 return
          </CharString>
          <CharString index="170">
            rrcurveto
            -2 -4 0 return
          </CharString>
          <CharString index="171">
            6 11 2 10 return
          </CharString>
          <CharString index="172">
            103 -103 387 -184 94 hintmask 11101000
            return
          </CharString>
          <CharString index="173">
            -13 18 hhcurveto
            21 24 17 24 13 hvcurveto
            return
          </CharString>
          <CharString index="174">
            238 49 223 2 17 12 30 return
          </CharString>
          <CharString index="175">
            47 -18 -21 1915 104 -102 102 return
          </CharString>
          <CharString index="176">
            33 24 vvcurveto
            13 -8 10 -21 6 vhcurveto
            return
          </CharString>
          <CharString index="177">
            83 callsubr
            106 -106 258 return
          </CharString>
          <CharString index="178">
            -194 92 262 -84 hhcurveto
            -29 -28 return
          </CharString>
          <CharString index="179">
            88 -127 159 185 153 return
          </CharString>
          <CharString index="180">
            289 rrcurveto
            return
          </CharString>
          <CharString index="181">
            18 8 16 return
          </CharString>
          <CharString index="182">
            8 6 vvcurveto
            return
          </CharString>
          <CharString index="183">
            4 8 12 return
          </CharString>
          <CharString index="184">
            440 -141 -21 156 -21 return
          </CharString>
          <CharString index="185">
            80 16 80 19 82 rrcurveto
            -11 65 return
          </CharString>
          <CharString index="186">
            hvcurveto
            -86 -65 -70 -26 -182 hhcurveto
            return
          </CharString>
          <CharString index="187">
            10 -60 0 -18 6 rrcurveto
            endchar
          </CharString>
          <CharString index="188">
            -21 callgsubr
            24 return
          </CharString>
          <CharString index="189">
            62 12 65 16 70 return
          </CharString>
          <CharString index="190">
            -20 hstemhm
            -63 104 35 return
          </CharString>
          <CharString index="191">
            64 callsubr
            10 return
          </CharString>
          <CharString index="192">
            rrcurveto
            33 35 45 return
          </CharString>
          <CharString index="193">
            -470 1 -21 return
          </CharString>
          <CharString index="194">
            -340 -178 return
          </CharString>
          <CharString index="195">
            vvcurveto
            -22 16 return
          </CharString>
          <CharString index="196">
            -20 hstemhm
            82 return
          </CharString>
          <CharString index="197">
            4 8 13 return
          </CharString>
        <CharString name=".notdef">
          1019 -14 -21 54 -21 22 -21 1248 44 callgsubr
          1165 471 rmoveto
          -159 -180 -11 -2 -57 45 -2 12 rlinecurve
          147 191 -186 147 12 33 27 31 14 16 rlinecurve
          39 -27 78 -57 82 -66 151 191 rcurveline
          27 -12 33 -27 16 -14 -26 -39 -58 -72 -65 -88 80 -72 71 -57 33 -31 2 -10 -47 -57 -10 -2 rrcurveto
          579 776 rmoveto
          4 2 -2 2 -4 hhcurveto
          -143 -6 51 141 rlineto
          2 vlineto
          4 -4 0 -2 vhcurveto
          -152 -53 rlineto
          -2 vlineto
          8 -26 -33 6 -37 hhcurveto
          -117 -79 -55 -145 -82 hvcurveto
          -60 -88 -164 -13 -467 -94 -524 45 rcurveline
          -26 -5 -29 -16 19 hvcurveto
          88 -72 147 -45 146 -49 76 -125 122 -211 240 -131 -2 -16 -2 -31 18 -18 rrcurveto
          -16 -15 -10 0 -14 vvcurveto
          -23 84 -36 69 -58 vhcurveto
          -43 -2 -41 0 -32 -22 rrcurveto
          -6 2 -5 4 -6 vhcurveto
          9 35 35 5 32 hhcurveto
          14 14 -1 -2 13 hvcurveto
          49 -11 33 -43 27 -43 10 -2 4 4 2 6 -10 37 -19 27 -26 16 55 -8 12 -8 33 -31 rrcurveto
          6 6 4 -2 11 vvcurveto
          -47 63 -55 -6 -45 10 -57 47 -60 35 -55 35 6 6 10 6 15 8 32 -6 17 37 6 16 rrcurveto
          -6 39 35 -2 39 hhcurveto
          55 hlineto
          -8 2 14 -31 23 hhcurveto
          -15 -12 -8 -10 -8 vvcurveto
          -17 90 -12 88 -49 vhcurveto
          -41 -15 -20 3 -27 -31 2 -15 4 9 7 -6 rrcurveto
          20 47 12 8 45 hhcurveto
          51 2 41 -28 39 -39 10 2 7 4 2 6 -23 33 -27 14 -26 14 51 7 29 -15 39 -18 rrcurveto
          6 6 2 -2 10 vvcurveto
          33 -45 -45 5 -37 hhcurveto
          hintmask 11010000
          -16 -14 -1 -13 hhcurveto
          -64 31 -67 24 -64 23 25 24 rcurveline
          31 6 35 15 hvcurveto
          430 292 61 322 2 203 2 -2 rcurveline
          endchar
        </CharString>
        <CharString name=".null">
          -957 endchar
        </CharString>
        <CharString name="A">
          -101 callgsubr
        </CharString>
        <CharString name="AE">
          921 3 -21 22 72 -72 88 -75 20 callsubr
          543 89 328 95 833 96 19 -20 hstemhm
          hintmask 1100011100000000
          1812 1886 rmoveto
          138 hlineto
          26 11 callsubr
          -1 7 -3 5 -3 5 1 4 rcurveline
          hintmask 0001011010000000
          33 -8 16 -23 -22 -29 -21 -28 -10 vhcurveto
          -5 -22 -5 -21 -6 -22 rrcurveto
          -27 -17 -15 -20 -23 vvcurveto
          -14 5 -10 9 -7 vhcurveto
          -66 -198 -105 -187 -97 -180 -101 callsubr
          -6 -12 -90 callsubr
          108 -2 109 0 108 -4 -27 -153 -28 -153 -63 -143 -4 callsubr
          hintmask 0000111100000000
          -16 11 -25 47 vhcurveto
          hintmask 1100011100000000
          16 31 6 22 160 357 -22 278 hhcurveto
          14 hlineto
          78 72 2 61 51 callsubr
          hvcurveto
          -4 -39 -49 0 -53 hhcurveto
          hintmask 1010011100000000
          -16 callgsubr
          63 129 25 155 25 155 103 -5 101 -10 97 -18 -48 callsubr
          -102 18 -106 9 -108 5 6 34 6 34 7 33 16 78 callsubr
          95 2 98 hhcurveto
          33 hlineto
          65 58 -2 49 -32 callgsubr
          -43 -131 -2 -133 hhcurveto
          -107 -104 0 8 -60 hvcurveto
          54 233 57 67 callsubr
          11 31 rrcurveto
          47 143 264 6 182 hhcurveto
          -1234 -1253 rmoveto
          -43 callgsubr
          40 74 41 76 40 76 -29 -125 -29 -128 -28 -126 rrcurveto
          -4 -9 -4 -12 -10 vvcurveto
          -6 vlineto
          -60 -285 -7 -33 -6 -32 -6 -32 rlinecurve
          endchar
        </CharString>
        <CharString name="Aacute">
          -25 callgsubr
          1954 -106 callsubr
          419 1587 -107 callsubr
        </CharString>
        <CharString name="Acircumflex">
          481 471 0 65 53 callgsubr
        </CharString>
        <CharString name="Adieresis">
          481 598 0 65 200 endchar
        </CharString>
        <CharString name="Agrave">
          481 860 -2 65 53 callsubr
        </CharString>
        <CharString name="Aring">
          -25 callgsubr
          1435 82 callgsubr
          1014 116 -116 356 -330 90 hintmask 01111100
          -105 callgsubr
          hintmask 10111001
          -106 callgsubr
          132 1481 rmoveto
          hintmask 01111010
          -49 callsubr
          24 callsubr
          vhcurveto
          -21 callsubr
        </CharString>
        <CharString name="Atilde">
          -25 callgsubr
          1517 1 callsubr
          1040 90 hintmask 01110110
          -105 callgsubr
          hintmask 10110110
          -106 callgsubr
          -30 1257 -61 callgsubr
          hintmask 01101010
          -61 callsubr
          hintmask 01110110
          -81 callsubr
        </CharString>
        <CharString name="B">
          -102 callgsubr
        </CharString>
        <CharString name="B.alt">
          -103 callsubr
        </CharString>
        <CharString name="C">
          -78 callsubr
        </CharString>
        <CharString name="Ccedilla">
          141 60 callsubr
          82 101 -79 -21 1926 99 hstemhm
          61 105 521 96 hintmask 11101110
          -59 callsubr
          vhcurveto
          hintmask 11011110
          7 8 1 7 hhcurveto
          -26 -46 -21 -52 -25 -48 -93 callgsubr
          77 callgsubr
          8 1 7 102 38 90 75 89 61 rrcurveto
          -26 callgsubr
          hintmask 11101110
          -71 callgsubr
        </CharString>
        <CharString name="D">
          -46 callsubr
          rrcurveto
          -26 -35 6 -40 callgsubr
          96 -8 76 -16 -75 callgsubr
          157 38 callgsubr
        </CharString>
        <CharString name="D.alt">
          -46 callsubr
          -301 28 -75 170 -95 242 rrcurveto
          18 -8 -10 7 -27 hhcurveto
          -18 -12 -35 -33 -2 hvcurveto
          112 -334 193 -123 231 -26 -75 callgsubr
          -6 hlineto
          163 38 callgsubr
        </CharString>
        <CharString name="E">
          -6 callsubr
          hstemhm
          hintmask 01110000
          -88 callsubr
          hintmask 10110000
          -96 callsubr
          endchar
        </CharString>
        <CharString name="Eacute">
          -6 callsubr
          609 -20 hstemhm
          hintmask 01111000
          -88 callsubr
          hintmask 10111000
          -96 callsubr
          23 641 -107 callsubr
        </CharString>
        <CharString name="Ecircumflex">
          188 115 4 69 53 callgsubr
        </CharString>
        <CharString name="Edieresis">
          -6 callsubr
          193 -15 callgsubr
          576 -16 callsubr
          hintmask 01111011
          -88 callsubr
          hintmask 10111011
          -96 callsubr
          -98 330 -99 callgsubr
          hintmask 10110111
          -97 callgsubr
        </CharString>
        <CharString name="Egrave">
          188 504 2 69 53 callsubr
        </CharString>
        <CharString name="Eth">
          28 callgsubr
          893 116 -63 94 774 98 hstemhm
          1241 96 hintmask 10101100
          -5 callgsubr
          -84 -233 -71 -253 -66 -272 -26 -2 -26 -3 -26 -3 -82 -10 -139 2 -25 -2 rrcurveto
          4 -6 -8 2 -9 hhcurveto
          -30 -27 -27 -26 -11 4 -10 6 -8 hvcurveto
          -14 -4 74 -8 33 hhcurveto
          65 68 6 8 65 hvcurveto
          70 7 -56 -232 -53 -245 -57 -255 rlinecurve
          -8 -39 -14 -72 -11 -67 -301 28 -75 170 -95 242 rrcurveto
          18 -8 -10 7 -27 hhcurveto
          -18 -12 -35 -33 -2 hvcurveto
          112 -334 193 -123 231 -26 -5 callsubr
          hintmask 01011100
          26 callsubr
          852 329 -86 callsubr
          -360 -559 -723 hvcurveto
          -6 hlineto
          68 351 63 301 65 270 rrcurveto
          16 186 187 8 188 hhcurveto
          74 callgsubr
          27 24 vvcurveto
          14 -10 46 callsubr
          vhcurveto
          -185 -184 -7 -16 -184 hvcurveto
          71 284 73 250 85 243 rrcurveto
          endchar
        </CharString>
        <CharString name="Euro">
          92 -70 90 1108 97 700 92 hstem
          119 92 vstem
          27 1057 rmoveto
          26 28 64 19 78 12 -15 -67 -12 -68 -10 -61 rrcurveto
          -105 -19 -100 -35 -55 vvcurveto
          -18 10 -17 23 6 34 callgsubr
          vhcurveto
          45 19 45 14 45 10 rrcurveto
          -12 -94 -12 -129 -106 -60 callsubr
          111 12 110 15 101 hvcurveto
          6 43 43 2 45 hhcurveto
          41 hlineto
          98 -14 98 -11 99 -20 rrcurveto
          34 29 28 29 60 -307 20 -99 -26 -39 -2 -4 -43 hvcurveto
          8 59 12 64 15 67 rrcurveto
          2 43 47 2 45 123 117 -14 57 hhcurveto
          33 28 31 26 52 -176 2 -166 -41 -43 -2 -2 -45 hvcurveto
          72 284 131 303 266 99 -10 callgsubr
          49 callgsubr
          -315 -117 -152 -342 -82 -326 rrcurveto
          -139 -16 -123 -39 -74 vvcurveto
          -22 14 -15 23 10 12 5 8 13 vhcurveto
          endchar
        </CharString>
        <CharString name="F">
          18 -32 -21 1077 113 729 94 10 -20 hstemhm
          hintmask 11100000
          27 1544 rmoveto
          59 68 229 61 119 33 -40 -186 -34 -189 -22 -188 -6 -51 rcurveline
          -2 -21 -20 0 -19 hhcurveto
          -22 -21 2 2 -20 hvcurveto
          -35 -2 -29 -31 -25 vvcurveto
          -33 46 -6 59 22 23 0 2 22 vhcurveto
          -53 -387 -39 -188 -92 -436 rrcurveto
          -29 -9 callsubr
          20 25 87 callgsubr
          92 438 45 190 52 394 116 14 rcurveline
          215 16 66 -6 213 10 rrcurveto
          29 5 26 28 25 vvcurveto
          14 -8 12 -22 9 vhcurveto
          -220 -7 -69 3 -221 -19 -113 -12 rcurveline
          6 55 21 195 43 190 39 191 rlinecurve
          362 94 367 33 374 6 rrcurveto
          27 8 23 27 24 vvcurveto
          -22 callsubr
          vhcurveto
          -371 -6 -367 -31 -360 -92 16 76 rcurveline
          7 10 85 callgsubr
          hintmask 11010000
          -18 callgsubr
          -13 -45 -12 -45 -10 -45 rrcurveto
          -129 -35 -373 -98 -102 17 callgsubr
          13 vhcurveto
          endchar
        </CharString>
        <CharString name="G">
          417 -897 -21 887 92 1803 96 hstem
          49 94 vstem
          1268 1577 rmoveto
          225 -41 -131 158 -230 hhcurveto
          -518 -299 -1036 -353 -262 135 -340 326 213 154 64 84 104 hvcurveto
          -104 -361 -41 -172 -70 -458 rrcurveto
          -31 47 callgsubr
          101 475 73 629 398 647 rrcurveto
          4 10 4 10 11 vvcurveto
          24 -19 10 -30 vhcurveto
          -187 -59 -182 -53 -188 -41 rrcurveto
          20 -37 -39 11 -39 hhcurveto
          -66 -73 -31 -66 -93 hvcurveto
          -16 -14 -8 -16 -17 vvcurveto
          -18 12 -17 29 -2 vhcurveto
          100 13 101 16 98 20 96 -67 125 -131 31 -45 10 -10 -2 -17 4 -14 rrcurveto
          -152 -23 -110 -205 -410 hhcurveto
          -319 -62 334 199 385 287 885 430 203 47 -138 -178 64 hvcurveto
          -20 8 12 22 callgsubr
          27 29 28 29 4 hvcurveto
          -234 -946 rmoveto
          -37 37 -34 32 -31 29 123 29 121 35 120 41 -57 -99 -61 -98 -50 -105 -28 39 -41 33 -25 27 rrcurveto
          endchar
        </CharString>
        <CharString name="H">
          -100 callgsubr
        </CharString>
        <CharString name="I">
          -83 callgsubr
        </CharString>
        <CharString name="Iacute">
          -33 callsubr
          627 -20 hstemhm
          hintmask 00111000
          -63 -10 rmoveto
          hintmask 01011000
          8 callsubr
          hintmask 10011000
          -84 callsubr
          -82 callgsubr
          hvcurveto
          hintmask 00111000
          63 callgsubr
          vhcurveto
          920 2537 -107 callsubr
        </CharString>
        <CharString name="Icircumflex">
          -402 -141 4 73 53 callgsubr
        </CharString>
        <CharString name="Idieresis">
          -33 callsubr
          211 -15 callgsubr
          320 -16 callsubr
          hintmask 00111011
          -63 -10 rmoveto
          hintmask 01011011
          8 callsubr
          hintmask 10011011
          -84 callsubr
          -82 callgsubr
          hvcurveto
          hintmask 00111011
          63 callgsubr
          vhcurveto
          799 2226 -99 callgsubr
          hintmask 10010111
          -97 callgsubr
        </CharString>
        <CharString name="Igrave">
          -402 248 2 73 53 callsubr
        </CharString>
        <CharString name="J">
          -89 callgsubr
        </CharString>
        <CharString name="K">
          -94 callgsubr
        </CharString>
        <CharString name="L">
          -29 -14 90 -57 -21 1962 -20 hstemhm
          hintmask 01100000
          428 1911 rmoveto
          -84 -416 -90 -387 -80 -438 -35 -187 -41 -92 -45 -188 rrcurveto
          -14 -56 -51 -36 -60 vvcurveto
          -35 14 -18 16 5 8 2 2 6 vhcurveto
          hintmask 10100000
          -2 229 129 -14 160 hhcurveto
          78 88 4 10 108 hvcurveto
          27 8 23 29 22 vvcurveto
          17 -11 12 -24 6 vhcurveto
          -158 -18 49 10 -160 -10 rrcurveto
          -2 -30 -29 0 -29 hhcurveto
          -118 -95 14 23 -141 hvcurveto
          60 194 14 133 47 197 104 430 62 410 102 450 rrcurveto
          25 -6 -12 10 -17 hhcurveto
          -22 -29 32 callsubr
          endchar
        </CharString>
        <CharString name="M">
          -95 callgsubr
        </CharString>
        <CharString name="N">
          372 -2 -21 24 -21 2009 -20 hstemhm
          hintmask 01100000
          397 1929 rmoveto
          -133 -643 -119 -604 -155 -637 rrcurveto
          -53 -13 29 -12 19 hhcurveto
          20 31 10 30 6 hvcurveto
          135 562 109 577 125 572 135 -566 162 -571 112 -453 rrcurveto
          hintmask 10100000
          -92 23 41 -72 30 hhcurveto
          39 25 33 27 4 hvcurveto
          123 694 90 514 143 694 rrcurveto
          33 4 17 -24 -27 -35 -21 -29 -10 vhcurveto
          -119 -661 -102 -485 -113 -635 -123 430 -301 1161 -32 164 rrcurveto
          61 -13 -16 11 -29 hhcurveto
          -18 -12 -5 -51 -11 hvcurveto
          endchar
        </CharString>
        <CharString name="Ntilde">
          372 139 4 78 196 endchar
        </CharString>
        <CharString name="O">
          -83 callsubr
        </CharString>
        <CharString name="OE">
          1126 -45 94 -67 67 -67 94 -57 -21 960 95 665 101 67 111 hstemhm
          61 101 979 91 hintmask 1000111110000000
          2017 1886 rmoveto
          137 hlineto
          27 11 callsubr
          23 -4 -19 8 -12 hhcurveto
          -14 -15 -8 -10 -14 hvcurveto
          -6 -7 rlineto
          20 callgsubr
          -12 -10 vvcurveto
          -5 vlineto
          -29 callgsubr
          -8 -35 -27 -106 -26 -110 -26 -112 rlinecurve
          318 -22 -111 252 -321 hhcurveto
          -69 callgsubr
          -455 -246 -848 -469 -217 -47 30 callgsubr
          250 -79 callsubr
          -68 callsubr
          246 207 193 269 143 hvcurveto
          -22 -113 -27 -112 -47 -106 -4 callsubr
          hintmask 0001111110000000
          -20 callgsubr
          hintmask 0100111110000000
          160 356 -22 279 hhcurveto
          14 hlineto
          78 72 2 61 -24 callgsubr
          hintmask 0010111110000000
          -34 callsubr
          90 184 12 236 43 213 17 78 callsubr
          94 2 99 hhcurveto
          32 hlineto
          66 57 -2 50 hhcurveto
          108 61 9 57 14 -10 46 callsubr
          hvcurveto
          -2 -43 -131 -2 -134 hhcurveto
          -106 -104 0 8 -60 hvcurveto
          53 233 58 67 callsubr
          10 31 -19 callgsubr
          endchar
        </CharString>
        <CharString name="Oacute">
          -45 -17 callgsubr
          713 -20 29 callsubr
          hintmask 11011100
          -75 callsubr
          hintmask 10111100
          -99 callsubr
          211 909 -107 callsubr
        </CharString>
        <CharString name="Ocircumflex">
          145 123 79 53 callgsubr
        </CharString>
        <CharString name="Odieresis">
          272 123 79 200 endchar
        </CharString>
        <CharString name="Ograve">
          535 121 79 53 callsubr
        </CharString>
        <CharString name="Oslash">
          -90 -21 66 -17 callgsubr
          95 -20 hstemhm
          61 101 979 96 hintmask 11011110
          1153 2092 rmoveto
          -62 -9 -28 -90 -20 -81 rrcurveto
          54 -66 -87 31 -112 hhcurveto
          -58 callsubr
          9 -10 10 -10 8 -11 -1 -5 -2 -4 -1 -3 -57 -135 -74 -130 -66 -134 -83 -166 -83 -165 -77 -169 -154 -337 rcurveline
          -47 -104 -66 -154 -62 -143 rrcurveto
          -65 115 -18 185 184 vvcurveto
          502 250 -79 callsubr
          hintmask 11101110
          -62 callsubr
          -225 33 -208 103 -117 hvcurveto
          -57 -124 rlineto
          -2 -5 -3 -7 -4 vvcurveto
          -16 15 -9 15 17 22 10 19 9 vhcurveto
          39 87 rlineto
          -32 47 57 -18 70 hhcurveto
          -17 callsubr
          220 -31 203 -97 132 hvcurveto
          1 0 1 1 1 vhcurveto
          23 62 -5 63 35 57 rrcurveto
          19 10 11 17 15 vvcurveto
          12 -10 10 -20 vhcurveto
          -22 -740 rmoveto
          -455 -246 -848 -469 -54 -43 18 32 -34 vhcurveto
          138 310 162 370 131 277 91 189 95 185 94 186 19 39 20 41 19 41 rrcurveto
          56 -113 21 -147 -125 vvcurveto
          endchar
        </CharString>
        <CharString name="Otilde">
          -45 -17 callgsubr
          276 1 callsubr
          61 93 987 96 hintmask 11010111
          -75 callsubr
          hintmask 10110111
          -99 callsubr
          -238 579 -61 callgsubr
          hintmask 11001011
          -61 callsubr
          hintmask 11010111
          -81 callsubr
        </CharString>
        <CharString name="P">
          -95 callsubr
        </CharString>
        <CharString name="Q">
          364 -737 94 594 96 1694 102 -74 74 80 92 hstemhm
          61 101 1032 92 hintmask 11011110
          909 1815 rmoveto
          12 -20 -94 16 -29 hhcurveto
          -528 -177 -684 -559 -197 41 -264 150 -123 hvcurveto
          -591 461 436 -162 375 hhcurveto
          227 244 43 53 282 hvcurveto
          29 10 21 29 22 vvcurveto
          23 -17 8 -33 vhcurveto
          -51 -272 -236 -43 -221 hhcurveto
          -434 -358 215 381 -334 hvcurveto
          8 6 -2 8 hhcurveto
          547 295 801 680 268 -180 315 -258 -72 -123 -8 -70 -18 13 -14 28 -2 hvcurveto
          14 51 50 6 49 hhcurveto
          235 115 -305 -229 -365 -111 -506 -317 -321 hvcurveto
          -86 -86 -96 -64 -117 hhcurveto
          -283 -22 350 193 577 205 602 370 hvcurveto
          hintmask 11101110
          43 47 -28 41 hhcurveto
          31 27 24 29 8 -11 2 -6 11 hvcurveto
          endchar
        </CharString>
        <CharString name="R">
          -9 -602 92 527 -21 866 96 -96 133 899 74 62 -20 hstemhm
          334 100 510 84 hintmask 11101111
          649 1894 rmoveto
          182 113 -184 -217 -281 -190 -254 -265 hvcurveto
          hintmask 11011111
          -100 25 37 -41 hhcurveto
          -35 -4 -26 -35 -1141 633 -395 471 352 215 172 170 166 hvcurveto
          12 14 4 15 12 vvcurveto
          20 -12 17 -27 -10 -8 -2 -6 -6 vhcurveto
          -183 -205 -160 -137 -313 hhcurveto
          -776 -236 842 530 hvcurveto
          391 203 285 336 241 -104 244 -312 -26 -27 -2 -4 -29 hvcurveto
          29 -4 -12 39 -20 hhcurveto
          -23 -22 -35 -51 -21 hvcurveto
          -125 -33 -104 -64 -80 vvcurveto
          -22 8 -10 20 -9 vhcurveto
          25 -6 rlineto
          33 30 25 29 2 hvcurveto
          25 22 25 21 22 14 -129 -567 -293 -1424 45 211 rrcurveto
          -4 -4 -6 -12 vvcurveto
          -23 15 -10 24 21 36 8 27 7 vhcurveto
          378 1847 rlineto
          14 50 51 2 59 hhcurveto
          endchar
        </CharString>
        <CharString name="S">
          -91 callsubr
        </CharString>
        <CharString name="T">
          -91 callgsubr
        </CharString>
        <CharString name="Thorn">
          329 -14 -21 527 92 1314 97 332 -20 hstem
          1233 90 vstem
          49 6 rmoveto
          -2 -6 0 -4 -4 vvcurveto
          -21 10 -6 15 24 35 23 32 10 vhcurveto
          103 472 rlineto
          635 444 151 713 307 -127 332 -336 -117 -114 -70 -88 -101 hvcurveto
          25 160 59 133 123 vvcurveto
          6 22 rlineto
          3 6 0 7 6 vvcurveto
          14 -9 19 -26 -33 -37 -29 -33 -8 -6 -39 -2 -8 vhcurveto
          2 -469 rmoveto
          86 78 168 71 104 hhcurveto
          295 78 -251 -316 -672 -457 -75 -514 hvcurveto
          endchar
        </CharString>
        <CharString name="U">
          352 -20 94 1894 -20 hstem
          100 86 vstem
          -100 callsubr
          endchar
        </CharString>
        <CharString name="Uacute">
          352 -20 94 2517 -20 hstem
          100 86 vstem
          -100 callsubr
          764 590 -107 callsubr
        </CharString>
        <CharString name="Ucircumflex">
          352 182 4 85 53 callgsubr
        </CharString>
        <CharString name="Udieresis">
          352 -20 94 2101 -15 callgsubr
          100 86 457 -16 callsubr
          hintmask 11011100
          -100 callsubr
          642 279 -99 callgsubr
          hintmask 10111100
          -97 callgsubr
        </CharString>
        <CharString name="Ugrave">
          352 571 2 85 53 callsubr
        </CharString>
        <CharString name="V">
          137 -12 -21 2081 -20 hstem
          1116 94 vstem
          162 1927 rmoveto
          63 -514 82 -473 70 -496 20 -147 13 -152 22 -149 rrcurveto
          -21 8 15 22 callgsubr
          20 33 49 64 47 hvcurveto
          230 309 411 752 571 vvcurveto
          107 -20 96 -14 98 vhcurveto
          25 -5 -16 10 -16 hhcurveto
          -29 -29 -29 -34 hvcurveto
          19 -136 16 -65 -90 vvcurveto
          -555 -375 -637 -229 -359 vhcurveto
          -68 588 -133 625 -55 586 rrcurveto
          -36 callsubr
        </CharString>
        <CharString name="W">
          602 -10 -21 32 -21 2453 96 hstemhm
          129 107 36 99 467 94 -94 137 571 99 hintmask 10111101
          135 1915 rmoveto
          -4 -17 -2 -18 -16 -656 143 -491 -682 vvcurveto
          -41 19 -25 24 41 47 45 70 35 vhcurveto
          135 264 103 205 162 561 rrcurveto
          -274 18 -342 49 -213 vhcurveto
          hintmask 01111101
          -41 8 62 -264 57 hhcurveto
          29 43 40 68 41 hvcurveto
          248 404 252 557 563 vvcurveto
          373 -263 544 -403 -66 -63 -20 -49 -43 vhcurveto
          -35 -41 -2 -60 -16 -51 rrcurveto
          -29 2 14 -12 18 hhcurveto
          21 25 17 24 12 hvcurveto
          31 94 rlineto
          15 30 17 16 37 hhcurveto
          405 180 -567 -312 -503 -266 -519 -227 -413 hvcurveto
          -113 256 -8 407 316 vvcurveto
          178 vlineto
          43 -2 41 -2 80 vhcurveto
          hintmask 10111011
          28 121 19 114 92 vvcurveto
          68 -8 117 -49 -72 -15 -137 -80 -113 0 -90 3 -90 vhcurveto
          -199 -746 -82 -164 -182 -389 -23 480 -94 421 -18 472 rrcurveto
          -5 73 -14 113 98 47 10 43 37 vvcurveto
          25 -14 12 -16 -23 -29 62 callgsubr
          endchar
        </CharString>
        <CharString name="X">
          -96 callgsubr
        </CharString>
        <CharString name="Y">
          -76 -57 -21 64 94 -90 -21 2013 -20 hstemhm
          hintmask 11010000
          170 -66 rmoveto
          3 2 0 2 vvcurveto
          -2 0 0 6 6 15 2 8 34 vhcurveto
          22 93 88 17 90 hhcurveto
          hintmask 10110000
          48 callsubr
          hintmask 11010000
          48 callgsubr
          59 229 17 174 57 219 127 252 180 668 266 73 callsubr
          8 callgsubr
          -12 -17 -2 -14 -12 vhcurveto
          -289 -346 -133 -496 -154 -344 -122 307 -62 476 -47 346 rrcurveto
          6 8 4 10 12 vvcurveto
          9 -2 10 -6 8 vhcurveto
          12 -14 -10 6 -15 hhcurveto
          -39 -20 -30 -35 hvcurveto
          55 -391 135 -735 90 -117 -34 -244 -13 -168 -71 -203 11 callgsubr
          10 13 33 callgsubr
          endchar
        </CharString>
        <CharString name="Yacute">
          -76 -139 6 89 194 endchar
        </CharString>
        <CharString name="Z">
          24 -508 98 423 -21 76 90 1712 92 -92 123 hstemhm
          hintmask 11101000
          166 1882 rmoveto
          -10 59 70 -2 61 hhcurveto
          150 hlineto
          149 127 0 20 285 hvcurveto
          45 4 -401 -704 -504 -617 -346 -507 rlinecurve
          -8 -13 -5 -14 -10 vvcurveto
          -21 13 -16 24 vhcurveto
          45 72 76 66 hhcurveto
          139 96 -148 -80 94 hvcurveto
          -168 199 260 -180 252 hhcurveto
          131 131 43 76 156 hvcurveto
          69 35 125 98 41 vvcurveto
          20 -12 17 -20 -46 -90 -96 -35 -57 vhcurveto
          -70 -113 -116 -31 -117 hhcurveto
          -264 -252 164 199 -203 hvcurveto
          125 -129 -88 80 -111 hhcurveto
          -20 -21 -2 -6 -20 hvcurveto
          293 403 557 813 348 553 rrcurveto
          -13 callgsubr
          8 11 vvcurveto
          32 -22 13 -76 -88 -125 -17 -2 -31 vhcurveto
          hintmask 11110000
          -8 -155 -107 -4 -108 -99 -98 12 -141 hhcurveto
          -31 -29 -30 -27 -14 8 -13 21 -8 hvcurveto
          endchar
        </CharString>
        <CharString name="a">
          -93 callsubr
        </CharString>
        <CharString name="aacute">
          31 callsubr
          1674 -102 callsubr
          727 1489 -107 callsubr
        </CharString>
        <CharString name="acircumflex">
          -37 -57 -913 97 53 callgsubr
        </CharString>
        <CharString name="acute">
          749 2128 -21 478 -20 hstem
          1047 2521 -107 callsubr
        </CharString>
        <CharString name="adieresis">
          -37 70 -913 97 200 endchar
        </CharString>
        <CharString name="ae">
          163 0 74 -74 168 -167 -21 1067 -20 hstemhm
          33 102 389 99 376 95 hintmask 01011110
          627 -65 callgsubr
          -77 -71 -42 -68 -63 vhcurveto
          55 -8 -22 40 -73 hhcurveto
          -67 callgsubr
          59 69 57 68 52 73 rrcurveto
          -1 -19 -1 -19 -18 vvcurveto
          hintmask 00111110
          -178 54 -43 callsubr
          vhcurveto
          hintmask 01011110
          89 callgsubr
          -22 vhcurveto
          hintmask 10011110
          -41 -111 -94 -96 -48 callgsubr
          -424 -272 -87 callgsubr
          -7 -1 -8 -1 -9 hvcurveto
          -38 -61 -32 -71 -25 -75 -100 -192 -119 -178 -159 -138 rrcurveto
          737 829 rmoveto
          29 30 -22 -58 -235 -196 -57 -160 -86 hvcurveto
          14 84 45 105 34 68 18 21 26 28 41 44 rrcurveto
          2 2 0 2 2 vvcurveto
          10 -2 10 -3 7 vhcurveto
          45 38 42 30 42 hhcurveto
          endchar
        </CharString>
        <CharString name="agrave">
          -37 332 -915 97 53 callsubr
        </CharString>
        <CharString name="ampersand">
          606 -25 99 1818 95 hstem
          96 97 155 90 402 94 463 94 70 92 vstem
          971 496 rmoveto
          -27 34 -10 39 41 vvcurveto
          156 121 137 129 55 vhcurveto
          143 -73 70 -99 -168 vvcurveto
          -327 -318 -217 -301 -352 -233 295 381 274 194 227 229 27 vhcurveto
          48 -23 36 -2 70 -14 rrcurveto
          35 29 23 32 60 -103 22 -59 hvcurveto
          -19 hlineto
          -161 56 -54 137 94 vvcurveto
          158 183 71 143 166 129 -65 -101 37 vhcurveto
          -20 8 12 22 callgsubr
          27 31 28 31 hvcurveto
          4 -2 4 4 vvcurveto
          156 -78 -182 62 -181 hhcurveto
          -210 -187 -117 -209 -105 68 -124 98 -84 hvcurveto
          -190 -72 -88 -105 -82 -163 rrcurveto
          -41 -80 -17 -97 -92 vvcurveto
          -432 281 -332 385 352 377 283 367 151 -37 131 -168 92 vhcurveto
          250 74 117 154 127 vvcurveto
          10 -2 205 -49 -25 -27 -23 -26 -8 vhcurveto
          4 -72 15 -49 -45 vvcurveto
          -232 -312 -8 -141 -96 vhcurveto
          -137 -92 -131 -160 -184 vvcurveto
          -47 24 -123 62 19 callsubr
          -14 callgsubr
          9 vhcurveto
          endchar
        </CharString>
        <CharString name="aring">
          31 callsubr
          1155 82 callgsubr
          33 102 350 96 -96 356 -241 109 hintmask 01111101
          -92 callsubr
          hintmask 10111101
          -105 callsubr
          440 1383 rmoveto
          0 callsubr
          hvcurveto
          hintmask 01111010
          -63 callgsubr
          vhcurveto
          hintmask 01111101
          -13 callsubr
        </CharString>
        <CharString name="asciicircum">
          110 1852 -21 749 -20 hstem
          254 1907 rmoveto
          180 71 160 205 127 141 61 66 rcurveline
          9 -72 36 -67 29 -70 57 -137 58 -158 149 -55 rrcurveto
          35 43 31 32 9 -6 10 -10 8 hvcurveto
          -187 70 -65 309 -53 180 rrcurveto
          30 callsubr
          22 41 rlineto
          2 9 2 75 callsubr
          18 -12 8 -14 -19 -26 -10 -20 -15 vhcurveto
          -2 -2 34 callsubr
          vvcurveto
          -41 -45 -110 -123 -261 -324 -145 -57 rlinecurve
          -33 -15 -20 -30 -23 vvcurveto
          -14 8 -10 18 7 34 callgsubr
          vhcurveto
          endchar
        </CharString>
        <CharString name="asciitilde">
          282 392 -21 57 98 -98 291 -66 105 hstemhm
          hintmask 10110000
          156 428 rmoveto
          125 6 137 100 121 hhcurveto
          16 19 -2 -4 16 hvcurveto
          -26 94 215 -193 158 hhcurveto
          51 2 47 19 31 57 82 149 rcurveline
          6 11 85 callgsubr
          23 -16 12 -21 vhcurveto
          hintmask 11010000
          -84 21 -193 -121 hhcurveto
          -72 -250 168 43 -96 hvcurveto
          15 -31 -32 6 -33 hhcurveto
          -174 -172 -183 -161 -15 hvcurveto
          -31 -9 callsubr
          25 50 callgsubr
          endchar
        </CharString>
        <CharString name="asterisk">
          -271 1207 -21 565 -20 hstem
          240 1673 rmoveto
          36 -43 17 -57 31 -49 2 -6 4 -5 2 -4 -51 -14 -56 -25 -69 -45 rrcurveto
          -17 -14 -8 -16 -15 vvcurveto
          -20 14 -17 23 10 10 5 8 15 vhcurveto
          53 37 51 20 49 10 -102 -161 rcurveline
          -2 -9 -2 -8 -6 88 callsubr
          -13 21 16 19 8 17 12 vhcurveto
          86 137 35 -49 37 -45 65 -72 rlinecurve
          -10 10 11 -4 12 hhcurveto
          19 callsubr
          8 -2 11 -6 8 hvcurveto
          -72 76 -31 38 -36 56 49 4 51 2 59 8 rrcurveto
          29 10 21 29 23 vvcurveto
          22 -17 8 -33 vhcurveto
          -51 -8 -41 -2 -39 -4 27 47 29 47 24 49 rrcurveto
          6 11 85 callgsubr
          22 -16 13 -21 -16 -20 -10 -21 -15 vhcurveto
          -28 -55 -33 -56 -33 -53 rrcurveto
          2 vlineto
          74 -41 -49 131 -51 hhcurveto
          -29 -24 -27 -30 -6 2 -9 2 -6 hvcurveto
          endchar
        </CharString>
        <CharString name="at">
          749 -170 98 365 106 -6 96 803 150 -96 96 381 100 hstemhm
          20 103 407 95 430 96 487 82 hintmask 1100111111000000
          1061 1386 rmoveto
          15 -43 -31 41 -51 hhcurveto
          -246 -115 -477 -172 -24 hvcurveto
          -6 -41 -15 -99 -100 vvcurveto
          -129 27 -131 109 159 146 309 234 84 vhcurveto
          -72 vlineto
          hintmask 1011011111000000
          -156 10 -215 184 334 137 395 164 627 -307 344 -440 -635 -318 -537 -526 -719 435 -311 379 477 164 270 256 223 vhcurveto
          12 15 4 14 -28 callgsubr
          -226 -194 -174 -262 -396 hhcurveto
          -382 -369 236 717 491 317 451 543 389 266 -381 -459 -176 -122 -318 -279 -76 -10 138 121 hvcurveto
          92 2 53 53 vvcurveto
          82 -4 111 -43 -86 -25 -187 -80 -30 vhcurveto
          hintmask 1100111111000000
          -174 -68 -127 -299 -90 hhcurveto
          -43 -12 76 88 88 12 99 8 45 hvcurveto
          102 17 92 449 159 hhcurveto
          hintmask 1101011111000000
          41 37 -54 43 hhcurveto
          33 29 31 27 16 -11 14 -24 6 hvcurveto
          endchar
        </CharString>
        <CharString name="atilde">
          31 callsubr
          1237 1 callsubr
          33 102 465 109 hintmask 01101110
          -92 callsubr
          hintmask 10101110
          -105 callsubr
          279 1159 -61 callgsubr
          hintmask 01010110
          -61 callsubr
          hintmask 01101110
          -81 callsubr
        </CharString>
        <CharString name="b">
          -152 -20 104 846 100 936 -20 hstem
          152 104 379 108 vstem
          485 1966 rmoveto
          -20 -16 -8 -25 -13 hvcurveto
          -114 -643 -50 -102 -110 -758 rrcurveto
          -8 -49 -2 -49 -45 vvcurveto
          -172 53 -135 133 283 122 620 225 99 -51 106 -119 -116 -88 -135 -119 -66 vhcurveto
          107 514 28 88 86 516 2 13 rcurveline
          4 77 callgsubr
          vvcurveto
          31 -24 14 -21 vhcurveto
          -147 -1882 rmoveto
          -62 -20 72 102 59 8 93 8 82 hvcurveto
          184 21 188 254 82 hhcurveto
          64 8 -70 -123 -213 -137 -440 -160 hvcurveto
          endchar
        </CharString>
        <CharString name="backslash">
          -142 -920 -20 39 -21 3011 19 callgsubr
          985 -920 rmoveto
          hintmask 01100000
          4 4 -2 4 hhcurveto
          25 12 15 18 19 -16 24 -21 12 hvcurveto
          -41 80 7 86 -29 84 -35 107 -45 106 -45 103 -113 254 -114 252 -109 258 -190 454 -242 641 -184 459 rrcurveto
          27 -11 -26 12 -21 hhcurveto
          -18 -17 -10 -25 -6 3 -6 2 -8 hvcurveto
          96 -230 149 -407 92 -230 185 -458 rcurveline
          92 -232 100 -225 99 -227 80 -183 88 -178 69 -184 rrcurveto
          hintmask 10100000
          33 -90 18 -291 115 -19 rrcurveto
          endchar
        </CharString>
        <CharString name="bar">
          -377 -284 -21 2759 -20 hstem
          535 2404 rmoveto
          -158 -751 -125 -758 -154 -756 -28 -135 -33 -133 -17 -131 rrcurveto
          -2 0 -2 0 hvcurveto
          2 hlineto
          -2 -4 0 -4 -6 vvcurveto
          -21 2 13 -8 12 hhcurveto
          37 37 41 28 hvcurveto
          7 vlineto
          16 127 33 129 27 127 153 755 129 758 156 752 rrcurveto
          24 -2 -10 11 -17 hhcurveto
          -22 -33 -23 -27 -14 hvcurveto
          endchar
        </CharString>
        <CharString name="braceleft">
          -392 -587 -21 2582 -20 hstem
          35 92 vstem
          676 1966 rmoveto
          6 -8 -11 2 -10 hhcurveto
          -12 -12 -4 -4 -15 hvcurveto
          -282 -96 -13 -414 -307 vvcurveto
          -4 -102 10 -140 -71 -96 -39 -53 -96 4 -15 -74 rrcurveto
          -20 17 -13 -15 33 37 23 9 12 hhcurveto
          6 4 -5 -8 -4 0 -6 -2 -6 hvcurveto
          -18 -92 12 51 -57 -223 -60 -230 -59 -248 2 -225 rrcurveto
          -92 10 -182 92 62 116 41 53 20 -12 7 -31 vhcurveto
          -75 -21 -13 10 -18 6 -8 15 rlinecurve
          -23 43 -8 61 70 vvcurveto
          334 127 319 51 234 vhcurveto
          8 34 4 31 27 vvcurveto
          33 -10 24 -20 12 vhcurveto
          61 54 29 73 16 72 53 246 -43 235 54 250 8 41 14 45 21 37 rrcurveto
          4 vlineto
          -2 vlineto
          10 17 20 26 45 29 33 6 rlinecurve
          8 hlineto
          35 39 31 28 11 -4 10 -10 8 hvcurveto
          -512 -1292 rmoveto
          2 hlineto
          334 1124 rmoveto
          2 vlineto
          endchar
        </CharString>
        <CharString name="braceright">
          -302 -1024 90 2792 96 hstem
          238 114 164 102 vstem
          319 1853 rmoveto
          27 33 5 29 hhcurveto
          86 22 -64 -108 -373 -188 -281 -58 -334 hvcurveto
          -8 -45 -24 -96 -74 vvcurveto
          -37 6 -38 20 -17 vhcurveto
          -96 -121 -6 -178 -17 -125 rrcurveto
          0 7 17 2 10 vhcurveto
          -43 -205 -19 -203 -47 -204 rrcurveto
          -156 -37 -33 -160 -159 hhcurveto
          -97 -86 45 58 -59 hvcurveto
          6 -8 -8 2 -9 hhcurveto
          -32 -39 -33 -33 -43 106 -55 51 -14 hvcurveto
          -15 54 47 -8 41 hhcurveto
          522 -123 1196 195 166 hvcurveto
          10 8 rlineto
          35 18 51 27 41 vvcurveto
          14 -12 12 -23 -14 -16 -4 -6 -19 vhcurveto
          15 -2 14 14 398 266 391 411 vvcurveto
          125 -34 109 -129 -70 -100 -8 -68 -12 10 -11 24 -2 vhcurveto
          endchar
        </CharString>
        <CharString name="bracketleft">
          -369 -641 92 -92 160 2334 95 30 -20 hstemhm
          hintmask 01110000
          461 1929 rmoveto
          -125 -571 -121 -572 -115 -571 -55 -270 -61 -273 -29 -270 rrcurveto
          -41 14 66 -2 45 hhcurveto
          110 127 41 27 105 hvcurveto
          37 10 24 37 2 22 rrcurveto
          15 -10 8 -20 vhcurveto
          hintmask 10110000
          -56 -202 -68 -99 hhcurveto
          -18 -14 2 4 -9 hvcurveto
          29 254 59 262 52 256 110 547 117 549 117 547 75 -6 74 -11 76 -2 rrcurveto
          31 11 30 30 25 43 callgsubr
          -86 2 -80 14 -86 4 rrcurveto
          8 -4 -6 2 -9 hhcurveto
          -24 -33 -22 -27 -12 hvcurveto
          endchar
        </CharString>
        <CharString name="bracketright">
          -283 -335 -21 2341 -20 hstem
          465 98 vstem
          145 1919 rmoveto
          27 -94 55 -88 45 -86 rrcurveto
          117 -219 76 -261 -280 vvcurveto
          -352 -115 -357 -223 -278 vhcurveto
          -49 -62 -139 -112 -49 vvcurveto
          -23 17 callsubr
          205 221 -41 -57 166 248 141 211 80 346 2 311 rrcurveto
          256 -67 180 -70 199 vhcurveto
          -49 137 -101 115 -40 139 rrcurveto
          16 -11 -12 7 -12 hhcurveto
          -29 -27 -33 -33 hvcurveto
          endchar
        </CharString>
        <CharString name="brokenbar">
          -293 -776 -21 2855 -20 hstem
          618 2009 rmoveto
          -40 -188 -54 -189 -47 -190 -47 -197 -43 -196 -61 -197 63 callsubr
          -4 -4 vvcurveto
          -21 12 -10 14 25 37 25 32 10 vhcurveto
          63 197 41 197 49 196 46 191 53 188 43 188 rrcurveto
          25 -2 -10 10 -17 hhcurveto
          -22 -33 -22 -27 -15 hvcurveto
          -413 -1755 rmoveto
          -2 -18 -4 -19 -16 vvcurveto
          -54 -318 -69 -317 -56 -320 rrcurveto
          -4 -2 -4 -2 vvcurveto
          -22 13 -11 16 25 34 25 33 13 vhcurveto
          57 340 90 344 39 338 rrcurveto
          24 -12 10 -17 -26 -39 -28 -35 -6 vhcurveto
          endchar
        </CharString>
        <CharString name="bullet">
          -48 496 -21 486 -20 hstem
          393 475 rmoveto
          142 170 156 133 139 -144 58 -92 -127 -127 -80 -111 -98 21 -197 157 hvcurveto
          endchar
        </CharString>
        <CharString name="c">
          -72 callsubr
        </CharString>
        <CharString name="caron">
          368 2089 -21 515 -20 hstem
          629 2083 rmoveto
          -15 8 12 0 13 hhcurveto
          28 19 25 41 22 hvcurveto
          80 139 104 119 113 115 rrcurveto
          12 -47 callgsubr
          -14 15 -20 -13 -14 -5 5 callgsubr
          -111 -110 -102 -119 -80 -133 rrcurveto
          82 -49 -99 149 -86 hhcurveto
          -30 -29 -25 -28 -25 23 -8 32 -16 hvcurveto
          88 -45 58 -125 45 -80 rrcurveto
          endchar
        </CharString>
        <CharString name="ccedilla">
          -263 60 callsubr
          88 101 749 222 -95 95 hstemhm
          61 101 322 96 hintmask 11101110
          -55 callgsubr
          16 15 1 2 14 hvcurveto
          -29 -48 -22 -55 -26 -51 -71 callsubr
          2 -1 3 2 vvcurveto
          83 42 49 71 48 vvcurveto
          20 -15 15 -20 vhcurveto
          -41 callgsubr
          hintmask 11110110
          -46 callgsubr
          endchar
        </CharString>
        <CharString name="cedilla">
          315 60 callsubr
          148 -20 hstem
          750 96 vstem
          596 18 rmoveto
          -43 -57 -27 -72 -34 -65 -71 callsubr
          vvcurveto
          21 73 callgsubr
          -12 -15 -4 -13 -14 vhcurveto
          endchar
        </CharString>
        <CharString name="cent">
          -263 -215 -21 1477 -20 hstem
          61 91 vstem
          541 1192 rmoveto
          -17 -53 -22 -49 -23 -52 rrcurveto
          -233 -59 -185 -444 -293 vvcurveto
          -129 58 -111 100 -22 vhcurveto
          -16 -54 -29 -51 -20 -55 rrcurveto
          10 callgsubr
          62 callsubr
          16 -11 18 47 54 117 101 26 vhcurveto
          127 22 101 102 64 vvcurveto
          20 -15 15 -20 -62 0 -111 -16 -118 vhcurveto
          16 -7 -12 8 -12 hhcurveto
          -14 -17 -8 -12 -12 hvcurveto
          -72 22 -26 84 70 vvcurveto
          252 182 442 182 vhcurveto
          -46 callgsubr
          -33 17 13 94 -88 22 rrcurveto
          30 54 25 67 43 44 callsubr
          -16 vhcurveto
          -22 -2 -31 -16 -8 -31 rrcurveto
          endchar
        </CharString>
        <CharString name="circumflex">
          749 2068 406 hstem
          565 2083 -63 callsubr
          endchar
        </CharString>
        <CharString name="colon">
          -472 -18 -21 29 -21 719 238 hstemhm
          -18 223 -39 225 hintmask 10101000
          252 688 rmoveto
          65 74 66 65 62 -74 45 -38 -66 -47 -80 -62 -67 49 -29 37 hvcurveto
          -176 -727 rmoveto
          hintmask 01110000
          90 8 39 76 31 vvcurveto
          59 -72 45 -61 -41 -49 -24 -62 -47 36 -78 27 vhcurveto
          2 hlineto
          hintmask 10110000
          6 81 callgsubr
        </CharString>
        <CharString name="comma">
          -627 -360 -21 384 -21 149 -20 hstem
          0 190 vstem
          90 -35 rmoveto
          -24 -59 -93 -170 -39 -45 rrcurveto
          -8 -13 -4 -12 -10 vvcurveto
          58 callsubr
          61 72 135 199 108 vvcurveto
          70 -12 51 -84 -55 -39 -61 -45 -25 12 -18 29 8 12 2 6 15 vhcurveto
          -15 14 0 -10 vvcurveto
          endchar
        </CharString>
        <CharString name="copyright">
          133 977 96 133 97 348 92 123 100 hstem
          158 92 166 94 571 90 vstem
          889 1944 rmoveto
          8 -27 -24 14 -27 hhcurveto
          -299 -2 -354 -209 -334 vvcurveto
          -243 157 -201 285 340 231 297 287 51 -10 51 -18 49 vhcurveto
          55 -23 -98 101 -31 hhcurveto
          -28 -25 -27 -31 -6 2 -8 2 -6 hvcurveto
          90 -107 49 -16 -145 vvcurveto
          -224 -239 -225 -230 -211 -151 152 215 61 12 62 27 47 vhcurveto
          135 76 223 121 172 31 30 -13 27 hhcurveto
          33 30 29 27 12 -6 12 -16 11 hvcurveto
          -25 -240 rmoveto
          29 -37 -43 10 -43 hhcurveto
          -155 -170 -164 -156 -73 57 -144 158 59 35 21 41 14 -10 14 -25 7 hvcurveto
          -131 4 -49 55 65 vvcurveto
          101 111 123 102 vhcurveto
          33 30 -29 29 hhcurveto
          31 26 25 28 8 -2 11 -6 10 hvcurveto
          endchar
        </CharString>
        <CharString name="currency">
          53 431 -21 163 101 416 92 94 -20 hstem
          160 96 397 82 vstem
          94 1141 rmoveto
          21 -37 59 -57 43 -23 rrcurveto
          -37 -59 -20 -64 -51 vvcurveto
          -49 18 -58 35 -51 vhcurveto
          -49 -57 -43 -105 -24 50 callsubr
          32 62 94 58 33 vhcurveto
          -31 45 57 -19 70 hhcurveto
          47 43 15 26 39 hvcurveto
          -96 47 121 -108 30 hhcurveto
          27 27 26 31 37 -144 104 -28 82 hvcurveto
          6 6 4 9 2 12 rrcurveto
          35 61 22 72 72 vvcurveto
          49 -10 59 -33 41 vhcurveto
          6 2 7 4 6 4 rrcurveto
          61 54 127 51 53 vvcurveto
          21 -12 16 -23 -49 -145 -105 -51 -27 vhcurveto
          -12 4 rlineto
          11 -47 -25 47 -82 hhcurveto
          -76 -65 -33 -45 -51 hvcurveto
          -31 29 -57 28 -19 37 rrcurveto
          16 -10 -12 7 -13 hhcurveto
          -26 -27 -29 -33 -6 9 callsubr
          hvcurveto
          471 -115 rmoveto
          62 -20 26 -48 -55 vvcurveto
          -104 -90 -125 -114 -125 -68 106 94 101 96 115 103 30 21 -19 -18 31 vhcurveto
          2 -11 8 -10 18 -6 rrcurveto
          endchar
        </CharString>
        <CharString name="d">
          -58 -18 100 -98 -21 985 86 930 -20 hstemhm
          61 93 366 103 hintmask 10111100
          883 1901 rmoveto
          -4 -25 -37 -156 -43 -243 -25 -105 rlinecurve
          -98 -430 rlineto
          6 callgsubr
          -31 -184 -154 vvcurveto
          -117 43 -163 144 158 75 88 155 51 vhcurveto
          -8 -37 -4 -30 -29 vvcurveto
          hintmask 01111100
          -51 27 -115 35 24 31 25 32 4 vhcurveto
          -12 39 -6 37 37 vvcurveto
          78 24 76 15 82 vhcurveto
          43 239 77 236 37 239 39 248 64 215 57 352 rrcurveto
          2 7 0 6 6 vvcurveto
          33 -20 14 -21 -29 -28 -29 -34 vhcurveto
          -262 -1184 rmoveto
          -9 -41 -20 -125 -25 -68 rrcurveto
          hintmask 10111100
          -176 -67 -117 -225 3 callsubr
          -22 -2 -23 -4 -20 hvcurveto
          endchar
        </CharString>
        <CharString name="degree">
          -474 1694 90 237 97 hstem
          236 100 262 94 vstem
          436 2118 rmoveto
          -119 -81 -138 -116 -101 59 -69 125 149 123 121 106 74 -45 41 -112 28 hvcurveto
          33 -13 -22 21 -64 hhcurveto
          162 -226 rmoveto
          -57 -94 -51 -72 -70 -26 57 64 59 26 57 48 51 137 -53 -76 vhcurveto
          endchar
        </CharString>
        <CharString name="dieresis">
          749 2171 192 -183 -21 211 -20 hstemhm
          334 -16 callsubr
          hintmask 10011000
          739 2212 -99 callgsubr
          hintmask 01111000
          -97 callgsubr
        </CharString>
        <CharString name="divide">
          -60 226 -21 219 188 0 95 0 225 0 237 hstemhm
          217 223 -59 237 hintmask 10101100
          98 612 rmoveto
          230 -2 227 -8 227 -2 rrcurveto
          31 10 31 31 25 vvcurveto
          12 -6 12 -21 4 vhcurveto
          -227 2 -228 9 -229 2 rrcurveto
          -37 -7 -35 -34 -27 vvcurveto
          -14 11 -11 26 -2 vhcurveto
          hintmask 11001010
          351 320 rmoveto
          69 100 76 69 53 -57 39 -35 -71 -74 -100 -61 -58 33 -18 35 hvcurveto
          -164 -727 rmoveto
          hintmask 11010100
          118 10 37 104 15 vvcurveto
          51 -59 39 -55 -47 -62 -33 -82 -45 16 -51 23 vhcurveto
          2 hlineto
          4 81 callgsubr
        </CharString>
        <CharString name="dollar">
          190 -133 -21 131 91 1826 86 168 -20 7 callsubr
          958 2099 rmoveto
          -6 -43 -12 -41 -14 -41 rrcurveto
          2 -21 -20 4 -23 28 callsubr
          -127 56 -156 67 -161 hvcurveto
          -106 -367 -113 -364 -106 -369 rrcurveto
          -156 35 -127 102 172 vvcurveto
          -62 callgsubr
          -223 164 -125 192 -41 vhcurveto
          -29 -107 rlineto
          -28 2 15 66 callsubr
          24 95 rlineto
          -2 23 24 -3 23 hhcurveto
          403 96 340 195 233 -114 228 -94 225 hvcurveto
          51 182 49 181 47 184 10 37 15 41 16 39 70 -41 36 -74 11 -68 rrcurveto
          -26 callsubr
          -27 86 -47 88 -90 50 rrcurveto
          20 55 17 55 55 44 callsubr
          -16 -23 -28 -20 -29 -11 vhcurveto
          -57 -1591 rmoveto
          27 callsubr
          vhcurveto
          -37 hlineto
          94 327 100 326 94 328 rrcurveto
          80 -191 76 -192 -158 vvcurveto
          -233 1167 rmoveto
          101 63 118 119 16 15 -2 -2 14 vhcurveto
          -18 -47 -19 -49 -12 -49 -35 -137 -37 -138 -39 -135 rrcurveto
          -39 113 -28 113 114 vvcurveto
          endchar
        </CharString>
        <CharString name="dotlessi">
          -519 1 -21 1083 -20 49 callsubr
          227 997 -103 callgsubr
          endchar
        </CharString>
        <CharString name="e">
          -76 callsubr
        </CharString>
        <CharString name="eacute">
          -18 callsubr
          627 -20 hstemhm
          68 98 377 94 hintmask 01111100
          -82 callsubr
          hintmask 10111100
          -80 callsubr
          316 660 -107 callsubr
        </CharString>
        <CharString name="ecircumflex">
          -293 -188 -913 101 53 callgsubr
        </CharString>
        <CharString name="edieresis">
          -18 callsubr
          211 -15 callgsubr
          68 98 107 174 96 94 35 168 hintmask 0111011110000000
          -82 callsubr
          hintmask 1011011110000000
          -80 callsubr
          195 349 -99 callgsubr
          hintmask 1010111110000000
          -97 callgsubr
        </CharString>
        <CharString name="egrave">
          -293 201 -915 101 53 callsubr
        </CharString>
        <CharString name="eight">
          61 -41 104 1821 94 hstemhm
          45 98 179 88 391 100 -29 91 hintmask 11111000
          45 414 rmoveto
          -305 242 -150 184 279 151 240 231 242 -162 235 -102 185 vhcurveto
          31 28 32 29 27 27 rrcurveto
          hintmask 11110100
          115 112 121 117 192 vvcurveto
          115 -58 266 -211 -235 -137 -172 -250 -141 112 -211 90 -100 vhcurveto
          -241 -221 -238 -199 -270 vvcurveto
          hintmask 11111000
          756 16 rmoveto
          -205 -158 -162 -201 -166 -133 152 236 208 228 199 198 172 vhcurveto
          111 -186 121 -187 -227 vvcurveto
          -219 754 rmoveto
          -64 67 -108 203 123 vvcurveto
          190 84 117 182 vhcurveto
          hintmask 11110100
          178 18 -252 -59 -164 -118 -68 -95 -108 hvcurveto
          -67 -66 rlineto
          endchar
        </CharString>
        <CharString name="emdash">
          516 635 94 -79 -21 35 65 hstemhm
          hintmask 01100000
          102 664 rmoveto
          hintmask 10000000
          338 340 -29 336 hhcurveto
          hintmask 01100000
          88 101 -6 84 hhcurveto
          53 28 22 33 21 -14 14 -22 hvcurveto
          10 -13 -71 2 -76 hhcurveto
          -60 -63 -2 -41 hhcurveto
          -324 -327 33 -324 hhcurveto
          -59 -80 -2 -62 -18 64 callgsubr
          hvcurveto
          endchar
        </CharString>
        <CharString name="endash">
          438 621 -21 53 95 hstem
          285 600 rmoveto
          65 68 6 8 65 hvcurveto
          27 240 240 12 241 37 callsubr
          -242 -240 -13 -26 -239 hvcurveto
          -82 -11 -142 2 -22 -2 rrcurveto
          4 -8 -8 3 -7 hhcurveto
          -30 -27 -27 -27 -10 2 -10 8 -8 hvcurveto
          -15 -4 74 -8 33 hhcurveto
          endchar
        </CharString>
        <CharString name="equal">
          -23 435 -21 67 92 150 98 hstem
          170 694 rmoveto
          21 20 91 8 102 hhcurveto
          127 145 -10 -4 50 hvcurveto
          26 8 23 26 25 vvcurveto
          47 -189 6 -155 -131 -181 -20 -82 58 callsubr
          6 -276 rmoveto
          51 84 115 12 117 hhcurveto
          106 107 -10 -2 86 hvcurveto
          26 8 23 -2 callgsubr
          -11 14 -24 6 vhcurveto
          2 -94 -105 8 -102 hhcurveto
          -109 -276 -20 -102 88 callgsubr
          23 6 34 callgsubr
          hvcurveto
          endchar
        </CharString>
        <CharString name="eth">
          -66 -18 100 866 86 344 -20 526 -20 hstem
          72 92 vstem
          578 483 rmoveto
          -188 -74 -111 -213 3 callsubr
          -96 -21 -102 -38 -101 hvcurveto
          321 1092 rmoveto
          25 11 18 16 32 vvcurveto
          21 -12 22 -25 -6 -4 -2 -2 -6 vhcurveto
          -74 -33 -43 -20 -29 -16 -71 104 -105 78 -137 67 rrcurveto
          17 -35 -18 14 -21 hhcurveto
          -8 -41 -6 -35 -15 6 -22 27 -10 hvcurveto
          164 -65 98 -90 60 -89 -29 -16 -45 -23 -101 -38 rrcurveto
          -16 -13 -10 -24 -21 vvcurveto
          -22 12 -19 25 vhcurveto
          4 4 2 4 hhcurveto
          192 101 35 -78 8 -76 3 -59 rlinecurve
          -1 -35 -13 -103 -11 -43 -37 -143 rcurveline
          6 callgsubr
          -30 -184 -154 vvcurveto
          -115 41 -165 136 403 137 957 65 16 vhcurveto
          12 51 25 141 43 vvcurveto
          111 -19 94 -35 80 vhcurveto
          endchar
        </CharString>
        <CharString name="exclam">
          -287 -100 217 2136 -20 hstem
          109 178 211 94 vstem
          498 2204 rmoveto
          -6 -136 -33 -133 -17 -137 -55 -481 -94 -475 -111 -473 -12 callgsubr
          113 477 94 479 56 487 16 138 33 131 6 137 42 callsubr
          -25 -26 32 callsubr
          -351 -2267 rmoveto
          -21 15 -16 22 68 35 100 37 45 -25 35 -43 -43 -67 -41 -62 -26 12 -25 29 -10 vhcurveto
          -3 -6 0 -4 -6 vvcurveto
          endchar
        </CharString>
        <CharString name="exclamdown">
          -551 -1306 -21 2351 -20 hstem
          -158 95 210 177 vstem
          -63 -1278 rmoveto
          6 135 32 133 17 138 55 481 94 475 111 473 rrcurveto
          29 -2 -14 12 -19 hhcurveto
          -20 -27 -16 -25 -10 hvcurveto
          -113 -477 -94 -479 -55 -488 -17 -137 -33 -131 -6 -137 rrcurveto
          -27 6 15 22 callgsubr
          25 26 22 27 9 hvcurveto
          278 2292 rmoveto
          -47 -37 -21 -47 -41 vvcurveto
          -45 25 -35 43 41 68 39 63 27 -13 27 -28 10 vhcurveto
          2 4 0 6 4 vvcurveto
          21 -15 14 -20 -10 -13 -2 -8 -12 vhcurveto
          endchar
        </CharString>
        <CharString name="f">
          -257 -842 99 1673 94 614 111 hstem
          70 930 rmoveto
          84 2 22 8 84 -6 -35 -195 -24 -207 -29 -198 rrcurveto
          -350 -72 -10 -727 -524 hhcurveto
          -113 -51 6 116 -162 hvcurveto
          -4 -4 3 -4 hhcurveto
          -31 -28 -21 -27 -36 155 -140 236 624 0 701 477 80 hvcurveto
          21 129 30 215 45 250 rrcurveto
          -2 89 49 0 49 hhcurveto
          69 82 0 55 31 -26 8 -31 hvcurveto
          2 -20 -13 0 -14 hhcurveto
          -123 41 -4 4 -131 hvcurveto
          322 49 131 292 211 hhcurveto
          53 56 -6 -4 55 hvcurveto
          22 14 19 25 21 vvcurveto
          18 -14 16 -39 13 vhcurveto
          10 -52 -41 4 -36 hhcurveto
          -338 -92 -379 -346 -84 hvcurveto
          -54 hlineto
          -121 -77 -2 -55 -23 12 -12 29 -2 hvcurveto
          endchar
        </CharString>
        <CharString name="five">
          378 -846 98 979 91 538 88 103 -20 hstem
          -8 92 432 92 557 103 vstem
          516 971 rmoveto
          -381 -151 -221 -168 -234 vhcurveto
          -4 -6 0 -8 -6 vvcurveto
          -25 16 -12 20 11 14 33 callgsubr
          100 152 96 41 184 hhcurveto
          265 202 -208 -238 -387 -258 -146 -297 -282 -244 156 326 hvcurveto
          28 vlineto
          17 -10 -13 90 callgsubr
          -51 -6 -66 -38 -359 336 -168 284 461 195 314 315 330 -285 209 -285 -80 -141 -15 -39 -84 hvcurveto
          119 183 82 196 14 254 rrcurveto
          -35 86 232 -6 75 hhcurveto
          80 105 0 103 143 hvcurveto
          21 14 10 20 17 vvcurveto
          20 -12 17 -23 -8 -10 -2 -7 -11 vhcurveto
          -90 -131 -86 -4 -80 hhcurveto
          -79 -201 13 30 -64 hvcurveto
          17 -20 -17 24 -28 hhcurveto
          -19 -16 -10 -14 -12 hvcurveto
          -13 -9 -10 -14 -4 -14 rrcurveto
          endchar
        </CharString>
        <CharString name="foundryicon">
          2611 -542 -21 2025 -20 hstemhm
          121 268 199 145 -104 219 -129 227 119 211 123 172 341 210 90 86 47 185 84 206 98 236 104 133 hintmask 1110011111111100
          1253 813 rmoveto
          -53 57 -115 48 -71 -9 rrcurveto
          17 -107 34 -185 -188 vvcurveto
          -81 -6 -82 -17 -76 vhcurveto
          -4 -14 -8 -33 -31 -8 rrcurveto
          -41 130 -12 141 147 vvcurveto
          66 2 68 4 69 vhcurveto
          -53 49 -100 18 -41 8 rrcurveto
          -25 -47 -14 -69 -103 vvcurveto
          -108 8 -111 29 -94 vhcurveto
          -31 -68 -66 -118 -106 -35 rrcurveto
          -119 85 -45 222 226 vvcurveto
          267 62 273 73 68 vhcurveto
          hintmask 1111001111111100
          29 -36 35 -127 -104 vvcurveto
          -20 -1 -19 -3 -18 vhcurveto
          -4 -12 0 -21 24 27 rrcurveto
          76 65 53 82 99 vvcurveto
          256 -186 45 -123 26 vhcurveto
          -225 -196 -80 -338 2 -334 rrcurveto
          -291 6 123 -299 311 hhcurveto
          137 68 98 82 29 hvcurveto
          -88 43 67 -59 99 hhcurveto
          26 25 20 17 10 hvcurveto
          -33 -271 -4 -182 -170 -110 rrcurveto
          hintmask 1110101111111100
          -7 28 -3 32 34 vvcurveto
          57 8 60 6 49 vhcurveto
          55 -55 -82 20 -66 hhcurveto
          -16 -55 -14 -61 -66 vvcurveto
          -147 37 -80 143 329 138 470 525 126 -8 129 -15 126 vhcurveto
          33 37 rmoveto
          88 -215 10 -365 15 -243 rrcurveto
          -2 10 10 -1 9 hhcurveto
          75 46 59 75 22 hvcurveto
          20 59 0 113 69 vvcurveto
          19 76 57 55 21 56 rrcurveto
          -88 13 43 -45 74 hhcurveto
          20 22 3 7 24 hvcurveto
          -7 39 -3 44 46 vvcurveto
          70 7 73 11 60 vhcurveto
          -28 51 -80 24 -86 9 rrcurveto
          -15 -33 -16 -62 -36 vvcurveto
          -18 -56 -31 -61 -47 -88 -8 108 -27 78 -31 55 -23 26 -30 17 -35 7 -33 8 -43 5 -55 3 rrcurveto
          1266 -737 rmoveto
          -15 48 -7 59 61 vvcurveto
          158 43 176 44 55 vhcurveto
          -2 -24 -1 -35 -42 vvcurveto
          -90 7 -120 25 -103 vhcurveto
          -4 -57 -57 -58 -33 -28 rrcurveto
          602 422 rmoveto
          10 213 41 245 41 166 rrcurveto
          8 -41 4 -51 -56 vvcurveto
          -167 -35 -209 -69 -100 vhcurveto
          -977 155 rmoveto
          14 -28 21 -60 -59 vvcurveto
          -101 -29 -118 -61 -9 vhcurveto
          129 18 134 37 112 vhcurveto
          293 662 rmoveto
          0 2 0 -2 2 vhcurveto
          -35 hlineto
          8 39 rlineto
          0 6 2 -8 vhcurveto
          -35 -13 rlineto
          11 -16 -18 2 -21 hhcurveto
          -51 -51 -35 -60 -17 hvcurveto
          -30 -30 -195 -31 -197 -37 rrcurveto
          -38 -242 21 6 -4 hvcurveto
          -10 -5 -12 -9 11 hvcurveto
          53 -49 133 6 39 -35 82 -98 98 -96 111 -23 8 -28 12 -29 13 -25 rrcurveto
          1 -12 -12 1 -12 hhcurveto
          -12 -12 -1 -1 -12 hvcurveto
          -51 -83 -31 -177 -4 -149 rrcurveto
          -1 -14 0 -13 -14 vvcurveto
          -183 77 -161 198 vhcurveto
          90 8 60 64 35 55 rrcurveto
          -74 20 57 -53 107 hhcurveto
          53 6 70 43 14 57 rrcurveto
          -57 25 61 -70 78 hhcurveto
          68 49 62 63 16 hvcurveto
          -80 47 74 -45 100 hhcurveto
          202 51 226 160 16 0 14 -1 14 hvcurveto
          -8 -6 3 -7 -15 hvcurveto
          -43 -174 -65 -110 -82 -62 rrcurveto
          -59 86 -27 115 141 vvcurveto
          152 70 81 283 235 vvcurveto
          248 -65 106 -240 39 vhcurveto
          -110 -199 -58 -303 -292 vvcurveto
          -134 12 -132 25 -119 vhcurveto
          6 -29 -18 -33 -45 -92 -39 10 rlinecurve
          -28 97 -11 127 129 vvcurveto
          141 13 144 16 112 vhcurveto
          -31 33 -104 43 -45 -13 -17 -12 -22 -113 -7 -20 rrcurveto
          16 -43 -55 11 -47 hhcurveto
          -94 -101 -33 -137 -6 -147 rrcurveto
          -109 vlineto
          -27 -66 -45 -96 -80 -33 -39 25 -14 57 -14 58 rrcurveto
          112 34 60 156 139 vvcurveto
          121 -45 76 -74 37 vhcurveto
          -2 2 0 0 2 vvcurveto
          -16 29 -19 36 -18 37 192 31 64 250 61 125 rrcurveto
          -293 -500 rmoveto
          -18 6 -19 2 -20 4 -25 80 rcurveline
          31 hlineto
          14 -35 19 -32 18 -25 rrcurveto
          endchar
        </CharString>
        <CharString name="four">
          65 -819 -21 811 86 -71 -21 1061 -20 hstemhm
          520 113 hintmask 10111000
          797 993 rmoveto
          -254 -448 -140 -92 -354 -414 rrcurveto
          20 callgsubr
          -15 -10 vvcurveto
          -18 12 -19 29 vhcurveto
          hintmask 11011000
          65 271 4 2 229 hvcurveto
          -39 -223 -39 -207 -37 -207 -6 -28 0 -35 -2 -31 rrcurveto
          -16 -16 -10 -17 33 callsubr
          23 82 8 123 51 4 vhcurveto
          16 215 39 211 39 211 rrcurveto
          123 hlineto
          82 49 37 41 23 -16 8 -33 hvcurveto
          -62 -8 -63 -4 -62 -5 46 242 43 248 10 266 rrcurveto
          19 76 callsubr
          vvcurveto
          12 -6 11 -11 6 vhcurveto
          19 28 16 29 19 33 rrcurveto
          33 -11 16 -22 -18 -23 -12 -21 -14 vhcurveto
          -398 -938 rmoveto
          -77 -76 0 2 -74 hvcurveto
          270 322 138 121 180 274 -33 -264 -35 -234 -35 -217 rrcurveto
          -4 -86 -88 0 -84 hhcurveto
          endchar
        </CharString>
        <CharString name="foursuperior">
          -283 961 -21 969 -20 hstem
          516 1901 rmoveto
          -221 -345 -100 -102 -51 vvcurveto
          88 callgsubr
          41 76 100 25 14 76 vhcurveto
          -49 -152 -66 -106 -51 -164 -3 callgsubr
          24 23 27 30 12 hvcurveto
          133 355 103 198 79 291 rrcurveto
          21 callsubr
          2 vvcurveto
          23 -22 6 -18 -21 -8 -14 -21 -6 vhcurveto
          -35 -112 -88 -213 -25 -33 -63 -12 -82 -7 -70 -12 103 143 67 121 86 113 rrcurveto
          12 14 5 15 12 vvcurveto
          20 -13 17 -20 -10 2 callsubr
          endchar
        </CharString>
        <CharString name="fraction">
          -220 -141 -21 2265 -20 hstem
          684 2103 rmoveto
          -868 -1798 -70 -145 -65 -160 -50 -106 rlinecurve
          -4 -9 0 -24 callsubr
          19 -10 20 21 26 10 25 13 vhcurveto
          188 414 231 510 197 -20 callsubr
          92 234 31 80 rrcurveto
          0 -2 0 2 vvcurveto
          10 10 6 14 11 vvcurveto
          22 -18 10 -37 vhcurveto
          endchar
        </CharString>
        <CharString name="g">
          -34 callgsubr
          125 117 221 213 67 hvcurveto
          -26 -113 -60 -260 -12 -59 rrcurveto
          -258 -215 -266 -119 4 callgsubr
          59 301 74 53 74 55 67 52 rlinecurve
          15 12 2 16 13 vvcurveto
          20 -15 14 -20 31 callgsubr
          -41 -33 -53 -51 -50 -35 58 262 63 312 -53 callgsubr
          -16 -72 -57 -197 rrcurveto
          -331 -99 -133 -158 -1 callsubr
          207 119 201 166 hvcurveto
          endchar
        </CharString>
        <CharString name="germandbls">
          24 -897 -21 902 94 1810 92 hstem
          782 111 170 104 vstem
          -49 -860 rmoveto
          119 639 135 837 233 605 rrcurveto
          225 86 158 442 315 hhcurveto
          41 25 -43 -35 -131 -356 -381 -193 -127 hvcurveto
          -16 hlineto
          -2 -12 -31 -16 rlineto
          -23 -17 -14 -24 -17 vvcurveto
          -16 10 -10 25 -2 vhcurveto
          4 45 39 4 45 hhcurveto
          141 49 -158 -168 -288 -65 -373 -326 -82 -18 59 60 -31 hvcurveto
          6 -8 -10 2 -9 hhcurveto
          -38 -29 -39 -39 -90 133 -53 66 389 139 395 385 149 -62 189 -206 53 hvcurveto
          245 197 297 377 135 vvcurveto
          86 -67 30 -78 -399 -160 -452 -307 -117 vhcurveto
          -137 -361 -143 -635 -46 -209 -63 -297 -49 -297 -53 -296 rrcurveto
          -2 -7 0 -4 -4 vvcurveto
          -20 10 -9 16 25 37 25 33 10 vhcurveto
          endchar
        </CharString>
        <CharString name="grave">
          -390 2132 -21 447 -20 hstem
          113 2494 -47 callsubr
          endchar
        </CharString>
        <CharString name="greater">
          -23 113 -21 803 -20 hstem
          549 883 rmoveto
          -4 4 rlineto
          -2 -2 0 2 hvcurveto
          -2 0 2 2 hvcurveto
          -2 -2 rlineto
          4 -7 -8 0 -6 hhcurveto
          -33 -32 -33 -37 hvcurveto
          -8 vlineto
          45 -72 41 -83 59 -62 35 -37 43 -28 37 -35 -97 -86 rcurveline
          -88 -80 -71 -96 -107 -62 rrcurveto
          -24 -14 -13 -27 -16 vvcurveto
          -15 8 -12 21 6 34 callgsubr
          vhcurveto
          82 45 68 60 66 67 49 49 178 148 14 31 rrcurveto
          6 12 85 callgsubr
          45 -59 21 -29 26 vhcurveto
          -77 70 -56 90 -53 90 rrcurveto
          endchar
        </CharString>
        <CharString name="guillemotleft">
          -289 248 -21 660 -20 hstem
          494 848 rmoveto
          -127 -217 -123 -72 -37 vvcurveto
          -16 12 -12 25 vhcurveto
          96 -62 67 -92 56 -98 rrcurveto
          -11 8 10 -4 10 hhcurveto
          31 37 33 35 49 -115 156 -100 61 hvcurveto
          82 76 59 104 56 90 rrcurveto
          21 12 -6 29 -29 hhcurveto
          -18 -25 -13 -20 -18 hvcurveto
          -119 12 rmoveto
          19 -10 8 -17 -37 -14 -31 -31 -31 vhcurveto
          -65 -77 -76 -84 -109 -97 rrcurveto
          -30 -22 -15 -13 -22 vvcurveto
          -8 6 -13 35 -16 vhcurveto
          74 -35 88 -125 16 -14 rrcurveto
          -12 13 -21 callgsubr
          34 17 17 28 11 -4 8 -11 8 hvcurveto
          -75 55 -35 56 -74 55 70 63 123 142 71 96 19 25 -2 8 6 14 rrcurveto
          endchar
        </CharString>
        <CharString name="guillemotright">
          -281 199 -21 742 -20 hstem
          70 96 vstem
          -100 215 rmoveto
          -27 14 -8 23 -2 vhcurveto
          67 12 53 86 47 39 rrcurveto
          156 127 111 74 57 78 -205 27 137 vvcurveto
          19 2 20 2 31 vhcurveto
          24 -12 11 -17 -41 -30 -43 -48 -94 12 -59 74 -60 vhcurveto
          34 -28 52 -10 24 -35 -4 -15 -174 -127 -31 -26 -57 -51 14 8 -57 -53 -25 -7 -28 -28 -4 -29 rrcurveto
          403 98 rmoveto
          76 105 254 67 80 vvcurveto
          8 -2 9 -10 8 vhcurveto
          -21 8 -164 145 -2 99 rrcurveto
          24 -12 11 -16 -29 -39 -29 -35 -4 vhcurveto
          -84 82 -131 78 -63 vhcurveto
          -97 -54 -102 -49 -66 -86 rrcurveto
          -6 -12 -2 -10 -9 vvcurveto
          -18 12 -8 17 16 21 8 16 16 vhcurveto
          endchar
        </CharString>
        <CharString name="guilsinglleft">
          -410 138 -21 631 -20 hstem
          385 723 rmoveto
          -20 -14 rlineto
          -306 -232 -73 -37 -51 vvcurveto
          -37 260 -235 51 37 43 20 31 6 -2 8 -8 6 vhcurveto
          -107 60 -55 80 -101 82 142 92 139 90 66 74 rrcurveto
          16 18 8 18 21 vvcurveto
          16 -12 9 -17 -14 -33 -11 -14 -14 vhcurveto
          endchar
        </CharString>
        <CharString name="guilsinglright">
          -597 134 -21 620 -20 hstem
          -8 154 rmoveto
          59 135 266 22 86 vvcurveto
          25 -14 12 -12 6 vhcurveto
          -6 15 -37 41 -4 8 -45 61 -35 66 -6 80 rrcurveto
          41 callsubr
          7 -111 57 -92 61 -80 -112 -47 -119 -68 -53 -116 rrcurveto
          -31 6 -10 20 21 28 16 25 17 vhcurveto
          endchar
        </CharString>
        <CharString name="h">
          1 5 20 callsubr
          936 102 952 -20 hstemhm
          741 105 hintmask 10111000
          471 1919 rmoveto
          -76 -465 -223 -973 -90 -440 -51 callgsubr
          hintmask 01111000
          -49 callgsubr
          53 235 185 891 41 205 35 callsubr
          endchar
        </CharString>
        <CharString name="hyphen">
          -65 callsubr
        </CharString>
        <CharString name="i">
          5 callsubr
          383 1376 rmoveto
          42 callgsubr
          38 -19 21 -40 hvcurveto
          -156 -379 -70 callgsubr
        </CharString>
        <CharString name="iacute">
          86 callsubr
          1644 -20 49 callsubr
          633 1560 -107 callgsubr
          -406 -563 -103 callgsubr
          endchar
        </CharString>
        <CharString name="icircumflex">
          86 callsubr
          1179 406 49 callsubr
          194 1174 -63 callsubr
          33 -177 -103 callgsubr
          endchar
        </CharString>
        <CharString name="idieresis">
          86 callsubr
          1225 -15 callgsubr
          63 167 225 168 hintmask 11011000
          227 997 -103 callgsubr
          234 249 -99 callgsubr
          hintmask 10111000
          -97 callgsubr
        </CharString>
        <CharString name="igrave">
          86 callsubr
          1663 -20 49 callsubr
          63 1579 -47 callsubr
          164 -582 -103 callgsubr
          endchar
        </CharString>
        <CharString name="j">
          -77 callsubr
        </CharString>
        <CharString name="k">
          -64 -20 96 -80 -21 975 94 930 -20 hstemhm
          580 104 hintmask 01111000
          -36 callgsubr
          58 201 10 86 5 3 rcurveline
          hintmask 10111000
          -131 25 155 -302 235 -11 callsubr
          -146 -154 181 203 -38 hvcurveto
          207 126 135 108 174 21 callgsubr
          114 519 41 219 rrcurveto
          98 19 -39 12 -43 hhcurveto
          -17 -14 -31 callgsubr
          -271 -137 -41 -33 hvcurveto
          endchar
        </CharString>
        <CharString name="k.alt">
          -207 -412 97 311 -21 975 94 hstem
          580 104 vstem
          -36 callgsubr
          39 160 11 86 rrcurveto
          -297 108 266 -484 381 hhcurveto
          107 250 52 79 19 -19 22 -20 -4 -6 -2 -2 -5 hvcurveto
          -49 -92 -90 -22 -112 hhcurveto
          -334 -217 409 346 -146 hvcurveto
          205 125 172 107 196 21 callgsubr
          112 519 43 219 rrcurveto
          114 21 -62 -4 -22 hhcurveto
          -15 -16 -31 callgsubr
          -267 -142 -45 -28 hvcurveto
          endchar
        </CharString>
        <CharString name="l">
          -422 -16 88 1906 -20 hstemhm
          92 92 -92 344 hintmask 11010000
          492 1978 rmoveto
          -21 -18 -8 -24 -7 hvcurveto
          -77 -357 -232 -1071 -39 -289 rrcurveto
          -4 -30 -2 -31 -27 vvcurveto
          -92 33 -65 135 59 117 30 62 20 -10 29 -35 vhcurveto
          -10 -86 -53 -35 hhcurveto
          hintmask 11100000
          -51 -25 37 45 39 27 129 2 18 hvcurveto
          123 645 94 422 105 498 rrcurveto
          26 vlineto
          21 -7 26 -36 vhcurveto
          endchar
        </CharString>
        <CharString name="less">
          -23 130 -21 911 -20 hstem
          799 1020 rmoveto
          -86 -35 -64 -84 -61 -72 rrcurveto
          2 2 3 2 vvcurveto
          -2 -10 -15 -4 -5 hvcurveto
          -114 -108 rlineto
          -64 -56 -129 -73 -91 vvcurveto
          -108 211 -211 45 -57 vhcurveto
          -2 6 7 -2 8 hhcurveto
          35 34 28 35 6 -2 46 callgsubr
          hvcurveto
          -28 37 -211 230 67 vvcurveto
          4 31 131 92 2 2 29 27 231 242 31 14 28 14 15 31 2 18 rrcurveto
          15 -11 10 -22 vhcurveto
          endchar
        </CharString>
        <CharString name="logicalnot">
          34 436 346 -94 94 -69 69 hstemhm
          hintmask 00100000
          131 713 rmoveto
          hintmask 01000000
          -2 223 213 -23 219 hhcurveto
          17 hlineto
          -25 -57 -28 -80 -25 -74 rrcurveto
          -4 -2 -4 -4 vvcurveto
          hintmask 10000000
          -21 12 -8 15 63 21 88 70 18 vhcurveto
          14 20 2 25 9 23 rrcurveto
          8 18 30 29 12 0 -2 2 2 vvcurveto
          7 10 rlineto
          2 8 2 7 6 vvcurveto
          18 -11 10 -20 vhcurveto
          -21 -22 -2 -25 hhcurveto
          hintmask 00100000
          -221 -213 23 2 -225 hvcurveto
          -37 -6 -33 -35 -27 vvcurveto
          -14 10 -10 25 -2 vhcurveto
          endchar
        </CharString>
        <CharString name="m">
          452 -8 -21 32 -21 958 102 13 -20 hstemhm
          385 383 0 119 hintmask 10100100
          283 965 rmoveto
          -43 -293 -56 -266 -41 -160 -26 -78 -11 -84 -22 -78 rrcurveto
          -2 34 callsubr
          vvcurveto
          -16 22 -13 27 76 59 252 66 29 vhcurveto
          213 92 193 438 145 hhcurveto
          31 12 -29 -47 -43 -12 -61 -19 -64 hvcurveto
          -67 -227 -99 -162 -39 -274 rrcurveto
          hintmask 01100100
          -31 3 14 -20 31 hhcurveto
          38 13 26 23 6 hvcurveto
          49 194 31 56 49 170 rrcurveto
          301 88 195 194 112 hhcurveto
          33 0 -28 -29 hvcurveto
          -18 -209 -80 -162 -60 -203 rrcurveto
          -18 -65 -35 -88 -80 vvcurveto
          -37 2 -63 45 35 25 41 32 vhcurveto
          36 314 170 278 275 vvcurveto
          71 -57 51 -51 -94 -115 -96 -35 -33 vhcurveto
          -22 -22 -21 -25 -18 -22 rrcurveto
          10 2 10 13 vvcurveto
          81 -53 84 -86 -244 -125 -387 -184 -90 vhcurveto
          51 215 rlineto
          hintmask 10011000
          25 105 18 106 2 107 rrcurveto
          16 vlineto
          24 -6 -12 11 -19 hhcurveto
          20 callgsubr
          -4 -11 hvcurveto
          -6 -7 -28 -26 4 -25 -4 -24 rlinecurve
          endchar
        </CharString>
        <CharString name="macron">
          749 2212 98 17 -20 hstemhm
          hintmask 10000000
          492 2245 rmoveto
          -33 67 74 0 235 hhcurveto
          -30 callgsubr
          -82 0 2 2 -82 hvcurveto
          -20 -21 -2 -20 hhcurveto
          hintmask 01000000
          -27 callgsubr
        </CharString>
        <CharString name="minus">
          -65 callsubr
        </CharString>
        <CharString name="mu">
          -25 -1112 -21 1117 -21 29 94 963 -20 hstem
          195 975 rmoveto
          -35 -172 -29 -197 -4 -172 -8 -45 -6 -47 -7 -45 3 6 6 47 2 4 -72 -483 -121 -483 -100 -478 rrcurveto
          -2 -6 0 -4 -4 vvcurveto
          -20 12 -9 14 25 37 25 33 10 vhcurveto
          86 391 86 387 78 391 rrcurveto
          -65 27 45 -37 63 hhcurveto
          43 47 16 37 58 hvcurveto
          45 29 55 82 55 110 -14 -92 -10 -92 -6 -90 rrcurveto
          -21 4 10 22 callgsubr
          29 37 27 30 4 hvcurveto
          18 191 37 197 29 190 6 49 rcurveline
          37 111 31 110 20 93 rrcurveto
          4 22 4 16 13 vvcurveto
          20 -8 10 -18 -76 -49 -147 -80 -17 vhcurveto
          -14 -70 -6 -71 -8 -66 -39 -110 -47 -109 -52 -100 rrcurveto
          -41 -20 -74 -162 -74 hhcurveto
          -145 12 289 69 hvcurveto
          7 vlineto
          27 186 25 188 36 189 rrcurveto
          24 -2 -12 11 -14 hhcurveto
          -23 -28 -21 -22 -17 hvcurveto
          -10 -9 -8 -12 -6 -10 rrcurveto
          endchar
        </CharString>
        <CharString name="multiply">
          -212 375 -21 625 -20 hstem
          670 973 rmoveto
          -105 -68 -96 -78 -92 -79 rrcurveto
          75 -41 -62 133 -22 hhcurveto
          -27 -28 -30 -35 hvcurveto
          -8 vlineto
          28 -70 45 -61 39 -62 -80 -69 -79 -68 -89 -61 rrcurveto
          -22 -17 -10 -20 -19 vvcurveto
          -18 14 -17 23 10 10 2 9 14 vhcurveto
          88 61 84 68 82 67 54 -94 55 -92 92 -64 rrcurveto
          -4 6 8 0 6 hhcurveto
          31 27 23 22 11 -6 12 -13 8 hvcurveto
          -86 57 -55 88 -51 91 96 77 96 78 105 66 rrcurveto
          14 14 8 17 16 vvcurveto
          24 -16 21 -27 -8 -10 -2 -4 -10 vhcurveto
          endchar
        </CharString>
        <CharString name="n">
          -85 callsubr
        </CharString>
        <CharString name="nbspace">
          -107 endchar
        </CharString>
        <CharString name="nine">
          -5 -881 86 795 94 832 98 hstem
          688 1024 rmoveto
          -246 -321 -100 -500 -70 hvcurveto
          -174 -24 90 -250 205 hhcurveto
          135 125 76 110 102 hvcurveto
          -446 -49 -191 -535 -350 hhcurveto
          -98 -111 17 237 -110 hvcurveto
          6 -8 -13 33 -10 hhcurveto
          -29 -28 -28 -31 -4 hvcurveto
          -6 0 -8 2 -7 vhcurveto
          -211 122 84 -88 211 hhcurveto
          566 55 818 458 108 hvcurveto
          80 150 50 168 133 vvcurveto
          35 6 53 -39 6 vhcurveto
          -17 2 rlineto
          55 -53 -94 27 -76 hhcurveto
          41 -635 rmoveto
          -160 -94 -135 -135 -150 hhcurveto
          -192 -31 201 113 16 hvcurveto
          432 62 248 86 223 hhcurveto
          49 66 -17 -35 36 hvcurveto
          -45 -165 -8 -160 -45 -160 rrcurveto
          endchar
        </CharString>
        <CharString name="noBreak">
          -957 endchar
        </CharString>
        <CharString name="nonmarkingreturn">
          -957 endchar
        </CharString>
        <CharString name="ntilde">
          -44 -195 -913 110 196 endchar
        </CharString>
        <CharString name="numbersign">
          454 144 -21 555 94 -39 105 286 97 503 -20 hstemhm
          hintmask 11011000
          43 678 rmoveto
          111 4 106 29 109 14 -23 -78 -20 -78 -19 -75 rrcurveto
          -26 -107 -33 -111 -106 vvcurveto
          -31 18 -12 17 24 31 25 32 4 vhcurveto
          2 107 31 100 24 101 rrcurveto
          hintmask 10111000
          21 79 20 82 23 80 104 8 105 2 104 2 -37 -208 -34 -203 -54 -170 -12 callgsubr
          54 170 34 203 35 208 rrcurveto
          17 hlineto
          121 120 -2 121 37 callsubr
          -121 -121 2 -121 hhcurveto
          -14 hlineto
          16 98 19 100 18 99 rrcurveto
          -7 127 129 -6 127 hhcurveto
          67 70 9 57 51 callsubr
          hvcurveto
          -4 -51 -51 0 -51 hhcurveto
          -105 -102 4 6 -105 hvcurveto
          33 147 41 140 53 120 rrcurveto
          33 -10 17 -22 -19 -22 -13 -20 -15 vhcurveto
          -55 -125 -39 -144 -35 -151 rrcurveto
          2 -59 -57 2 -60 -33 -32 -2 -33 hhcurveto
          26 152 -6 100 31 133 12 10 11 15 2 18 rrcurveto
          33 -9 26 -36 -93 -14 -299 -194 -24 vhcurveto
          -37 -4 -39 -4 -37 -6 -90 -15 -180 4 -35 -106 rrcurveto
          -29 2 14 -12 19 hhcurveto
          12 14 6 10 12 hvcurveto
          60 25 65 6 64 12 47 8 47 7 47 4 rrcurveto
          -7 -2 -4 -4 vvcurveto
          -24 -100 -29 -102 -27 -101 rrcurveto
          hintmask 11011000
          -112 -12 -111 -29 -115 -6 rrcurveto
          -32 -2 -25 -35 -22 vvcurveto
          -19 64 callgsubr
          vhcurveto
          524 444 rmoveto
          4 19 rlineto
          2 33 35 0 35 hhcurveto
          57 57 -2 -2 58 hvcurveto
          -19 -99 -18 -100 -16 -100 -101 -2 -100 -2 -103 -7 27 97 27 98 24 98 rrcurveto
          endchar
        </CharString>
        <CharString name="o">
          -69 callsubr
        </CharString>
        <CharString name="oacute">
          14 callgsubr
          640 -20 -86 callgsubr
          302 670 -107 callsubr
        </CharString>
        <CharString name="ocircumflex">
          -177 -158 -913 111 53 callgsubr
        </CharString>
        <CharString name="odieresis">
          -177 -31 -913 111 200 endchar
        </CharString>
        <CharString name="oe">
          173 -18 92 -92 186 -167 -21 960 107 hstemhm
          47 92 871 94 hintmask 01011100
          637 -65 callgsubr
          -104 -96 -77 -116 -74 vhcurveto
          104 -18 -49 76 -114 hhcurveto
          -44 callsubr
          49 -155 158 114 97 89 123 75 hvcurveto
          hintmask 00111100
          -128 17 55 -86 107 hhcurveto
          125 176 96 55 hvcurveto
          hintmask 01011100
          21 -12 16 -23 vhcurveto
          hintmask 10011100
          -58 callgsubr
          -123 547 -3 callsubr
          -43 -5 -46 -7 -46 hvcurveto
          -18 -54 -14 -57 -10 -57 rrcurveto
          -206 -67 -119 -179 -94 hhcurveto
          -73 -58 84 123 247 164 14 callsubr
          436 10 rmoveto
          29 31 -22 -58 -228 -186 -61 -157 -82 hvcurveto
          13 48 10 47 6 44 rrcurveto
          138 55 98 174 101 hhcurveto
          endchar
        </CharString>
        <CharString name="ograve">
          -177 231 -915 111 53 callsubr
        </CharString>
        <CharString name="one">
          -224 0 72 -71 -21 31 20 callsubr
          1044 -20 hstemhm
          hintmask 10001000
          104 440 rmoveto
          91 88 65 80 53 80 -47 -162 -24 -94 -35 -348 rrcurveto
          -6 -88 -58 -6 -139 hhcurveto
          -22 -2 -41 -15 hvcurveto
          hintmask 01001000
          -20 14 -16 22 vhcurveto
          hintmask 00011000
          11 10 4 8 14 hvcurveto
          hintmask 10001000
          209 -6 8 283 hhcurveto
          hintmask 00101000
          73 -6 -10 74 hhcurveto
          33 28 35 26 17 -10 14 -24 6 hvcurveto
          4 -56 -10 0 -14 hhcurveto
          -109 -76 -2 -2 -59 hvcurveto
          23 252 65 326 78 290 4 7 rcurveline
          -2 hlineto
          6 20 rlineto
          2 8 0 6 7 vvcurveto
          20 -10 12 -16 -70 -62 -207 -112 -84 vhcurveto
          -63 -84 -25 -31 -100 -102 rrcurveto
          -8 -13 -4 -12 -10 17 callgsubr
          12 vhcurveto
          endchar
        </CharString>
        <CharString name="onehalf">
          440 -141 -21 182 263 983 92 745 -20 hstem
          981 317 vstem
          0 callgsubr
          -66 -137 -73 -133 -64 -137 rlinecurve
          -264 -578 -68 -145 -67 -79 callgsubr
          -10 -1349 rmoveto
          -33 -90 -90 -226 -131 -159 57 callsubr
          -99 -73 -23 13 -29 30 6 7 2 2 10 hvcurveto
          39 21 39 29 37 34 rrcurveto
          -77 57 74 -50 106 hhcurveto
          43 55 25 43 12 -8 11 41 callgsubr
          24 -37 hvcurveto
          -30 19 71 callgsubr
          176 43 82 rrcurveto
          27 53 24 53 45 vvcurveto
          45 -24 57 callgsubr
          -18 23 28 31 28 31 6 vhcurveto
          33 31 45 29 39 6 rrcurveto
          -962 479 -74 callsubr
        </CharString>
        <CharString name="onequarter">
          77 callsubr
          1293 92 745 -20 hstem
          -67 callsubr
          -90 -1169 -89 callsubr
          -882 299 -74 callsubr
        </CharString>
        <CharString name="onesuperior">
          -377 1096 -21 37 92 697 -20 hstem
          121 1079 rmoveto
          25 51 57 8 60 63 62 -16 51 hhcurveto
          37 39 37 28 39 -138 4 -71 hvcurveto
          -2 hlineto
          67 219 52 224 47 219 rrcurveto
          24 -13 11 -14 -25 -22 -19 -4 callgsubr
          -67 -45 -109 -92 -20 rrcurveto
          -31 -13 -22 -30 -23 vvcurveto
          -14 8 -10 25 -2 vhcurveto
          61 12 53 37 45 45 -35 -152 -38 -153 -43 -150 rrcurveto
          -82 -12 -88 -27 -57 vvcurveto
          -15 10 -12 20 6 9 2 2 8 vhcurveto
          endchar
        </CharString>
        <CharString name="ordfeminine">
          -382 1247 99 -96 -21 385 96 193 94 hstemhm
          158 92 -92 368 -47 94 hintmask 10111010
          233 1823 rmoveto
          49 13 69 31 62 hhcurveto
          72 30 -35 -82 -25 -2 -24 -4 -27 hvcurveto
          -2 hlineto
          -152 -161 -129 -137 -131 71 -66 107 35 55 15 26 39 hvcurveto
          hintmask 01110100
          -37 27 38 -22 60 hhcurveto
          33 30 28 27 hvcurveto
          68 -127 -64 150 vvcurveto
          hintmask 10111010
          121 47 112 135 vvcurveto
          136 -69 55 -96 -91 -104 -49 -56 -47 vhcurveto
          -14 -16 -5 -31 -6 -22 -12 callgsubr
          197 -406 rmoveto
          -16 0 -15 2 -14 vhcurveto
          -2 -2 rlineto
          -20 -27 -43 -4 -20 hhcurveto
          -61 -29 38 52 77 69 101 121 hvcurveto
          15 hlineto
          -13 -68 -12 -67 -62 vvcurveto
          endchar
        </CharString>
        <CharString name="ordmasculine">
          -433 1085 95 682 -20 hstem
          98 95 319 78 vstem
          510 1862 rmoveto
          -201 -17 -211 -358 -234 vvcurveto
          -88 62 -80 73 279 78 369 301 vhcurveto
          16 10 15 19 18 vvcurveto
          43 -80 17 -31 vhcurveto
          2 -142 rmoveto
          -233 -70 -307 -188 -49 -12 57 37 209 139 219 160 65 vhcurveto
          2 4 0 -2 4 hvcurveto
          endchar
        </CharString>
        <CharString name="oslash">
          -183 -40 -21 43 92 979 -20 hstem
          53 92 465 101 vstem
          711 748 rmoveto
          118 -23 104 -77 43 vhcurveto
          1 4 0 3 4 vvcurveto
          16 -10 13 -22 vhcurveto
          -13 hlineto
          -13 -2 -10 -8 -8 -10 rrcurveto
          1 -5 -4 0 -5 hhcurveto
          -37 callgsubr
          -106 22 -104 63 -57 hvcurveto
          -10 -26 -6 -21 1 -12 rrcurveto
          -20 14 -8 15 19 18 20 30 18 vhcurveto
          -5 16 18 -2 19 hhcurveto
          272 179 510 256 hvcurveto
          -408 -517 rmoveto
          47 123 47 125 45 103 66 149 rcurveline
          40 94 8 10 18 85 rrcurveto
          28 -27 8 -55 -76 vvcurveto
          -291 -194 -397 -140 -10 -10 1 3 -9 vhcurveto
          20 52 18 56 18 45 rrcurveto
          182 654 rmoveto
          -59 -185 -37 -43 -55 -143 -123 -317 rcurveline
          -8 -20 -9 -23 -11 -23 rrcurveto
          -24 36 -14 52 62 vvcurveto
          238 153 392 200 27 vhcurveto
          -5 -21 -4 -19 -4 -13 rrcurveto
          endchar
        </CharString>
        <CharString name="otilde">
          14 callgsubr
          203 1 callsubr
          61 93 464 101 hintmask 11101110
          -97 callsubr
          -147 340 -61 callgsubr
          hintmask 11010110
          -61 callsubr
          hintmask 11101110
          -81 callsubr
        </CharString>
        <CharString name="p">
          -85 callgsubr
        </CharString>
        <CharString name="paragraph">
          141 -378 -21 2347 88 hstem
          55 88 vstem
          1374 2011 rmoveto
          9 -130 -150 16 -152 hhcurveto
          -130 -131 -12 -37 -122 hvcurveto
          -256 -78 -248 -166 -266 vvcurveto
          -172 191 -129 164 vhcurveto
          -50 -277 -120 -606 -76 -373 rrcurveto
          -8 -39 -47 -164 -71 vvcurveto
          -35 16 -6 16 31 37 33 34 vhcurveto
          31 154 79 395 130 643 51 312 rlinecurve
          39 14 32 24 31 43 callgsubr
          -29 -6 33 180 39 192 59 289 rlinecurve
          13 78 75 6 73 hhcurveto
          44 44 -2 -4 43 hvcurveto
          -203 -951 -25 -395 -227 -952 63 callsubr
          -7 -2 vvcurveto
          -20 12 -10 14 25 35 24 33 12 vhcurveto
          227 944 25 397 199 936 82 -8 82 -8 79 -2 rrcurveto
          33 8 31 69 callsubr
          -952 -745 rmoveto
          -121 28 -158 15 186 vvcurveto
          188 226 170 178 50 vhcurveto
          -58 -273 -34 -190 -33 -174 rrcurveto
          endchar
        </CharString>
        <CharString name="parenleft">
          -375 -600 -21 2620 -20 hstem
          106 101 vstem
          707 1892 rmoveto
          -168 -163 -140 -234 -88 -203 rrcurveto
          -135 -309 -70 -342 -324 vvcurveto
          -258 44 -247 86 -211 vhcurveto
          -64 26 78 -158 35 hhcurveto
          31 34 33 35 4 0 46 callgsubr
          hvcurveto
          -35 68 -43 63 -28 70 rrcurveto
          -84 205 -41 237 250 vvcurveto
          504 162 537 350 399 vhcurveto
          53 62 115 59 57 vvcurveto
          17 -10 8 -15 -10 -12 -4 -6 -11 vhcurveto
          -16 -98 -86 -11 -8 hvcurveto
          endchar
        </CharString>
        <CharString name="parenright">
          -402 -524 -21 2530 -20 hstem
          440 103 vstem
          303 1919 rmoveto
          6 -94 37 -88 27 -86 rrcurveto
          43 -138 24 -104 -174 vvcurveto
          -471 -250 -678 -374 -371 vhcurveto
          -66 -63 -170 -119 -51 vvcurveto
          -17 10 -10 19 10 14 4 9 15 vhcurveto
          250 221 -54 -58 219 248 rrcurveto
          250 285 230 690 383 vvcurveto
          113 -19 112 -14 109 vhcurveto
          -18 137 -78 115 -13 139 rrcurveto
          16 -6 -12 7 -12 hhcurveto
          -27 -35 -33 -33 -6 hvcurveto
          endchar
        </CharString>
        <CharString name="percent">
          71 -96 -21 109 90 -16 370 -96 96 1084 100 207 90 31 -20 hstemhm
          94 94 220 96 45 94 244 88 hintmask 1101111111100000
          844 1931 rmoveto
          -105 -192 -116 -369 -76 -205 -154 -413 -151 -404 -127 -424 -66 callgsubr
          127 418 143 399 156 408 65 174 109 408 106 153 rrcurveto
          -29 callsubr
          -4 -13 -14 vhcurveto
          -557 -411 rmoveto
          143 74 79 121 117 -84 80 -111 -121 -94 -88 -141 -105 105 -63 88 hvcurveto
          397 -1373 rmoveto
          -29 21 -12 29 26 vvcurveto
          58 51 59 68 69 56 -88 -74 -65 -43 -31 -45 vhcurveto
          -23 -22 4 -25 hhcurveto
          -33 -4 -24 -31 -24 vvcurveto
          -33 33 -2 59 110 101 49 158 118 -76 119 -133 -119 -98 -123 -112 vhcurveto
          hintmask 1010111111100000
          -41 24 -94 62 31 26 24 29 -14 callgsubr
          10 vhcurveto
          -496 1563 rmoveto
          66 43 51 68 78 31 -47 -68 -55 -31 -37 -84 -66 -39 22 68 vhcurveto
          endchar
        </CharString>
        <CharString name="period">
          -701 -25 162 -149 -21 hstemhm
          -78 195 hintmask 10100000
          82 113 rmoveto
          16 -21 -20 8 -23 hhcurveto
          -49 -47 -43 -51 -31 17 -37 43 hvcurveto
          8 hlineto
          hintmask 01100000
          -6 14 12 -2 13 hhcurveto
          51 37 35 43 23 -11 22 -24 23 hvcurveto
          endchar
        </CharString>
        <CharString name="periodcentered">
          -48 586 264 hstem
          326 266 vstem
          424 586 rmoveto
          76 92 84 73 74 -78 33 -49 -70 -69 -43 -62 -69 20 -90 78 hvcurveto
          endchar
        </CharString>
        <CharString name="plus">
          -54 320 -21 745 -20 hstem
          424 106 vstem
          96 647 rmoveto
          -4 -4 -2 -10 -6 vvcurveto
          -19 10 -12 25 35 53 20 15 35 vhcurveto
          18 94 27 6 12 hhcurveto
          -12 -59 -29 -131 -84 vvcurveto
          -49 10 -33 25 39 20 35 37 8 vhcurveto
          28 vlineto
          86 15 86 16 86 vhcurveto
          268 -22 rlineto
          29 8 35 69 callsubr
          -2 -22 -21 -2 -18 -78 -47 20 -86 hhcurveto
          -15 hlineto
          13 72 28 66 100 vvcurveto
          35 -10 26 -28 -43 -25 -47 -39 vhcurveto
          -45 vlineto
          -18 0 -16 -4 -19 vhcurveto
          -14 -61 -5 -19 -4 -20 -2 -19 rlinecurve
          -16 hlineto
          -66 -4 -67 -14 -66 -31 rrcurveto
          2 -2 -6 2 -4 hhcurveto
          -23 -32 -20 -29 -17 hvcurveto
          endchar
        </CharString>
        <CharString name="plusminus">
          -93 35 -21 68 92 836 -20 hstem
          453 106 vstem
          125 612 rmoveto
          -2 -6 -8 -8 vvcurveto
          -21 12 -12 25 34 54 21 14 32 vhcurveto
          18 95 26 7 13 hhcurveto
          -13 -60 -28 -131 -84 vvcurveto
          -49 10 -33 24 39 23 35 37 6 vhcurveto
          29 vlineto
          86 14 86 17 86 vhcurveto
          270 -23 rlineto
          33 8 29 35 25 vvcurveto
          12 -9 8 -18 6 vhcurveto
          -2 -23 -20 -2 -19 -79 -48 21 -86 hhcurveto
          -14 hlineto
          8 34 6 37 7 35 rrcurveto
          4 29 16 57 43 vvcurveto
          35 -10 29 -29 -43 -24 -47 -39 vhcurveto
          -45 vlineto
          -19 0 -16 -4 -19 vhcurveto
          -13 -61 -4 -19 -4 -20 -2 -18 rlinecurve
          -16 hlineto
          -68 -5 -68 -14 -63 -31 rrcurveto
          2 -4 -6 3 -4 hhcurveto
          -23 -33 -21 -29 -16 hvcurveto
          -39 -594 rmoveto
          52 94 119 12 117 hhcurveto
          106 105 -10 -2 86 hvcurveto
          30 10 31 31 24 43 callgsubr
          2 -95 -102 8 -102 hhcurveto
          -113 -301 -24 -109 -14 8 -13 20 7 34 callgsubr
          hvcurveto
          endchar
        </CharString>
        <CharString name="q">
          -193 -823 -21 828 100 866 94 hstem
          61 93 vstem
          682 752 rmoveto
          155 -80 137 -123 -334 -84 -602 -243 -129 52 -86 88 166 53 190 109 72 vhcurveto
          -107 -500 -10 -39 -101 -530 rrcurveto
          -2 -9 -2 -6 -6 vvcurveto
          -24 21 -13 20 23 22 15 26 6 vhcurveto
          107 492 190 886 3 127 10 19 8 12 2 19 rrcurveto
          -109 61 rmoveto
          -24 -49 10 -80 -18 -53 rrcurveto
          -201 -72 -174 -346 -78 hhcurveto
          -57 -6 84 57 170 100 555 225 60 24 -55 -76 17 hvcurveto
          endchar
        </CharString>
        <CharString name="question">
          -44 -16 -21 1931 97 hstem
          61 86 93 186 371 96 vstem
          174 1505 rmoveto
          -24 80 -3 8 23 vvcurveto
          176 193 102 197 118 142 -51 -266 -311 -314 -226 -84 -280 vhcurveto
          -30 -105 -21 -120 -33 -181 24 callgsubr
          31 25 33 4 hvcurveto
          51 387 53 84 78 123 rrcurveto
          145 229 156 92 293 vvcurveto
          311 -172 103 -176 -193 -291 -107 -260 -145 52 -31 39 16 12 4 21 8 -2 10 -4 14 vhcurveto
          238 -1468 rmoveto
          8 26 6 23 20 vvcurveto
          46 -29 20 -35 -51 -71 -43 -80 -63 47 -23 47 vhcurveto
          37 12 24 29 17 33 rrcurveto
          endchar
        </CharString>
        <CharString name="questiondown">
          -476 -1016 97 1931 -20 hstem
          -252 96 371 186 93 86 vstem
          467 -530 rmoveto
          24 -80 3 -8 -23 vvcurveto
          -176 -193 -102 -197 -118 -142 51 266 311 314 226 84 280 vhcurveto
          30 105 21 120 33 181 rrcurveto
          30 -2 -15 13 -18 hhcurveto
          -25 -31 -25 -33 -4 hvcurveto
          -51 -387 -53 -84 -78 -123 rrcurveto
          -145 -229 -156 -92 -293 vvcurveto
          -311 172 -103 176 193 291 107 260 145 -52 31 -39 -16 -12 -4 -21 -8 2 -10 4 -14 vhcurveto
          -238 1468 rmoveto
          -8 -26 -6 -23 -20 vvcurveto
          -46 29 -20 35 51 71 43 80 63 -47 23 -47 vhcurveto
          -37 -12 -24 -29 -17 -33 rrcurveto
          endchar
        </CharString>
        <CharString name="quotedbl">
          -425 1653 366 -358 -21 hstemhm
          hintmask 01000000
          313 1978 rmoveto
          -39 -88 -49 -112 -99 vvcurveto
          -26 15 -13 20 21 32 19 31 6 vhcurveto
          19 98 27 90 41 90 rrcurveto
          2 8 0 6 7 vvcurveto
          hintmask 10000000
          20 -15 10 -16 -23 -28 -14 -27 -13 vhcurveto
          209 9 rmoveto
          -51 -84 -53 -111 -102 vvcurveto
          -23 12 -14 23 82 -25 151 156 98 vhcurveto
          2 6 0 6 4 vvcurveto
          25 -16 10 -19 -18 -20 -8 -16 -15 vhcurveto
          endchar
        </CharString>
        <CharString name="quotedblbase">
          -252 -241 -21 266 221 -210 -21 235 -20 hstemhm
          -78 283 129 231 hintmask 11001100
          371 -203 rmoveto
          -22 16 -15 21 90 67 234 53 103 -33 75 -98 -55 -45 -47 -43 -55 24 -76 62 18 19 8 15 14 vhcurveto
          -6 -101 -94 -80 -49 vvcurveto
          -381 13 15 callsubr
          vhcurveto
          hintmask 10111100
          -23 callsubr
        </CharString>
        <CharString name="quotedblleft">
          -144 1745 -21 578 -20 hstemhm
          295 235 88 93 -93 248 hintmask 11110000
          498 2253 rmoveto
          33 -11 16 -22 -64 -106 -242 -147 -98 29 -91 92 76 38 70 78 57 -32 53 -41 -19 -37 -14 -8 -18 vhcurveto
          4 65 96 189 15 39 rrcurveto
          213 -285 rmoveto
          103 55 73 59 74 vhcurveto
          6 10 3 10 11 vvcurveto
          20 -17 12 13 callgsubr
          -80 -98 -58 69 callgsubr
          vhcurveto
          hintmask 11101000
          79 callgsubr
          -20 -35 -11 -6 -12 hvcurveto
          hintmask 11110000
          80 callgsubr
        </CharString>
        <CharString name="quotedblright">
          -126 1442 -21 344 232 hstemhm
          295 219 104 267 -97 97 hintmask 11101000
          309 1493 rmoveto
          -8 -10 -4 -13 -12 33 callsubr
          25 98 82 256 133 vhcurveto
          142 -8 -27 45 -47 hhcurveto
          -57 -80 -51 -80 -49 43 -52 59 9 34 callgsubr
          hvcurveto
          -4 -108 -43 -113 -66 -55 rrcurveto
          479 279 rmoveto
          -130 -38 -57 -78 -61 vhcurveto
          -17 -15 -8 -16 -14 vvcurveto
          -25 19 -12 20 10 13 4 8 10 vhcurveto
          100 84 66 123 127 vvcurveto
          51 -19 137 -61 vhcurveto
          -23 -14 11 -18 hhcurveto
          hintmask 11110000
          -60 -72 -64 -68 -38 58 -45 41 18 21 8 22 28 hvcurveto
          endchar
        </CharString>
        <CharString name="quoteleft">
          -468 1762 -21 540 -20 hstemhm
          295 92 -92 248 hintmask 11010000
          387 1968 rmoveto
          103 55 73 60 74 vhcurveto
          -13 callgsubr
          10 11 vvcurveto
          20 -16 12 -21 31 callgsubr
          -80 -98 -57 69 callgsubr
          79 callgsubr
          -21 -35 -11 -6 -12 vhcurveto
          hintmask 11100000
          80 callgsubr
        </CharString>
        <CharString name="quoteright">
          -449 1463 -21 545 -20 hstem
          295 266 vstem
          465 1772 rmoveto
          -130 -39 -57 -78 -61 vhcurveto
          -16 -15 -8 -16 -14 vvcurveto
          -25 18 -12 20 11 12 4 8 10 vhcurveto
          101 84 65 123 127 vvcurveto
          51 -18 137 -62 vhcurveto
          -22 -15 11 -18 hhcurveto
          -59 -72 -64 -68 -38 57 -45 41 19 20 8 22 29 hvcurveto
          endchar
        </CharString>
        <CharString name="quotesinglbase">
          -613 -241 -21 256 235 hstem
          -78 283 vstem
          -10 -190 15 callsubr
          -23 callsubr
        </CharString>
        <CharString name="quotesingle">
          -668 1655 -21 420 -20 hstem
          276 2021 rmoveto
          -40 -100 -11 -135 -109 vvcurveto
          54 callgsubr
          23 190 2 72 21 51 rrcurveto
          2 4 0 6 4 vvcurveto
          21 -17 14 -18 60 callgsubr
          endchar
        </CharString>
        <CharString name="r">
          -230 -12 -21 967 102 17 -20 hstemhm
          hintmask 11000000
          274 958 rmoveto
          -92 -321 43 86 -141 -705 rrcurveto
          -4 -2 2 -12 vvcurveto
          -29 12 -8 17 77 21 203 35 8 vhcurveto
          43 184 74 213 102 152 rrcurveto
          145 99 90 35 20 23 24 -21 23 hhcurveto
          28 29 25 29 49 -84 20 -33 -163 -134 -254 -94 -57 hvcurveto
          31 160 43 76 67 vvcurveto
          hintmask 10100000
          33 -10 29 -33 -33 -27 -37 -39 -8 0 -4 2 -7 vhcurveto
          endchar
        </CharString>
        <CharString name="registered">
          128 1024 94 99 94 368 97 86 100 hstem
          158 100 225 111 180 98 199 96 vstem
          1022 1866 rmoveto
          41 -72 -71 55 -91 hhcurveto
          -233 -199 -166 -143 -125 hvcurveto
          -49 -58 -24 -75 -82 vvcurveto
          -238 198 -176 232 258 321 190 277 158 -77 92 -62 55 vhcurveto
          10 8 6 15 12 vvcurveto
          12 -6 12 -16 11 vhcurveto
          -504 -129 rmoveto
          -26 -64 -9 -80 -77 vvcurveto
          -211 17 -91 37 51 callgsubr
          vhcurveto
          -4 121 rlineto
          -123 63 144 -53 84 hhcurveto
          16 16 2 4 15 hvcurveto
          -66 -86 -115 -39 -106 hhcurveto
          -242 -123 203 125 219 264 197 228 67 41 -19 -22 41 hvcurveto
          57 -140 115 -32 -166 vvcurveto
          -88 -39 -78 -61 -60 vhcurveto
          2 7 2 6 8 vvcurveto
          51 callsubr
          vhcurveto
          -2 -12 -10 0 -11 hhcurveto
          -112 -105 59 74 -74 hvcurveto
          70 55 186 -26 161 vvcurveto
          113 -159 25 -95 4 vhcurveto
          2 -4 -6 0 -4 hhcurveto
          -12 -8 -4 -5 -11 hvcurveto
          -18 -23 -12 -20 -14 hvcurveto
          55 -191 rmoveto
          45 5 45 12 43 vhcurveto
          119 65 -8 -55 -39 -123 -23 -78 -41 hvcurveto
          endchar
        </CharString>
        <CharString name="ring">
          405 2068 82 callgsubr
          518 96 -96 356 hintmask 11010000
          676 2417 rmoveto
          -49 callsubr
          vhcurveto
          hintmask 11100000
          -13 callsubr
        </CharString>
        <CharString name="s">
          -324 15 -21 962 103 hstemhm
          184 65 callsubr
          387 -35 callsubr
          -21 55 callsubr
          37 -52 callsubr
        </CharString>
        <CharString name="section">
          114 -424 100 2585 86 hstemhm
          201 108 10 99 241 103 65 97 -4 100 hintmask 11111100
          201 1200 rmoveto
          -326 458 -272 -362 vvcurveto
          -312 -319 -252 -281 -143 -190 58 129 -43 vhcurveto
          16 -7 -10 90 callgsubr
          -35 -33 -41 -39 hvcurveto
          -151 54 219 -78 161 hhcurveto
          304 438 219 449 217 -152 201 -127 186 hvcurveto
          131 4 310 133 236 vvcurveto
          213 -340 239 -82 144 vhcurveto
          -39 65 -45 86 84 vvcurveto
          115 18 94 146 vhcurveto
          hintmask 11111010
          188 150 -131 -164 -37 -7 -43 -2 -61 hvcurveto
          -21 4 11 22 callgsubr
          86 -6 135 80 174 -205 162 -197 -126 -173 -61 -213 -172 97 -129 108 -119 hvcurveto
          -180 -92 -143 -72 -289 vvcurveto
          hintmask 11111100
          626 2 rmoveto
          -186 -335 -25 -39 -98 vhcurveto
          -80 121 -64 112 111 vvcurveto
          195 101 63 196 74 vhcurveto
          115 -117 106 -113 -137 vvcurveto
          endchar
        </CharString>
        <CharString name="semicolon">
          -451 -296 -21 301 186 530 228 hstemhm
          -25 220 -27 215 hintmask 11110000
          -55 -246 rmoveto
          -8 -14 -5 -10 -11 vvcurveto
          -22 17 -14 20 82 111 258 47 18 vhcurveto
          8 24 7 19 22 vvcurveto
          60 -52 57 -43 -59 -66 -68 -55 -18 15 -45 41 28 29 22 25 6 vhcurveto
          -2 vlineto
          -82 -114 -150 -35 -43 vhcurveto
          321 951 rmoveto
          hintmask 11101000
          58 59 59 61 60 -59 43 -60 -51 -45 -39 -64 -34 16 -91 37 8 9 2 5 6 hvcurveto
          -2 8 8 0 6 hhcurveto
          endchar
        </CharString>
        <CharString name="seven">
          14 -837 -21 862 80 -79 -21 35 20 callsubr
          922 102 6 -20 hstemhm
          hintmask 11000100
          260 930 rmoveto
          242 -58 -8 334 hhcurveto
          -12 -33 -21 -25 -10 -18 -141 -246 -109 -268 -88 -250 rrcurveto
          -78 -83 2 -160 hhcurveto
          -17 -12 -8 -19 -16 vvcurveto
          hintmask 10001100
          88 callgsubr
          23 vhcurveto
          hintmask 11000100
          6 8 2 2 9 hvcurveto
          hintmask 10010100
          -6 92 63 0 49 hhcurveto
          54 hlineto
          -111 -324 -78 -280 -72 -131 rrcurveto
          -24 -6 -8 -35 -29 vvcurveto
          4 -22 8 -23 12 -4 23 -2 rlinecurve
          37 6 24 33 17 41 rrcurveto
          hintmask 10001100
          47 114 96 322 127 342 rrcurveto
          6 hlineto
          hintmask 10100100
          57 72 -2 -14 133 hvcurveto
          35 29 28 29 16 -10 21 -25 hvcurveto
          -268 hlineto
          104 282 123 287 129 197 rrcurveto
          23 35 8 41 30 vvcurveto
          39 -21 35 -45 vhcurveto
          hintmask 11000010
          -172 -319 6 -138 hhcurveto
          -102 -45 -10 -57 -50 35 -14 28 hvcurveto
          66 41 31 47 hhcurveto
          endchar
        </CharString>
        <CharString name="six">
          169 -20 86 917 98 813 93 hstem
          96 105 667 93 vstem
          1186 1702 rmoveto
          190 -82 -78 95 -217 hhcurveto
          -506 -174 -1119 -315 -29 hvcurveto
          -2 -33 -2 -31 -28 vvcurveto
          -281 119 -200 221 365 160 339 334 262 -119 166 -178 -172 -164 -114 -154 -103 vhcurveto
          494 70 215 587 293 hhcurveto
          153 54 -30 -222 86 hvcurveto
          -12 4 20 -2 13 hhcurveto
          26 31 17 30 2 hvcurveto
          8 -2 9 -4 10 vhcurveto
          -985 -1206 rmoveto
          313 28 250 174 146 hhcurveto
          129 114 -84 -242 -266 -110 -325 -316 -186 -55 217 211 hvcurveto
          endchar
        </CharString>
        <CharString name="slash">
          -142 -899 -21 3009 -20 hstem
          985 2089 rmoveto
          -115 -18 -18 -291 -33 -90 -69 -185 -88 -178 -80 -182 -99 -227 -100 -226 -92 -231 -185 -459 rcurveline
          -92 -229 -149 -408 -96 -229 rrcurveto
          -2 -8 -3 62 callsubr
          17 -11 18 21 26 13 26 11 vhcurveto
          184 459 242 641 190 455 109 258 114 252 113 254 45 102 45 107 35 106 27 84 -5 86 41 78 rrcurveto
          23 14 14 23 20 vvcurveto
          17 -12 14 -25 vhcurveto
          endchar
        </CharString>
        <CharString name="space">
          -107 endchar
        </CharString>
        <CharString name="sterling">
          120 -55 96 -96 190 -166 72 278 97 415 97 1046 -20 hstemhm
          -88 92 hintmask 01011110
          1169 1706 rmoveto
          88 -14 -151 180 -107 hhcurveto
          -125 -57 -188 -84 -37 hvcurveto
          -37 -80 -2 -57 -25 -86 -45 -160 -37 -160 -32 -162 -60 13 rcurveline
          12 -63 -58 16 -53 hhcurveto
          -41 -110 -24 -88 -23 16 -12 21 16 74 callsubr
          13 hvcurveto
          29 18 31 -2 31 hhcurveto
          67 66 -20 -23 67 hvcurveto
          -49 -235 -24 -107 -13 -100 -28 -99 rlinecurve
          33 -72 -74 25 -84 hhcurveto
          -121 -102 -152 -129 hvcurveto
          hintmask 00111110
          -74 45 -92 100 131 170 176 88 50 vhcurveto
          71 -40 70 -48 65 -28 rrcurveto
          hintmask 01011110
          -70 150 160 -102 159 hhcurveto
          99 204 73 86 17 -12 14 -24 hvcurveto
          hintmask 10011110
          -74 -80 -94 -86 hhcurveto
          -137 -148 96 64 -153 hvcurveto
          -80 32 -72 43 -76 41 39 109 15 133 24 105 17 67 12 68 14 69 rrcurveto
          -20 60 61 -17 59 hhcurveto
          91 192 82 70 21 -12 16 -21 -10 -10 -2 -6 -10 hvcurveto
          -62 -93 -55 -22 -53 hhcurveto
          -53 -49 20 25 -74 hvcurveto
          51 233 43 170 23 144 59 166 rlinecurve
          24 71 25 68 74 53 rrcurveto
          2 hlineto
          37 -14 137 -97 12 -90 rrcurveto
          -20 8 13 22 callgsubr
          27 28 28 29 4 hvcurveto
          -1089 -1647 rmoveto
          -51 -25 76 33 76 68 75 90 57 55 -18 -27 56 hvcurveto
          -71 -47 -127 -144 -76 hhcurveto
          endchar
        </CharString>
        <CharString name="t">
          -310 -8 96 -96 211 733 88 -88 371 hstemhm
          121 94 hintmask 01101000
          125 932 rmoveto
          8 49 49 2 49 hhcurveto
          -24 -133 -19 -64 -77 -344 -19 -116 rcurveline
          -8 -47 -4 -41 -35 vvcurveto
          -152 76 -18 63 105 38 49 84 66 vhcurveto
          14 18 2 9 10 vvcurveto
          26 -16 15 -20 vhcurveto
          hintmask 10101000
          -70 -12 -115 -95 hhcurveto
          -28 -29 10 92 148 100 338 50 260 hvcurveto
          -4 69 10 -2 70 hhcurveto
          57 70 -2 57 41 -68 -2 -45 hvcurveto
          -147 hlineto
          16 88 17 78 16 67 rrcurveto
          13 vlineto
          hintmask 10011000
          24 -14 13 -17 -75 -21 -199 -86 -16 vhcurveto
          -47 2 -52 -2 -49 4 rrcurveto
          -33 -4 -22 -31 -24 vvcurveto
          -19 10 -14 31 -2 vhcurveto
          endchar
        </CharString>
        <CharString name="thorn">
          -99 -827 -21 815 90 885 100 584 -20 hstem
          717 94 vstem
          283 518 rmoveto
          135 26 129 289 146 hhcurveto
          96 37 -170 -82 -140 -53 -260 -93 -112 hvcurveto
          -82 -68 -62 -39 -54 hhcurveto
          -80 -49 78 141 -18 hvcurveto
          10 31 6 33 33 vvcurveto
          6 vlineto
          -256 -707 rmoveto
          -14 -73 -74 -308 -94 vvcurveto
          -35 18 -10 21 19 31 23 26 5 vhcurveto
          54 287 62 299 68 287 rrcurveto
          -1 callgsubr
          -104 -88 -86 -106 -68 hvcurveto
          8 45 133 631 11 45 rrcurveto
          33 -13 22 -22 -47 -4 -20 -29 -11 vhcurveto
          endchar
        </CharString>
        <CharString name="three">
          -27 -842 94 1704 88 hstemhm
          -432 100 1043 96 -37 98 hintmask 11110000
          178 770 rmoveto
          74 64 120 112 179 hhcurveto
          164 6 -110 -72 -125 -203 -178 -88 -53 hvcurveto
          -66 -41 rlineto
          -86 -19 -100 -51 -43 vvcurveto
          -18 12 -17 29 -2 vhcurveto
          65 9 66 26 66 39 rrcurveto
          12 hlineto
          hintmask 11101000
          196 156 -225 -199 -321 -180 -304 -400 -229 -293 136 247 46 10 45 5 45 hvcurveto
          24 -7 -14 10 -14 hhcurveto
          -62 -18 -112 -68 -299 377 -168 221 508 194 344 363 250 -133 211 -223 49 hvcurveto
          106 84 89 104 49 78 rrcurveto
          hintmask 11110000
          22 37 29 67 60 vvcurveto
          113 -82 126 -184 -181 -264 -153 -109 -22 17 -15 20 14 17 9 16 14 vhcurveto
          endchar
        </CharString>
        <CharString name="threequarters">
          77 callsubr
          949 106 877 96 102 -20 hstemhm
          -113 99 379 260 -222 328 -207 101 6 100 hintmask 1111111001000000
          -67 callsubr
          -647 -198 rmoveto
          35 35 -7 -26 hvcurveto
          -139 -266 -76 -74 vvcurveto
          -14 10 -13 24 -2 vhcurveto
          21 18 2 3 21 hvcurveto
          hintmask 1111110011000000
          51 -9 14 -59 -64 vvcurveto
          -249 -198 -150 -160 -98 -80 59 130 -2 vhcurveto
          41 callsubr
          -183 7 165 -69 91 hhcurveto
          186 56 callgsubr
          7 49 47 vvcurveto
          80 -23 76 -61 28 vhcurveto
          hintmask 1111110100000000
          92 70 98 102 97 vvcurveto
          65 -69 29 -76 70 callgsubr
          13 2 8 10 vhcurveto
          22 19 21 57 hhcurveto
          557 -971 -89 callsubr
          -698 629 16 callgsubr
        </CharString>
        <CharString name="threesuperior">
          -388 801 106 877 96 hstemhm
          -248 98 379 260 -221 328 -207 100 7 100 hintmask 11110010
          426 1784 rmoveto
          35 35 -6 -27 hvcurveto
          -139 -267 -76 -74 vvcurveto
          -14 11 -12 24 -2 vhcurveto
          21 18 2 2 21 hvcurveto
          hintmask 11100110
          51 -8 14 -60 -63 vvcurveto
          -250 -199 -150 -159 -99 -79 60 129 -3 vhcurveto
          16 -6 -10 65 callgsubr
          -35 -33 -32 -6 hvcurveto
          -183 6 166 -69 90 hhcurveto
          187 56 callgsubr
          6 49 47 vvcurveto
          80 -22 76 -61 29 vhcurveto
          hintmask 11101000
          92 69 98 103 96 vvcurveto
          65 -70 29 -75 70 callgsubr
          12 2 8 11 vhcurveto
          22 19 21 57 hhcurveto
          -141 -342 16 callgsubr
        </CharString>
        <CharString name="tilde">
          749 2150 1 callsubr
          hintmask 10100000
          584 2193 -61 callgsubr
          hintmask 01000000
          -61 callsubr
          hintmask 10100000
          -81 callsubr
        </CharString>
        <CharString name="two">
          75 -18 100 -100 399 -372 -21 211 88 661 94 hstemhm
          -43 90 670 92 hintmask 10011110
          215 756 rmoveto
          100 143 92 154 133 72 -47 -108 -177 -219 -241 -148 -148 vhcurveto
          -6 9 callsubr
          5 rrcurveto
          24 -58 -79 27 -62 hhcurveto
          -98 -78 -66 -102 -74 72 -63 88 86 59 30 68 68 hvcurveto
          14 14 14 12 15 17 rrcurveto
          hintmask 00111110
          -62 112 107 -73 96 hhcurveto
          174 56 184 172 12 hvcurveto
          hintmask 01001110
          27 -6 -17 10 -16 hhcurveto
          hintmask 10011110
          -100 65 -299 -160 hhcurveto
          -94 -86 51 49 -84 hvcurveto
          178 180 199 232 205 vvcurveto
          164 -102 79 -183 -186 -215 -155 -131 -29 18 -12 17 20 27 16 25 10 vhcurveto
          -106 -676 rmoveto
          -15 -47 14 33 39 43 33 51 49 50 -15 -20 47 hvcurveto
          -58 -62 -39 -26 -77 hhcurveto
          endchar
        </CharString>
        <CharString name="twosuperior">
          -357 1030 262 568 -20 hstem
          262 318 vstem
          479 1763 rmoveto
          -33 -90 -90 -225 -131 -160 57 callsubr
          -98 -74 -22 13 -29 30 7 6 2 2 10 hvcurveto
          39 21 39 28 37 35 rrcurveto
          -78 57 74 -49 106 hhcurveto
          43 56 25 43 12 -9 10 41 callgsubr
          25 -37 hvcurveto
          -30 18 71 callgsubr
          177 43 82 rrcurveto
          27 53 25 53 45 vvcurveto
          45 -25 57 callgsubr
          -19 23 29 30 29 31 6 vhcurveto
          33 31 45 28 39 6 rrcurveto
          endchar
        </CharString>
        <CharString name="u">
          59 callsubr
          938 -87 callsubr
          endchar
        </CharString>
        <CharString name="uacute">
          59 callsubr
          1580 -87 callsubr
          602 627 -107 callsubr
        </CharString>
        <CharString name="ucircumflex">
          -87 -178 -913 117 53 callgsubr
        </CharString>
        <CharString name="udieresis">
          59 callsubr
          1164 -15 callgsubr
          82 94 107 174 80 90 -90 127 18 168 hintmask 1110110110000000
          -72 callgsubr
          hintmask 1110111010000000
          -92 callgsubr
          481 316 -99 callgsubr
          hintmask 1101111010000000
          -97 callgsubr
        </CharString>
        <CharString name="ugrave">
          -87 211 -915 117 53 callsubr
        </CharString>
        <CharString name="underscore">
          378 -86 94 -69 94 hstemhm
          hintmask 10000000
          10 -68 rmoveto
          -14 53 56 -4 57 238 213 14 229 hhcurveto
          hintmask 01000000
          148 147 0 11 149 hvcurveto
          27 8 23 26 25 vvcurveto
          -22 callsubr
          vhcurveto
          -311 -21 -312 15 -311 -11 rrcurveto
          hintmask 10000000
          -2 -62 -65 -6 -66 -51 -49 17 -47 hhcurveto
          -31 -28 -31 -27 -14 8 -12 20 -9 hvcurveto
          endchar
        </CharString>
        <CharString name="uni00AD">
          -42 callsubr
          51 29 -16 102 -70 callsubr
        </CharString>
        <CharString name="uni0401">
          188 72 callgsubr
          182 -15 callgsubr
          43 100 150 98 105 -16 callsubr
          hintmask 1111011110000000
          1147 1640 rmoveto
          224 -94 -133 123 -244 23 callgsubr
          97 -98 hvcurveto
          -246 -14 callsubr
          72 vhcurveto
          33 -11 16 -22 -19 -22 -12 -21 -14 vhcurveto
          -272 -33 -227 -186 -279 23 callsubr
          203 59 hvcurveto
          -34 63 135 -56 72 hhcurveto
          39 41 37 39 78 -172 47 -105 -14 -14 0 -2 -11 hvcurveto
          -112 82 -68 7 callgsubr
          80 vhcurveto
          -21 8 12 22 callgsubr
          27 83 callgsubr
          -246 570 -99 callgsubr
          hintmask 1110111110000000
          -97 callgsubr
        </CharString>
        <CharString name="uni0402">
          4 68 callgsubr
          838 100 -70 95 hstemhm
          782 80 hintmask 11110100
          608 -221 rmoveto
          -322 -61 -156 -202 -276 hhcurveto
          -52 -8 callsubr
          140 -25 67 36 callgsubr
          58 275 53 372 rrcurveto
          4 55 callgsubr
          -180 1 callgsubr
          49 215 160 770 57 283 rrcurveto
          hintmask 11101100
          -31 121 473 61 111 12 callgsubr
          -197 10 -419 -49 -101 6 rrcurveto
          14 -12 -16 8 -17 hhcurveto
          -20 -15 -8 -14 -6 hvcurveto
          hintmask 11110100
          2 -141 -139 6 -146 hhcurveto
          -78 -84 -6 -60 -18 13 -14 30 -2 hvcurveto
          4 70 70 2 67 hhcurveto
          107 106 -4 -2 105 hvcurveto
          -82 -484 -211 -913 -86 -424 rrcurveto
          -35 20 -22 15 30 45 4 43 12 -6 18 6 11 vhcurveto
          29 121 10 90 -30 callsubr
          hvcurveto
          endchar
        </CharString>
        <CharString name="uni0403">
          68 callsubr
          557 44 callgsubr
          838 2507 rmoveto
          -45 -92 -33 -101 -35 -98 -9 callgsubr
          -10 19 20 27 12 27 10 vhcurveto
          35 92 24 96 46 86 rrcurveto
          -13 callgsubr
          10 9 vvcurveto
          22 73 callgsubr
          -17 -20 -10 -20 -14 vhcurveto
          -578 -531 -12 callsubr
          21 18 39 callsubr
          5 -8 vhcurveto
          -134 -651 -67 -479 -152 -658 rrcurveto
          -28 callsubr
          17 -10 18 21 30 -40 callsubr
          19 hhcurveto
          hintmask 11010000
          43 -15 -8 131 90 91 16 90 hhcurveto
          35 32 -2 -6 35 hvcurveto
          35 29 29 29 30 -78 8 -90 hvcurveto
          -95 -110 -8 -53 hhcurveto
          -211 51 -8 -4 -98 hvcurveto
          30 callsubr
          33 -11 16 -22 61 callgsubr
          -26 hlineto
          -29 10 -59 0 -19 6 rrcurveto
          endchar
        </CharString>
        <CharString name="uni0404">
          92 -70 90 752 88 -88 350 803 92 hstemhm
          119 92 hintmask 11011000
          1069 2011 rmoveto
          49 callgsubr
          -365 -135 -149 -441 -70 -362 rrcurveto
          -47 -45 -35 -54 -10 vvcurveto
          -20 15 -17 22 6 7 2 2 8 vhcurveto
          -2 -6 0 -4 -6 vvcurveto
          -15 -92 -22 -174 -139 -60 callsubr
          131 18 133 19 113 hvcurveto
          6 39 6 43 8 43 rrcurveto
          4 6 7 2 6 hhcurveto
          -27 149 94 -227 197 25 26 2 25 hhcurveto
          143 8 162 248 -28 callgsubr
          -88 -82 -55 -113 -145 hhcurveto
          hintmask 10111000
          -179 -88 262 -180 hhcurveto
          -6 -4 0 -2 -4 hvcurveto
          65 312 129 364 297 111 -10 callgsubr
          endchar
        </CharString>
        <CharString name="uni0405">
          -91 callsubr
        </CharString>
        <CharString name="uni0406">
          -83 callgsubr
        </CharString>
        <CharString name="uni0407">
          -353 -20 112 -86 86 -81 -21 1874 100 180 -15 callgsubr
          354 -16 callsubr
          hintmask 00111011
          -63 -10 rmoveto
          hintmask 01011011
          8 callsubr
          hintmask 10011011
          -44 callgsubr
          -27 27 -200 6 vhcurveto
          10 10 6 13 2 14 35 317 86 308 68 311 57 268 53 279 103 256 rrcurveto
          -2 67 37 -2 74 hhcurveto
          30 6 25 26 25 vvcurveto
          14 -8 13 -23 8 vhcurveto
          2 -110 -72 6 -86 hhcurveto
          -47 -51 -2 -6 -64 hvcurveto
          -10 hlineto
          -35 -2 -29 -29 -27 vvcurveto
          -16 11 -14 28 -4 vhcurveto
          11 hlineto
          65 51 2 2 41 hvcurveto
          -100 -256 -49 -279 -62 -266 -73 -313 -80 -318 -37 -321 rrcurveto
          -9 2 -8 2 -4 vhcurveto
          -8 hlineto
          -80 -113 -6 -63 hvcurveto
          hintmask 00111011
          63 callgsubr
          vhcurveto
          833 2195 -99 callgsubr
          hintmask 10010111
          -97 callgsubr
        </CharString>
        <CharString name="uni0408">
          -89 callgsubr
        </CharString>
        <CharString name="uni0409">
          976 -88 94 -20 94 844 96 965 -20 hstemhm
          1065 94 574 98 hintmask 10111100
          -117 322 rmoveto
          21 -25 0 -35 16 -29 rrcurveto
          -194 113 147 -127 129 hhcurveto
          185 129 219 191 104 hvcurveto
          70 124 53 185 45 135 76 233 69 234 109 221 55 113 76 157 115 78 -64 -227 -51 -246 -49 -223 -53 -229 rcurveline
          -45 -54 rlineto
          -9 -41 callsubr
          hintmask 01111100
          -54 callsubr
          -6 -16 -37 -14 -41 -33 -21 -14 rlinecurve
          -117 -86 -86 -164 -61 -127 -178 -363 -70 -401 -172 -365 rrcurveto
          hintmask 10111100
          -98 -47 -119 -248 -145 hhcurveto
          -158 -106 168 117 -68 hvcurveto
          -20 35 -2 75 -50 -2 rrcurveto
          -28 -25 -26 -31 -6 2 -8 2 -6 hvcurveto
          1534 602 rmoveto
          189 59 callgsubr
          hvcurveto
          hintmask 01111100
          6 callsubr
          vhcurveto
          56 callsubr
          35 38 27 76 hhcurveto
          endchar
        </CharString>
        <CharString name="uni040A">
          800 -49 -21 56 94 844 96 31 98 836 -20 hstem
          451 94 422 94 573 99 -77 callgsubr
          234 64 243 24 246 13 -41 -174 rcurveline
          -45 -54 rlineto
          -8 -41 callsubr
          -170 118 -120 115 -45 callsubr
          14 68 181 8 180 0 176 8 rlinecurve
          74 callgsubr
          -25 callsubr
          -174 -6 -178 -2 -178 -8 55 256 64 285 78 245 rrcurveto
          33 -9 17 -22 -23 -28 -21 -29 -11 vhcurveto
          -80 -247 -59 -285 -57 -258 -242 -12 -244 -25 -233 -59 70 297 51 296 2 291 rrcurveto
          2 vlineto
          13 vlineto
          -2 2 0 4 2 vvcurveto
          -4 10 -7 8 -8 4 -2 2 rcurveline
          -4 hlineto
          2 -4 -2 0 -2 hhcurveto
          -4 -4 0 -2 -2 hvcurveto
          -17 -4 -16 -12 -10 -16 -6 -11 rcurveline
          -4 vlineto
          -12 vlineto
          -2 -293 -54 -303 -73 -303 -64 callsubr
          1528 320 rmoveto
          188 59 callgsubr
          29 callgsubr
          -61 18 callgsubr
          hvcurveto
          12 71 29 125 24 121 rrcurveto
          39 35 39 27 76 hhcurveto
          endchar
        </CharString>
        <CharString name="uni040B">
          1 5 20 callsubr
          936 102 322 106 524 -20 hstemhm
          741 105 hintmask 10111100
          130 1379 rmoveto
          50 -25 56 -6 125 -2 -96 -464 -122 -543 -61 -298 -51 callgsubr
          hintmask 01111100
          -49 callgsubr
          29 128 68 323 63 301 rrcurveto
          45 hlineto
          -30 callgsubr
          -17 hlineto
          44 212 39 188 16 81 35 callsubr
          -8 -27 -21 -127 -31 -164 -37 -181 rlinecurve
          -13 -15 0 1 -20 hvcurveto
          -20 -21 -2 -20 -27 callgsubr
        </CharString>
        <CharString name="uni040C">
          309 -18 79 -46 -21 2523 19 callgsubr
          274 36 callsubr
          181 -507 381 hhcurveto
          112 41 20 100 96 hvcurveto
          13 15 6 12 12 vvcurveto
          23 -17 14 -20 31 callgsubr
          -86 -57 -47 -15 -82 hhcurveto
          -320 -192 512 320 -25 22 callsubr
          265 240 262 334 -7 callgsubr
          -14 -4 -12 -15 vhcurveto
          -297 -373 -321 -297 -291 -350 -12 -14 rcurveline
          78 346 75 346 66 340 rrcurveto
          12 vlineto
          25 -14 12 -17 -22 -29 62 callgsubr
          -121 -530 -115 -541 -110 -541 -19 -90 -24 -86 -9 -96 rrcurveto
          hintmask 01100000
          -31 3 14 -12 39 callgsubr
          50 callgsubr
          8 90 22 80 19 88 33 150 32 151 35 152 rrcurveto
          -14 74 rmoveto
          -2 hlineto
          4 4 rlineto
          0 34 callsubr
          vvcurveto
          836 1617 -107 callsubr
        </CharString>
        <CharString name="uni040E">
          -98 callsubr
        </CharString>
        <CharString name="uni040F">
          427 -473 -21 476 -21 39 72 -59 -21 23 20 callsubr
          2009 -20 hstemhm
          498 92 hintmask 11100011
          1073 82 rmoveto
          -4 -4 2 -4 hhcurveto
          6 37 0 43 8 35 23 114 26 117 27 115 102 461 82 446 101 477 rrcurveto
          29 -2 -15 12 27 callgsubr
          -96 -512 -108 -489 -107 -498 -49 -231 rcurveline
          -8 -37 -2 -39 -4 -37 rrcurveto
          -4 -27 12 -10 -114 hhcurveto
          -125 -72 2 2 -63 hvcurveto
          8 -7 -8 4 -12 -4 -6 -2 -6 hhcurveto
          -19 -6 rlineto
          -2 0 -2 -2 hhcurveto
          2 -57 -66 2 -104 hhcurveto
          -66 -8 2 8 -109 hvcurveto
          19 105 37 98 30 104 25 86 18 90 19 91 86 432 65 438 103 430 -2 -2 rcurveline
          4 vlineto
          29 -25 8 -14 -41 -4 -39 -35 -17 vhcurveto
          -12 -123 -117 -577 -28 -135 -45 -213 -37 -217 -51 -213 -29 -121 -47 -113 -23 -119 rrcurveto
          -2 hlineto
          -28 -6 -27 -26 -25 vvcurveto
          -14 8 -13 23 -8 vhcurveto
          4 4 -2 4 hhcurveto
          hintmask 11000111
          -10 vlineto
          -25 6 14 -10 15 hhcurveto
          hintmask 11100011
          20 23 19 20 12 hvcurveto
          -14 209 100 -4 99 hhcurveto
          -2 -123 -66 -228 -20 -84 rrcurveto
          -28 2 14 66 callsubr
          18 91 62 206 8 138 rrcurveto
          209 hlineto
          hintmask 11000111
          135 -29 14 51 hhcurveto
          19 hlineto
          hintmask 11010011
          -2 4 46 callgsubr
          hhcurveto
          hintmask 11001011
          6 4 2 7 hhcurveto
          12 12 -2 -2 17 hvcurveto
          34 2 29 28 27 vvcurveto
          14 -12 15 -27 6 vhcurveto
          endchar
        </CharString>
        <CharString name="uni0410">
          -101 callgsubr
        </CharString>
        <CharString name="uni0411">
          219 -40 -21 41 94 905 100 774 107 -45 96 8 -20 hstemhm
          930 94 hintmask 11101010
          281 983 rmoveto
          14 hlineto
          -59 -287 -60 -284 -72 -320 -141 27 -137 57 -51 100 rrcurveto
          46 -25 -8 86 -43 hhcurveto
          -35 -12 -39 -31 -195 237 -104 193 -39 hvcurveto
          -6 vlineto
          10 callgsubr
          62 callsubr
          16 -10 19 20 31 12 26 6 vhcurveto
          5 0 2 2 2 vhcurveto
          -4 35 29 -2 26 hhcurveto
          326 436 163 410 297 -240 205 -374 24 hvcurveto
          53 264 53 273 55 262 rrcurveto
          16 195 186 21 189 hhcurveto
          123 122 -8 -23 127 hvcurveto
          35 29 29 29 63 -320 6 -106 -184 -187 -26 -17 -188 hvcurveto
          2 vlineto
          hintmask 11110110
          33 -10 16 -23 61 callgsubr
          -4 -55 -55 -2 -55 hhcurveto
          -25 hlineto
          -4 10 -10 8 -19 6 rrcurveto
          -47 -4 -47 -12 -57 vvcurveto
          -39 4 64 -13 73 hhcurveto
          47 54 5 6 45 hvcurveto
          -2 -11 -2 -10 -8 vvcurveto
          -12 4 -11 4 -6 vhcurveto
          -55 -260 -48 -235 -45 -230 rrcurveto
          -65 -4 -64 -22 -56 vvcurveto
          -28 17 -13 18 15 18 9 16 12 vhcurveto
          123 -4 rmoveto
          373 -27 168 -172 -227 vvcurveto
          -348 -418 -131 -211 -33 -37 0 4 -36 vhcurveto
          63 258 64 311 67 332 rrcurveto
          endchar
        </CharString>
        <CharString name="uni0412">
          -102 callgsubr
        </CharString>
        <CharString name="uni0412.alt">
          -103 callsubr
        </CharString>
        <CharString name="uni0413">
          68 callsubr
          39 44 callgsubr
          3 callgsubr
          19 39 callsubr
          4 -8 vhcurveto
          -133 -651 -67 -479 -152 -658 -35 callgsubr
          hhcurveto
          hintmask 11010000
          43 -14 -8 131 90 90 16 90 hhcurveto
          35 33 -2 -6 35 hvcurveto
          35 28 29 29 30 -77 8 -91 hvcurveto
          -94 -110 -8 -54 hhcurveto
          -211 52 -8 -4 -99 10 callsubr
          -27 hlineto
          -28 80 callsubr
        </CharString>
        <CharString name="uni0414">
          964 -18 94 -75 -21 432 94 1392 91 77 -20 hstemhm
          47 90 1626 103 hintmask 10111110
          1075 -18 rmoveto
          490 301 548 494 338 -279 608 -692 19 hvcurveto
          6 43 rlineto
          24 45 callsubr
          -15 hhcurveto
          -22 -31 -22 -27 -6 hvcurveto
          -6 -28 -506 -17 -195 -235 -149 -303 rlinecurve
          -29 25 callgsubr
          25 12 hvcurveto
          117 249 200 199 424 16 -86 -430 -75 -362 -160 -614 rrcurveto
          8 -33 -33 6 -37 hhcurveto
          -122 -191 -66 -225 hvcurveto
          hintmask 01111110
          -106 59 -129 160 74 98 20 164 35 vhcurveto
          16 74 15 71 16 68 rrcurveto
          hintmask 10111110
          -101 199 147 -294 209 hhcurveto
          -196 1916 rmoveto
          514 -18 370 -387 -469 vvcurveto
          -426 -272 -522 -393 -183 -141 280 109 -233 vhcurveto
          143 620 123 408 72 405 rrcurveto
          -498 -1722 rmoveto
          -84 -23 -82 -10 -8 hhcurveto
          -102 -29 82 59 170 156 19 96 19 16 -4 -2 16 hvcurveto
          endchar
        </CharString>
        <CharString name="uni0415">
          128 72 callgsubr
          hstem
          -12 100 150 98 vstem
          1092 1640 rmoveto
          224 -95 -133 123 -243 23 callgsubr
          96 -98 hvcurveto
          -245 -14 callsubr
          71 vhcurveto
          33 -10 16 -22 60 callgsubr
          -272 -32 -228 -186 -278 23 callsubr
          202 59 hvcurveto
          -34 64 135 -56 72 hhcurveto
          39 40 37 39 78 -172 47 -104 -14 -15 0 -2 -10 hvcurveto
          -113 82 -67 7 callgsubr
          79 vhcurveto
          -21 9 12 22 callgsubr
          27 28 29 28 5 hvcurveto
          endchar
        </CharString>
        <CharString name="uni0416">
          1152 -18 79 -79 196 -163 -21 1976 -20 hstemhm
          hintmask 01010000
          1116 36 callsubr
          180 -507 381 hhcurveto
          113 43 20 100 94 hvcurveto
          12 15 7 12 12 vvcurveto
          23 -17 14 13 callgsubr
          hintmask 10010000
          -86 -58 -47 -15 -82 hhcurveto
          -319 -193 512 320 -24 22 callsubr
          264 240 263 334 -7 callgsubr
          -15 -4 -12 -14 vhcurveto
          -297 -373 -321 -297 -291 -350 -12 -14 rcurveline
          77 346 76 346 66 340 rrcurveto
          33 -9 16 -22 -23 -28 62 callgsubr
          -80 -346 -76 -348 -74 -353 -41 105 -35 61 -53 107 -129 250 -108 241 -105 285 rrcurveto
          12 -8 -12 4 -13 hhcurveto
          -28 -27 -24 -31 -6 0 -8 4 -6 hvcurveto
          141 -334 129 -244 148 -309 6 -12 8 -25 15 -27 -7 -4 -6 -8 -6 -8 rrcurveto
          -320 -158 -409 -512 -320 hhcurveto
          -82 -43 15 86 -20 hvcurveto
          hintmask 01010000
          12 -8 -13 4 -12 hhcurveto
          -26 -31 -24 -31 -6 2 -8 4 -7 hvcurveto
          -102 51 37 -18 113 hhcurveto
          485 315 532 317 179 hvcurveto
          12 -22 14 -18 17 -15 -33 -155 -33 -156 -31 -156 -18 -90 -25 -86 -8 -96 rrcurveto
          hintmask 00110000
          -31 -9 callsubr
          25 30 86 callgsubr
          9 90 22 80 19 88 32 150 33 151 35 152 rrcurveto
          endchar
        </CharString>
        <CharString name="uni0417">
          188 -20 92 938 161 723 99 hstem
          956 107 vstem
          471 1796 rmoveto
          62 74 88 36 102 hhcurveto
          133 88 -84 -131 -241 -258 -178 -143 -89 hvcurveto
          -125 -2 -129 -8 -106 vvcurveto
          -39 29 -6 35 79 93 53 41 65 vhcurveto
          266 -23 101 -245 -236 vvcurveto
          -375 -328 -153 -274 -275 -291 311 317 -51 vhcurveto
          17 -10 -12 6 -13 hhcurveto
          -28 -27 -33 -33 hvcurveto
          -329 80 260 -348 369 hhcurveto
          469 225 286 348 287 -109 215 -264 45 hvcurveto
          180 125 177 158 237 vvcurveto
          179 -93 133 -204 -111 -129 -47 -80 -86 vhcurveto
          -16 -15 -9 -16 -14 vvcurveto
          -21 15 -16 22 10 11 4 8 14 vhcurveto
          endchar
        </CharString>
        <CharString name="uni0418">
          47 callsubr
          -20 hstemhm
          1051 88 hintmask 01011000
          -23 callgsubr
          hintmask 00111000
          -27 callsubr
          hintmask 10011000
          -84 callgsubr
          endchar
        </CharString>
        <CharString name="uni0419">
          47 callsubr
          121 0 92 -92 354 19 -20 hstemhm
          1051 88 hintmask 01010011
          -23 callgsubr
          hintmask 00110011
          -27 callsubr
          hintmask 10010011
          -84 callgsubr
          324 484 rmoveto
          -164 72 callsubr
          158 151 113 vhcurveto
          -38 callgsubr
          -14 -4 -13 -15 vhcurveto
          hintmask 01001011
          -108 -80 -120 -156 -185 hhcurveto
          hintmask 01000101
          71 callsubr
          -28 -35 hvcurveto
          endchar
        </CharString>
        <CharString name="uni041A">
          -94 callgsubr
        </CharString>
        <CharString name="uni041B">
          -17 -2 -21 24 -21 2015 -20 hstemhm
          702 97 hintmask 10110000
          778 1946 rmoveto
          34 callsubr
          -3 vvcurveto
          -4 -4 -2 -6 -2 -4 -141 -457 -293 -624 -262 -408 -52 -80 -110 -204 -64 -68 rrcurveto
          6 -8 -8 2 -10 hhcurveto
          -29 -27 -29 -30 -51 56 -5 16 19 20 3 24 23 hvcurveto
          256 289 366 725 211 532 rrcurveto
          -20 -217 -9 -217 -213 vvcurveto
          -297 19 -297 37 -301 vhcurveto
          hintmask 01110000
          -20 4 12 22 callgsubr
          31 35 36 35 hvcurveto
          -37 297 -18 293 293 vvcurveto
          336 20 342 53 348 vhcurveto
          25 -2 -10 10 -16 hhcurveto
          -23 -30 -23 -26 -13 hvcurveto
          endchar
        </CharString>
        <CharString name="uni041C">
          -95 callgsubr
        </CharString>
        <CharString name="uni041D">
          -100 callgsubr
        </CharString>
        <CharString name="uni041E">
          -83 callsubr
        </CharString>
        <CharString name="uni041F">
          610 -22 -21 56 -21 1898 86 29 -20 hstem
          180 1913 rmoveto
          105 -12 106 -7 105 -2 -9 -41 0 -51 -8 -37 -114 -583 -142 -549 -104 -598 rrcurveto
          -29 25 callgsubr
          25 12 hvcurveto
          360 1730 7 39 0 39 6 39 rlinecurve
          4 21 callsubr
          2 4 rrcurveto
          123 hlineto
          237 267 8 3 235 hvcurveto
          -186 -623 -74 -649 -145 -633 2 2 rcurveline
          -4 vlineto
          -29 24 -8 15 40 5 39 35 16 vhcurveto
          12 123 117 577 29 135 73 346 62 353 102 338 rrcurveto
          35 hlineto
          80 -10 -2 -17 204 hvcurveto
          29 6 27 27 25 vvcurveto
          14 -8 12 -23 8 vhcurveto
          15 -190 -9 6 -67 hhcurveto
          -80 hlineto
          2 -4 -6 2 -4 hhcurveto
          -9 -8 -2 -4 -6 hvcurveto
          -4 -213 -303 -11 -225 hhcurveto
          -183 -184 7 18 -184 hvcurveto
          -35 -2 -29 -29 -26 vvcurveto
          -15 13 -14 26 -6 vhcurveto
          endchar
        </CharString>
        <CharString name="uni0420">
          -95 callsubr
        </CharString>
        <CharString name="uni0421">
          -78 callsubr
        </CharString>
        <CharString name="uni0422">
          -91 callgsubr
        </CharString>
        <CharString name="uni0423">
          -98 callsubr
        </CharString>
        <CharString name="uni0424">
          1693 -546 -21 522 94 1837 109 332 -20 hstem
          61 117 2349 90 vstem
          1198 1993 rmoveto
          -565 -572 -660 -606 -248 140 -217 168 -115 hvcurveto
          -106 153 189 -86 215 hhcurveto
          61 62 4 4 61 hvcurveto
          -35 -174 -31 -168 -28 -147 rrcurveto
          -23 -8 10 -18 20 hhcurveto
          25 35 22 33 10 hvcurveto
          96 487 rlineto
          778 109 635 559 713 vvcurveto
          307 -114 332 -349 -190 -166 -60 -88 -162 vhcurveto
          39 154 27 143 109 vvcurveto
          8 28 0 7 6 vvcurveto
          14 -8 19 -27 -33 -36 -29 -33 -8 0 -6 4 -6 vhcurveto
          -13 -88 -38 -172 -31 -138 rrcurveto
          82 -107 -153 64 -70 hhcurveto
          105 -1053 rmoveto
          -54 -250 -63 -321 -60 -312 rrcurveto
          -6 -53 -55 -2 -55 hhcurveto
          -521 -264 340 365 417 397 715 592 68 172 -88 -72 88 hvcurveto
          143 -30 rmoveto
          -2 18 -6 19 -12 18 rrcurveto
          86 139 148 61 186 hhcurveto
          295 141 -251 -316 -672 -596 -493 -708 -98 hvcurveto
          61 311 78 326 63 299 35 172 56 225 63 223 29 6 32 33 -2 33 rrcurveto
          endchar
        </CharString>
        <CharString name="uni0425">
          -96 callgsubr
        </CharString>
        <CharString name="uni0426">
          311 -1241 100 991 252 -147 98 -53 102 1911 -20 hstemhm
          -25 105 67 101 467 100 438 103 hintmask 1010111110000000
          436 1997 rmoveto
          -71 -58 -43 -299 -17 -88 rrcurveto
          -78 -393 -80 -401 -385 vvcurveto
          -422 197 4 8 191 188 459 200 84 vhcurveto
          -31 -129 -69 -323 -121 vvcurveto
          hintmask 1100111110000000
          -59 6 -132 47 vhcurveto
          hintmask 1001111110000000
          106 -24 150 121 hhcurveto
          186 96 -264 -191 -436 -346 -250 -381 -149 -297 35 164 176 348 43 180 72 hvcurveto
          29 16 18 27 20 vvcurveto
          19 -10 6 -31 vhcurveto
          -354 -92 -285 -82 -197 vvcurveto
          -291 486 -16 65 289 541 176 668 123 -39 112 -60 94 vhcurveto
          68 -43 -100 102 -110 hhcurveto
          -78 -56 -53 -61 -49 hvcurveto
          -4 16 rlineto
          -2 14 0 15 14 vvcurveto
          227 27 132 88 329 vhcurveto
          78 291 116 469 97 315 rrcurveto
          8 27 10 41 29 vvcurveto
          18 -4 14 -16 -50 -43 -14 -82 -20 vhcurveto
          -123 -471 37 109 -148 -516 rrcurveto
          hintmask 1010111110000000
          -473 -135 -252 -439 -129 hhcurveto
          -82 -26 152 176 387 67 406 88 393 hvcurveto
          76 338 rlineto
          6 18 27 43 12 vvcurveto
          -4 13 rlineto
          12 -2 -10 10 -15 hhcurveto
          -12 -16 -4 -12 -17 hvcurveto
          endchar
        </CharString>
        <CharString name="uni0427">
          -21 -61 -21 643 86 1340 -20 hstem
          90 96 vstem
          354 1954 rmoveto
          -143 -361 -121 -325 -422 vvcurveto
          -162 53 -123 164 103 176 115 287 110 vhcurveto
          -47 -242 -106 -436 -60 -258 rrcurveto
          -30 -37 -29 -29 -26 37 -25 26 49 54 82 61 12 hvcurveto
          24 123 119 590 115 576 172 548 rlinecurve
          8 27 6 21 14 vvcurveto
          18 -8 9 -10 -39 -14 -11 -61 -27 vhcurveto
          -139 -316 2 -172 -96 -301 rrcurveto
          -286 -93 -184 -193 -121 hhcurveto
          -98 -25 90 123 414 115 313 139 350 hvcurveto
          2 11 rlineto
          24 -4 15 -20 -19 -26 -13 -20 -19 vhcurveto
          endchar
        </CharString>
        <CharString name="uni0428">
          745 -30 -21 31 100 1896 -20 hstem
          127 100 566 98 vstem
          317 1927 rmoveto
          -94 -477 -96 -543 -469 vvcurveto
          -157 20 -301 168 252 191 606 315 82 vhcurveto
          -19 -135 -28 -229 -140 vvcurveto
          -233 75 -184 123 217 140 450 213 65 vhcurveto
          -12 -135 -64 -381 -24 -135 63 callsubr
          -6 -2 vvcurveto
          -21 12 -10 14 25 35 24 33 12 vhcurveto
          35 184 6 181 31 182 65 412 117 587 117 381 rrcurveto
          25 -8 10 -19 -37 -20 -10 -33 -13 vhcurveto
          -414 -172 -200 -1431 -295 hhcurveto
          -103 -22 223 135 406 119 485 106 443 hvcurveto
          31 129 rlineto
          2 12 85 callgsubr
          27 -12 10 -11 -24 -33 -22 -27 -12 vhcurveto
          -78 -340 rlineto
          -455 -104 -345 -1044 -217 hhcurveto
          -88 0 297 67 467 90 535 97 496 hvcurveto
          24 -13 10 -14 -25 -32 -22 -27 -13 vhcurveto
          endchar
        </CharString>
        <CharString name="uni0429">
          1007 -909 96 735 80 -80 113 1907 89 callsubr
          100 738 98 981 98 hintmask 10111110
          422 1892 rmoveto
          -78 -270 -63 -281 -70 -272 -68 -262 -8 -31 -35 -266 rrcurveto
          -8 -68 -10 -65 -70 vvcurveto
          -194 57 -191 117 158 135 262 60 37 vhcurveto
          155 248 125 258 103 264 rrcurveto
          -29 -187 -20 -200 -176 vvcurveto
          -293 61 -232 193 145 205 291 170 104 vhcurveto
          8 14 -32 -145 -29 -143 -31 -146 rlinecurve
          -4 -2 -4 -4 vvcurveto
          -21 12 -8 25 -2 vhcurveto
          8 31 45 15 35 hhcurveto
          14 12 -2 -4 10 hvcurveto
          134 -56 139 -141 -156 vvcurveto
          -278 -346 -123 -223 -191 -403 25 192 -101 vhcurveto
          37 -20 24 86 -49 hhcurveto
          -28 -35 -33 -33 -4 hvcurveto
          4 -41 -4 -45 16 -34 rrcurveto
          -215 92 512 -35 166 hhcurveto
          297 391 200 330 199 -182 215 -203 -20 -21 -2 -4 -20 hvcurveto
          55 252 51 251 62 252 135 353 88 397 67 317 rrcurveto
          2 -2 2 5 2 -2 4 4 vvcurveto
          -2 2 -2 2 2 vvcurveto
          8 -6 -6 2 -8 hhcurveto
          -4 -6 0 -2 -5 hvcurveto
          -12 -6 -18 -8 -17 -17 -8 -16 rlinecurve
          -55 -260 -90 -260 -72 -260 -27 -94 -22 -93 -23 -94 -71 -190 -82 -170 -90 -109 rrcurveto
          hintmask 11011110
          -90 -76 -119 -215 -127 hhcurveto
          -106 -33 264 160 494 143 591 70 390 hvcurveto
          2 0 4 2 2 vhcurveto
          -2 -2 rlineto
          20 -2 -12 10 -15 hhcurveto
          -22 -33 -22 -27 -14 hvcurveto
          -82 -264 -43 -264 -95 -266 -88 -244 -125 -246 -131 -233 rrcurveto
          -101 -75 -138 -247 -69 hhcurveto
          -80 -25 108 141 179 41 227 25 123 hvcurveto
          71 370 105 369 94 367 rrcurveto
          24 -12 11 -14 -23 -33 -23 -27 -14 vhcurveto
          endchar
        </CharString>
        <CharString name="uni042A">
          55 -14 100 688 98 736 391 -96 96 hstemhm
          852 102 43 97 hintmask 11101100
          242 1311 rmoveto
          20 131 -2 125 -22 129 75 -33 88 -27 91 -16 -136 -287 -67 -329 -33 -181 rrcurveto
          -53 -10 -152 -784 340 hhcurveto
          305 215 354 229 142 -61 161 -256 -62 -131 -43 -88 -104 hvcurveto
          29 324 96 281 102 262 rrcurveto
          201 -15 326 6 236 vvcurveto
          92 -84 72 -103 -151 -121 -119 -162 -92 vhcurveto
          -33 8 -123 27 -98 27 -96 65 rlinecurve
          -7 -4 2 -4 hhcurveto
          -45 -24 -39 -39 hvcurveto
          73 -151 -41 -174 -162 vvcurveto
          -20 13 -9 16 25 34 25 33 13 vhcurveto
          395 -537 rmoveto
          137 78 -112 -138 -174 -168 -264 -215 -211 47 383 123 17 hvcurveto
          96 59 131 86 125 hhcurveto
          hintmask 11011100
          225 1129 rmoveto
          101 34 -54 -53 -65 -245 -72 -131 45 hvcurveto
          104 71 99 95 71 hhcurveto
          endchar
        </CharString>
        <CharString name="uni042B">
          710 -68 95 -70 94 934 88 -88 189 817 -20 hstemhm
          39 100 269 100 348 102 267 104 hintmask 0110111110000000
          406 1913 rmoveto
          -2 2 -2 -4 vvcurveto
          -56 -64 -204 -6 -21 vhcurveto
          -119 -395 -98 -438 -64 -398 rrcurveto
          -10 -57 -8 -66 -61 vvcurveto
          -143 59 -109 205 326 329 424 321 78 -20 107 -47 92 vhcurveto
          45 hlineto
          76 78 8 29 71 hvcurveto
          80 31 70 43 61 49 -24 -115 rcurveline
          -43 -199 -80 -301 -272 vvcurveto
          hintmask 1010111110000000
          -143 12 -177 168 125 63 117 86 76 vhcurveto
          19 17 8 18 14 vvcurveto
          17 -13 10 -18 -12 -15 -4 -12 -16 vhcurveto
          -56 -76 -39 -112 -102 hhcurveto
          -70 -6 90 94 197 21 94 16 112 hvcurveto
          29 199 35 213 49 215 rrcurveto
          161 189 72 251 236 vvcurveto
          6 0 8 -2 6 vhcurveto
          4 9 -4 -2 rlineto
          16 -4 -8 12 -21 hhcurveto
          -24 -29 -22 -27 -12 hvcurveto
          -109 -217 25 23 -82 -304 -16 -57 -15 -55 -14 -58 rrcurveto
          -141 -131 -168 -41 -164 hhcurveto
          -39 -39 2 4 -37 hvcurveto
          hintmask 0101111110000000
          56 -53 -72 39 -92 hhcurveto
          -53 -113 -21 -61 -70 170 -27 142 -10 hvcurveto
          69 -74 35 -108 -123 vvcurveto
          -262 -231 -367 -297 -109 -80 39 172 137 41 172 13 68 vhcurveto
          61 319 84 363 96 317 rrcurveto
          19 62 55 141 98 vvcurveto
          37 -10 15 -27 -37 -28 -39 -39 vhcurveto
          1185 -266 rmoveto
          -12 -58 -16 -59 -25 -57 16 59 19 57 18 58 rrcurveto
          endchar
        </CharString>
        <CharString name="uni042C">
          -50 -14 94 844 96 965 -20 hstem
          39 94 574 98 vstem
          410 1935 rmoveto
          -84 -260 -62 -301 -59 -268 -53 -229 rcurveline
          -46 -54 rlineto
          -8 -41 callsubr
          -54 callsubr
          -19 -1011 rmoveto
          189 59 callgsubr
          6 callsubr
          hvcurveto
          56 callsubr
          34 39 27 76 hhcurveto
          endchar
        </CharString>
        <CharString name="uni042D">
          225 -18 92 776 90 147 97 741 103 hstem
          1053 96 vstem
          119 977 rmoveto
          63 90 33 47 98 227 125 -237 232 hhcurveto
          16 18 2 4 19 hvcurveto
          -59 -240 -97 -229 -131 -156 rrcurveto
          -84 -72 -83 -73 -119 hhcurveto
          -154 -139 114 138 -53 hvcurveto
          16 -11 -12 65 callgsubr
          -26 -33 -32 hvcurveto
          -185 71 182 -116 181 hhcurveto
          131 174 102 141 88 hvcurveto
          135 217 92 222 56 243 rrcurveto
          28 21 19 24 21 vvcurveto
          16 -11 17 -16 2 vhcurveto
          27 149 12 160 174 vvcurveto
          197 -64 340 -231 -172 -186 -164 -37 88 callgsubr
          22 7 34 callgsubr
          vhcurveto
          53 84 113 78 96 hhcurveto
          158 49 -237 -240 -150 -17 -165 -35 -168 hvcurveto
          -15 -24 -27 -10 -28 -179 -188 244 -193 hhcurveto
          -133 -43 -54 -83 -114 hvcurveto
          -17 -15 -8 -16 -15 vvcurveto
          -20 14 -16 23 10 10 4 8 15 vhcurveto
          endchar
        </CharString>
        <CharString name="uni042E">
          839 -20 102 -75 -21 1915 94 hstemhm
          561 98 1004 100 hintmask 01111000
          1686 1892 rmoveto
          70 -64 -70 33 -106 hhcurveto
          -391 -307 -422 -455 -125 hvcurveto
          -72 -8 -74 -14 -53 -6 -37 -5 -59 -4 -47 -12 36 180 41 193 50 225 24 115 10 65 52 99 rrcurveto
          2 8 0 75 callsubr
          19 -7 8 -16 -22 -33 -21 -28 -17 vhcurveto
          -73 -152 -15 -115 -51 -249 -153 -758 114 620 -235 -1263 rrcurveto
          -4 -2 2 -11 vvcurveto
          -24 12 -6 14 23 31 16 27 14 vhcurveto
          2 6 hlineto
          77 callgsubr
          6 rlineto
          2 0 2 -2 4 vhcurveto
          57 330 54 277 63 309 113 2 116 35 109 14 rrcurveto
          -25 -115 -12 -114 -109 vvcurveto
          hintmask 10111000
          -373 144 -333 305 391 184 548 416 94 vhcurveto
          41 180 43 209 185 vvcurveto
          88 -18 159 -64 80 vhcurveto
          5 8 4 11 10 vvcurveto
          6 -2 46 callgsubr
          vhcurveto
          -166 -59 rmoveto
          -72 143 29 -295 vvcurveto
          -78 -21 -182 -49 -236 vhcurveto
          -352 -73 -174 -565 -328 hhcurveto
          -250 -109 326 333 103 11 94 24 109 hvcurveto
          370 84 301 484 326 hhcurveto
          47 45 -11 -22 39 hvcurveto
          -10 -10 -6 -13 -12 vvcurveto
          endchar
        </CharString>
        <CharString name="uni042F">
          81 -748 95 643 -21 813 97 1083 96 hstem
          137 101 vstem
          1266 1835 rmoveto
          160 -80 -123 63 -180 hhcurveto
          -453 -293 -483 -389 -223 199 -170 143 -11 hvcurveto
          -123 -100 -115 -102 -116 -129 rrcurveto
          -444 -399 -401 -660 -675 hhcurveto
          -264 -254 161 220 -143 hvcurveto
          6 -8 -11 2 -10 hhcurveto
          -33 -30 -33 -37 hvcurveto
          -8 vlineto
          -236 161 295 -170 289 hhcurveto
          733 376 621 506 435 hvcurveto
          174 202 129 113 177 138 34 19 38 24 42 30 -164 -717 rcurveline
          -12 -53 -16 -63 -8 -58 -2 -10 rcurveline
          -24 12 -9 16 -2 vhcurveto
          50 33 72 88 20 hvcurveto
          64 277 36 172 61 253 44 183 29 182 46 180 119 486 rcurveline
          27 -29 22 -35 23 -41 rrcurveto
          -2 6 6 -2 8 hhcurveto
          35 35 29 35 6 -2 46 callgsubr
          hvcurveto
          -615 -917 rmoveto
          -27 -55 -51 -12 -51 hhcurveto
          -132 -124 157 213 297 280 416 340 70 55 -14 -27 49 hvcurveto
          -12 -10 -6 -13 -2 -14 rrcurveto
          -2 0 -4 2 -6 vhcurveto
          -66 -264 -65 -260 -82 -357 rrcurveto
          -2 -2 2 -2 hhcurveto
          -35 -43 -43 -18 -35 hvcurveto
          -8 -2 -12 -4 -11 -8 rrcurveto
          endchar
        </CharString>
        <CharString name="uni0430">
          -93 callsubr
        </CharString>
        <CharString name="uni0431">
          -175 -25 101 862 106 787 94 -29 93 hstemhm
          80 90 186 97 159 95 hintmask 11011110
          479 1044 rmoveto
          -274 -125 -536 -301 -166 72 -66 116 264 175 496 297 hvcurveto
          4 vlineto
          27 10 30 35 293 -264 180 260 vvcurveto
          144 39 155 163 vhcurveto
          hintmask 11101110
          164 111 -65 125 hhcurveto
          162 118 43 63 17 -12 14 -25 hvcurveto
          -63 -16 -43 -166 hhcurveto
          hintmask 11011110
          -172 -52 64 -155 hhcurveto
          -174 -144 -134 -247 -234 172 -168 66 -200 hvcurveto
          26 -25 -47 12 -43 hhcurveto
          133 -266 rmoveto
          -190 -141 -512 -197 -98 -6 106 90 254 149 412 150 84 59 -27 -133 vhcurveto
          endchar
        </CharString>
        <CharString name="uni0432">
          -281 -20 100 842 114 840 109 hstemhm
          82 92 416 98 -53 100 hintmask 11110100
          248 852 rmoveto
          143 322 344 284 354 vvcurveto
          89 -28 84 -113 -105 -133 -259 -270 -71 vhcurveto
          -70 -264 -74 -299 -37 -275 -41 -71 rcurveline
          10 callgsubr
          -9 -6 vvcurveto
          -20 13 -12 18 -3 vhcurveto
          -6 -63 -2 -59 -58 vvcurveto
          -198 74 -131 82 vhcurveto
          hintmask 11111000
          264 186 591 232 74 -12 159 -105 -125 -127 -114 -140 -106 hvcurveto
          6 39 12 6 11 11 6 14 rlinecurve
          287 70 rmoveto
          47 8 -29 -70 -227 -164 -516 -168 -70 -14 145 144 65 4 74 8 78 hvcurveto
          155 97 123 181 129 hhcurveto
          59 954 rmoveto
          hintmask 11110100
          39 2 -37 -65 -218 -240 -294 -133 -224 hvcurveto
          430 96 150 408 86 hhcurveto
          endchar
        </CharString>
        <CharString name="uni0433">
          -320 -10 96 -96 282 709 94 hstemhm
          59 93 -23 393 hintmask 01110000
          223 879 rmoveto
          20 82 82 66 24 21 -10 -27 12 40 callgsubr
          58 -106 129 166 118 157 50 43 vhcurveto
          8 callgsubr
          vhcurveto
          hintmask 10110000
          -76 -96 -186 -117 hhcurveto
          -65 -49 39 82 hvcurveto
          hintmask 10101000
          219 370 67 callgsubr
          -116 -156 -112 -105 -27 23 -10 12 26 29 29 29 4 vhcurveto
          endchar
        </CharString>
        <CharString name="uni0434">
          -34 callgsubr
          109 106 131 213 68 hvcurveto
          -27 -113 -20 -84 -13 -59 rrcurveto
          -258 -215 -278 -205 4 callgsubr
          26 129 23 131 22 127 74 53 74 55 68 52 rrcurveto
          14 12 2 16 13 vvcurveto
          20 -14 14 -21 31 callgsubr
          -41 -33 -53 -51 -49 -35 57 262 51 226 -53 callgsubr
          -41 -164 -61 -195 rrcurveto
          -215 -68 -135 -184 -1 callsubr
          219 205 201 166 hvcurveto
          -10 -65 -8 -64 -25 -119 rrcurveto
          endchar
        </CharString>
        <CharString name="uni0435">
          -76 callsubr
        </CharString>
        <CharString name="uni0436">
          315 -18 92 -92 266 -254 -21 28 -21 847 211 -80 80 11 -20 hstemhm
          hintmask 10000100
          207 891 rmoveto
          31 24 35 36 60 hhcurveto
          104 47 -204 -168 51 hvcurveto
          -2 -2 rlineto
          -154 -116 -158 -356 -152 hhcurveto
          hintmask 01001000
          -114 32 174 -55 hhcurveto
          -24 -27 32 callsubr
          hintmask 00101000
          -103 80 -123 102 29 30 9 22 31 vhcurveto
          178 125 86 188 121 172 6 -16 6 -16 9 -15 -76 -419 rcurveline
          hintmask 00011000
          -31 2 14 -12 19 hhcurveto
          24 15 callgsubr
          23 139 24 129 25 125 8 8 6 13 2 14 rrcurveto
          2 vlineto
          12 25 15 22 14 23 rrcurveto
          hintmask 10001000
          -150 19 75 -405 238 hhcurveto
          113 139 133 67 21 73 callgsubr
          -12 -15 -4 -12 -14 hvcurveto
          -86 -66 -57 -35 -49 hhcurveto
          -186 -62 362 205 -6 hvcurveto
          57 68 74 75 100 97 85 callsubr
          24 17 39 0 -115 59 hhcurveto
          27 26 27 31 65 -69 88 -56 -123 -196 -215 -172 -129 hvcurveto
          14 68 12 67 13 72 rrcurveto
          8 51 22 49 56 vvcurveto
          hintmask 10000010
          24 -6 -14 11 -14 hhcurveto
          -25 -27 -23 -27 -8 hvcurveto
          -6 -57 -16 -49 -6 -33 -21 -94 -18 -92 -17 -92 -37 106 -47 168 -35 84 rrcurveto
          68 -28 -56 39 -63 hhcurveto
          -78 -119 -58 -74 -24 9 -10 28 8 11 0 10 8 hvcurveto
          endchar
        </CharString>
        <CharString name="uni0437">
          -173 -840 88 1700 94 hstemhm
          -80 88 475 95 -3 91 hintmask 11101000
          172 831 rmoveto
          66 98 47 51 132 hhcurveto
          114 12 -39 -55 -170 -116 -98 -107 -94 hvcurveto
          -129 -23 -143 -96 -54 vvcurveto
          -14 12 -24 39 66 108 71 31 45 vhcurveto
          29 20 rlineto
          hintmask 11110000
          88 -2 16 -79 -107 vvcurveto
          -41 -4 -45 -4 -43 vhcurveto
          -246 -178 -129 -117 -75 -96 rrcurveto
          -54 -68 -51 -90 -112 vvcurveto
          -125 64 -140 176 121 69 70 152 58 vhcurveto
          59 157 68 285 28 225 107 78 86 55 20 15 rrcurveto
          12 14 5 14 13 vvcurveto
          20 -10 callsubr
          -156 -110 rlineto
          2 30 3 27 27 vvcurveto
          112 -25 94 -78 35 vhcurveto
          hintmask 11101000
          111 101 80 125 151 vvcurveto
          121 -52 63 -139 -180 -195 -116 -70 -20 17 -17 18 10 15 33 callgsubr
          162 -1363 rmoveto
          -173 -62 -43 -47 -77 hhcurveto
          -86 -58 72 117 106 72 86 43 47 hvcurveto
          92 101 127 108 119 90 -31 -196 -57 -197 -39 -114 rrcurveto
          endchar
        </CharString>
        <CharString name="uni0438">
          -35 -16 100 -83 -21 1052 89 callsubr
          98 74 94 hintmask 10111000
          254 983 -42 callgsubr
          hintmask 01111000
          -45 callgsubr
          hintmask 10111000
          -39 callsubr
        </CharString>
        <CharString name="uni0439">
          36 -16 100 -83 -21 1208 92 -92 354 19 89 callsubr
          98 74 94 hintmask 10101110
          336 1479 rmoveto
          -164 88 -127 160 184 154 158 151 112 vhcurveto
          6 9 2 10 9 vvcurveto
          19 -12 17 -24 -13 -14 -5 5 callgsubr
          -108 -80 -121 -156 -184 hhcurveto
          hintmask 10010110
          -195 92 262 -84 hhcurveto
          -28 -29 -29 -34 hvcurveto
          -82 -496 -42 callgsubr
          hintmask 01101110
          -45 callgsubr
          hintmask 10101110
          -39 callsubr
        </CharString>
        <CharString name="uni043A">
          -19 -20 96 762 211 hstem
          268 989 rmoveto
          -6 -57 -8 -39 -6 -33 -60 -278 -36 -265 -54 -294 rrcurveto
          -31 -9 callsubr
          25 30 24 33 5 hvcurveto
          18 130 22 123 23 121 25 46 rcurveline
          14 26 14 25 16 26 rrcurveto
          -162 26 103 -392 224 -11 callsubr
          -153 -102 341 227 -24 hvcurveto
          57 75 74 80 101 96 85 callsubr
          24 16 39 0 -114 59 hhcurveto
          27 27 26 31 66 -70 88 -55 -125 -204 -235 -180 -128 hvcurveto
          15 74 13 74 13 76 rrcurveto
          8 51 14 39 56 vvcurveto
          24 45 callsubr
          -14 hhcurveto
          -25 -15 callsubr
          endchar
        </CharString>
        <CharString name="uni043A.alt">
          -144 -406 97 310 -21 854 210 hstem
          252 995 rmoveto
          -6 -57 -8 -45 -7 -33 -59 -278 -37 -265 -53 -294 -3 callgsubr
          24 50 callgsubr
          19 78 callgsubr
          24 47 rcurveline
          15 26 14 27 16 25 rrcurveto
          -207 47 258 -734 435 37 callgsubr
          -15 -4 -13 -14 79 callsubr
          -355 -274 696 256 -37 hvcurveto
          57 74 74 78 100 96 85 callsubr
          24 17 39 0 -114 59 hhcurveto
          27 26 26 31 65 -69 88 -56 -125 -204 -231 -180 -127 hvcurveto
          14 74 14 75 13 76 rrcurveto
          8 51 14 45 56 vvcurveto
          -36 callsubr
        </CharString>
        <CharString name="uni043B">
          -15 -25 88 -60 -21 1046 -20 hstemhm
          551 84 hintmask 10110000
          -86 131 rmoveto
          -111 35 51 -45 102 hhcurveto
          174 191 195 248 96 hvcurveto
          -10 -76 -2 -41 -35 vvcurveto
          hintmask 01110000
          -200 43 -84 98 25 71 6 92 99 vhcurveto
          14 12 2 17 12 vvcurveto
          20 -14 15 9 callgsubr
          -13 -15 vhcurveto
          -57 -71 -6 -12 -56 hhcurveto
          -20 -39 4 110 252 47 244 66 190 hvcurveto
          20 62 8 31 26 vvcurveto
          27 -12 12 -27 -80 -77 -330 -94 -33 vhcurveto
          hintmask 10110000
          -168 -58 -157 -373 -226 hhcurveto
          -18 -90 3 122 hvcurveto
          17 -10 -13 6 -12 38 callsubr
        </CharString>
        <CharString name="uni043C">
          104 5 -21 33 -21 1048 19 callgsubr
          92 123 rmoveto
          90 237 90 211 93 215 10 -45 rcurveline
          -268 47 12 -106 68 hhcurveto
          12 14 90 callsubr
          hvcurveto
          131 108 78 113 108 131 78 96 rcurveline
          -86 -432 -80 -30 -41 -338 -3 callgsubr
          24 15 callgsubr
          66 379 133 194 41 396 rrcurveto
          26 -6 -10 8 -23 hhcurveto
          -66 -55 -114 -49 -37 hvcurveto
          -123 -160 -79 -86 -142 -154 -33 109 -6 96 -14 86 rrcurveto
          -4 27 -23 75 50 vvcurveto
          7 18 6 19 18 vvcurveto
          33 -21 18 -18 -21 -24 -18 -19 -13 vhcurveto
          -297 -637 -71 -229 -86 vvcurveto
          hintmask 01100000
          -29 12 -16 23 32 29 27 26 6 -2 8 -6 7 vhcurveto
          6 12 6 35 2 6 rrcurveto
          endchar
        </CharString>
        <CharString name="uni043D">
          22 -14 100 -88 -21 422 97 536 44 callgsubr
          -2 callsubr
          94 23 323 140 28 hvcurveto
          -35 35 53 -15 54 hhcurveto
          98 96 52 61 82 hvcurveto
          -61 -317 -13 -50 -41 vvcurveto
          hintmask 01110000
          -92 49 -35 45 93 10 33 41 vhcurveto
          hintmask 10110000
          21 -14 14 -21 vhcurveto
          -43 16 -12 -20 hhcurveto
          -8 -2 6 10 12 4 19 2 12 hvcurveto
          26 313 70 244 84 293 rrcurveto
          10 vlineto
          27 -14 12 -19 -92 -29 -194 -183 -43 vhcurveto
          -94 -81 -109 -65 -76 hhcurveto
          -82 -35 20 31 -30 hvcurveto
          28 186 48 158 12 callsubr
        </CharString>
        <CharString name="uni043E">
          -69 callsubr
        </CharString>
        <CharString name="uni043F">
          -85 callsubr
        </CharString>
        <CharString name="uni0440">
          -85 callgsubr
        </CharString>
        <CharString name="uni0441">
          -72 callsubr
        </CharString>
        <CharString name="uni0442">
          -248 -10 -21 973 119 -84 84 61 callsubr
          504 827 rmoveto
          -27 70 rlineto
          18 -8 -12 9 -13 hhcurveto
          -129 -20 -437 -180 -49 hvcurveto
          -19 -67 -22 -123 -27 -68 rrcurveto
          -10 -12 -4 -14 -13 vvcurveto
          -22 12 -19 23 63 53 262 60 17 vhcurveto
          39 147 -19 39 78 291 rrcurveto
          -8 6 8 -4 9 hhcurveto
          30 21 39 32 hvcurveto
          -395 93 rmoveto
          43 127 137 14 114 hhcurveto
          hintmask 11000000
          154 39 -35 96 hhcurveto
          35 29 29 28 17 -11 18 -24 2 hvcurveto
          17 -178 -21 8 -129 hhcurveto
          -145 -144 -12 -62 -141 hvcurveto
          -10 -6 -4 -10 -8 vvcurveto
          -21 26 -24 33 6 4 0 2 7 vhcurveto
          endchar
        </CharString>
        <CharString name="uni0443">
          13 callsubr
          956 70 callsubr
          hintmask 11111000
          -88 callgsubr
          -60 2 149 hvcurveto
          hintmask 11110100
          189 142 -52 callgsubr
          endchar
        </CharString>
        <CharString name="uni0444">
          290 -827 -21 815 90 -63 98 850 102 717 -20 hstemhm
          61 97 934 94 hintmask 10111110
          799 1712 rmoveto
          -168 -794 rlineto
          71 -23 -45 55 -82 hhcurveto
          -295 -125 -421 -285 -154 48 -190 188 55 64 29 47 57 hvcurveto
          -24 -133 -27 -134 -31 -131 -16 -71 -64 -260 -22 -119 rrcurveto
          -2 -10 0 -9 -6 vvcurveto
          -35 18 -10 21 24 25 23 26 6 vhcurveto
          53 287 68 299 63 287 rrcurveto
          hintmask 11011110
          -1 callgsubr
          -105 -88 -86 -106 -67 hvcurveto
          8 45 162 766 10 45 rrcurveto
          33 -12 22 -23 -47 -4 62 callgsubr
          -142 -1194 rmoveto
          131 45 111 293 145 hhcurveto
          97 37 -170 -82 -139 -54 -262 -92 -111 hvcurveto
          -82 -67 -64 -39 -53 hhcurveto
          -80 -49 78 141 -19 hvcurveto
          11 31 6 33 33 vvcurveto
          6 vlineto
          -131 -154 rmoveto
          hintmask 10111110
          -82 -49 -78 -51 -70 hhcurveto
          -98 -47 127 133 189 104 403 211 88 8 -156 -114 11 hvcurveto
          -29 -150 -25 -149 -26 -150 rrcurveto
          endchar
        </CharString>
        <CharString name="uni0445">
          -94 callsubr
        </CharString>
        <CharString name="uni0446">
          14 -442 94 332 104 -85 -21 1052 -20 hstemhm
          815 105 hintmask 11011000
          215 805 rmoveto
          -53 -203 -21 -137 -47 -207 rrcurveto
          -8 -35 -4 -30 -29 vvcurveto
          -119 65 -61 91 120 201 276 375 146 vhcurveto
          -27 -98 -94 -394 -33 -102 rrcurveto
          -2 -6 -2 -8 -7 vvcurveto
          hintmask 10111000
          -22 14 -16 27 41 102 116 72 84 vhcurveto
          -156 -2 -92 -362 -199 hhcurveto
          -61 -55 53 109 -44 hvcurveto
          16 -10 -12 65 callgsubr
          -23 -31 -30 -6 0 -7 3 -6 hvcurveto
          -137 55 80 -61 88 hhcurveto
          311 105 497 236 2 hvcurveto
          24 -5 -14 11 -16 hhcurveto
          -31 12 -31 -131 -178 hvcurveto
          60 239 0 119 88 326 rrcurveto
          16 57 25 49 37 vvcurveto
          27 -19 16 -20 -50 -20 -41 -71 -27 vhcurveto
          hintmask 11011000
          -250 -98 -219 -584 -166 hhcurveto
          -57 -15 41 43 14 2 17 2 14 hvcurveto
          58 299 94 318 153 vvcurveto
          29 -23 12 -14 -72 9 -113 -110 -27 vhcurveto
          endchar
        </CharString>
        <CharString name="uni0447">
          -183 -41 94 707 94 186 -20 hstemhm
          61 95 155 90 -90 404 hintmask 11111000
          156 686 rmoveto
          70 28 63 33 49 vhcurveto
          -73 31 65 -35 76 hhcurveto
          29 31 4 10 30 hvcurveto
          -96 -219 -72 -174 -244 vvcurveto
          -121 43 -57 64 92 100 121 147 113 vhcurveto
          84 callsubr
          vvcurveto
          21 -16 12 9 callgsubr
          -13 -15 vhcurveto
          -16 -14 -131 -205 -66 hhcurveto
          -30 -11 56 55 184 82 203 54 133 hvcurveto
          20 55 23 58 26 53 rrcurveto
          hintmask 11110100
          33 27 76 69 49 vvcurveto
          31 -13 10 -24 4 vhcurveto
          -64 -47 -73 -68 -35 hvcurveto
          -29 -34 -41 -16 -45 hhcurveto
          -64 -55 37 96 hvcurveto
          25 -6 -11 8 -22 hhcurveto
          -94 -86 -225 -72 -8 hvcurveto
          -3 -21 -2 -20 -20 vvcurveto
          -68 31 -10 19 19 callsubr
          6 -2 8 -4 9 vhcurveto
          -2 8 0 75 callsubr
          endchar
        </CharString>
        <CharString name="uni0448">
          343 -16 98 -98 145 -126 -21 1056 89 callsubr
          90 369 82 hintmask 10011100
          227 989 rmoveto
          -51 -248 25 37 -84 -403 rrcurveto
          -11 -51 -24 -91 -106 vvcurveto
          -98 20 -45 101 110 144 241 226 116 vhcurveto
          -22 -136 -10 -129 -65 vvcurveto
          -103 22 -34 60 125 190 354 194 106 vhcurveto
          -18 -71 -86 -271 -18 -81 rrcurveto
          -2 -9 -2 -14 -14 vvcurveto
          hintmask 00111100
          -47 22 -43 72 69 103 43 67 vhcurveto
          hintmask 01011100
          21 -10 16 -29 vhcurveto
          -49 8 -51 -72 hhcurveto
          -14 -10 2 31 12 2 -6 2 12 hvcurveto
          47 193 158 512 45 151 rrcurveto
          37 -11 12 -26 -56 -4 -53 -113 -45 vhcurveto
          hintmask 10011100
          -258 -104 -250 -528 -113 hhcurveto
          -24 -6 12 45 129 79 357 39 194 hvcurveto
          23 72 14 59 35 vvcurveto
          43 -20 10 -21 vhcurveto
          -41 -10 -8 -18 -18 -90 rrcurveto
          -238 -68 -233 -600 -168 hhcurveto
          -17 -12 6 35 92 88 490 62 299 hvcurveto
          24 -7 -14 4 callsubr
        </CharString>
</ttFont>
